<svg id="svg" version="1.1" xmlns="http://www.w3.org/2000/svg" xmlns:xlink="http://www.w3.org/1999/xlink" width="400" height="485.3080568720379" viewBox="0, 0, 400,485.3080568720379"><g id="svgg"><path id="path0" d="M313.300 76.109 C 312.521 76.972,309.485 77.845,306.051 78.192 C 304.649 78.335,302.852 78.799,302.057 79.225 C 301.262 79.651,300.249 80.002,299.806 80.003 C 298.897 80.007,292.219 83.315,289.844 84.937 C 288.988 85.522,288.104 86.000,287.878 86.000 C 287.652 86.000,287.182 86.265,286.834 86.590 C 286.485 86.914,284.811 88.399,283.113 89.890 C 281.415 91.380,278.945 93.860,277.622 95.400 C 276.300 96.940,274.952 98.508,274.626 98.883 C 274.300 99.259,273.664 100.249,273.212 101.083 C 272.294 102.780,271.831 103.557,270.510 105.622 C 270.009 106.403,269.600 107.276,269.600 107.560 C 269.600 107.844,269.263 108.554,268.850 109.138 C 268.438 109.722,267.893 111.178,267.639 112.373 C 267.385 113.568,266.961 114.806,266.696 115.125 C 266.431 115.444,265.911 117.706,265.540 120.152 C 265.168 122.599,264.652 125.410,264.392 126.400 C 263.791 128.694,264.132 135.995,264.948 138.275 C 265.277 139.196,265.668 141.266,265.817 142.875 C 265.965 144.484,266.401 146.350,266.785 147.023 C 267.168 147.695,267.609 148.921,267.764 149.746 C 268.037 151.204,271.782 158.784,272.441 159.214 C 272.621 159.332,273.039 160.052,273.370 160.814 C 274.739 163.976,285.967 175.118,288.700 176.029 C 289.415 176.267,290.000 176.608,290.000 176.787 C 290.000 177.276,298.776 181.600,299.768 181.600 C 300.243 181.600,301.344 181.969,302.215 182.420 C 303.087 182.872,305.128 183.394,306.750 183.582 C 308.913 183.832,309.928 184.150,310.550 184.773 L 311.400 185.622 311.501 257.311 C 311.584 316.811,311.693 329.068,312.139 329.400 C 312.435 329.620,312.987 330.399,313.365 331.131 C 315.325 334.925,320.483 334.862,323.778 331.005 L 325.600 328.872 325.600 257.281 C 325.600 189.681,325.639 185.642,326.300 184.856 C 326.836 184.219,327.766 183.931,330.275 183.626 C 332.098 183.405,334.223 182.868,335.069 182.414 C 335.904 181.966,336.951 181.598,337.394 181.597 C 338.303 181.593,344.981 178.285,347.356 176.663 C 348.212 176.078,349.096 175.600,349.322 175.600 C 349.548 175.600,350.018 175.337,350.366 175.014 C 350.715 174.692,351.990 173.569,353.200 172.519 C 355.636 170.404,358.849 167.147,360.636 164.981 C 361.276 164.205,362.205 163.100,362.700 162.526 C 363.195 161.953,363.600 161.264,363.600 160.996 C 363.600 160.727,363.989 160.014,364.464 159.410 C 365.855 157.641,369.059 151.135,369.370 149.446 C 369.528 148.591,370.004 147.244,370.428 146.452 C 370.853 145.660,371.200 144.379,371.200 143.606 C 371.200 142.832,371.497 140.940,371.861 139.400 C 372.809 135.379,373.031 126.604,372.252 123.908 C 371.917 122.749,371.461 120.360,371.238 118.600 C 371.016 116.840,370.466 114.687,370.017 113.815 C 369.567 112.944,369.200 111.931,369.200 111.566 C 369.200 110.731,365.652 103.700,364.476 102.205 C 363.994 101.593,363.600 100.917,363.600 100.704 C 363.600 100.309,362.876 99.360,359.876 95.825 C 356.534 91.886,349.360 85.600,348.207 85.600 C 347.941 85.600,347.402 85.245,347.009 84.810 C 346.616 84.376,345.913 83.901,345.447 83.755 C 344.981 83.609,344.171 83.155,343.646 82.745 C 343.121 82.335,342.381 82.000,342.000 82.000 C 341.619 82.000,340.848 81.638,340.285 81.196 C 339.723 80.753,338.350 80.218,337.234 80.006 C 336.118 79.795,334.776 79.340,334.251 78.997 C 333.727 78.653,331.971 78.199,330.349 77.987 C 325.596 77.366,324.642 77.140,323.860 76.451 C 322.682 75.414,314.176 75.139,313.300 76.109 M329.394 87.914 C 330.271 88.401,331.441 88.802,331.994 88.804 C 332.547 88.806,333.900 89.250,335.000 89.791 C 336.100 90.332,337.152 90.781,337.338 90.787 C 337.524 90.794,338.154 91.136,338.738 91.548 C 339.322 91.959,340.250 92.435,340.800 92.605 C 341.845 92.929,344.091 94.461,345.316 95.685 C 345.709 96.078,346.165 96.400,346.329 96.400 C 349.030 96.400,360.778 113.806,360.809 117.854 C 360.814 118.484,361.212 119.810,361.695 120.800 C 363.020 123.519,363.051 138.438,361.737 141.200 C 361.266 142.190,360.758 143.710,360.608 144.578 C 360.363 145.993,359.852 147.191,358.125 150.400 C 357.828 150.950,357.144 152.300,356.603 153.400 C 352.789 161.158,339.254 171.795,331.654 173.007 C 330.693 173.161,329.163 173.615,328.254 174.016 C 325.898 175.057,309.555 174.987,307.941 173.929 C 307.378 173.560,306.216 173.132,305.358 172.979 C 303.899 172.717,300.146 171.224,298.800 170.371 C 298.470 170.161,297.390 169.619,296.401 169.167 C 291.834 167.077,282.459 157.852,280.580 153.600 C 280.240 152.830,279.795 151.930,279.592 151.600 C 278.343 149.577,276.400 145.062,276.400 144.186 C 276.400 143.615,275.995 142.215,275.500 141.074 C 274.137 137.932,274.142 123.234,275.507 120.249 C 275.998 119.176,276.402 117.916,276.404 117.449 C 276.406 116.982,276.850 115.700,277.391 114.600 C 277.932 113.500,278.381 112.399,278.387 112.154 C 278.394 111.909,278.735 111.279,279.145 110.754 C 279.555 110.229,280.024 109.350,280.188 108.800 C 280.952 106.240,286.904 99.447,291.652 95.716 C 294.947 93.127,303.302 88.800,305.006 88.800 C 305.581 88.800,306.895 88.454,307.926 88.031 C 308.957 87.609,310.070 87.164,310.400 87.043 C 312.340 86.332,327.825 87.042,329.394 87.914 M16.226 471.158 C 15.782 471.876,17.458 472.000,27.600 472.000 C 33.284 472.000,38.218 471.891,38.565 471.758 C 40.430 471.042,37.657 470.800,27.600 470.800 C 21.466 470.800,16.348 470.961,16.226 471.158 M208.800 478.800 C 208.800 479.900,208.980 480.800,209.200 480.800 C 209.420 480.800,209.600 479.900,209.600 478.800 C 209.600 477.700,209.420 476.800,209.200 476.800 C 208.980 476.800,208.800 477.700,208.800 478.800 " stroke="none" fill="#070707" fill-rule="evenodd"></path><path id="path1" d="M0.000 242.600 L 0.000 485.200 3.000 485.200 C 4.650 485.200,6.000 485.099,6.000 484.977 C 6.000 484.854,5.805 483.493,5.566 481.954 C 4.708 476.425,6.993 472.476,11.430 471.821 C 12.514 471.661,13.961 471.186,14.647 470.765 C 15.854 470.025,17.224 470.000,56.933 470.000 C 97.157 470.000,97.980 469.985,98.388 469.223 C 99.248 467.615,98.734 18.770,97.870 17.451 C 96.201 14.904,97.837 10.984,102.377 6.650 C 103.350 5.721,106.016 5.068,108.400 5.175 C 109.390 5.219,157.810 5.378,216.000 5.528 L 321.800 5.800 323.062 6.700 C 323.756 7.195,324.476 7.607,324.662 7.616 C 327.558 7.755,330.301 14.616,328.791 17.944 C 328.031 19.619,328.000 20.630,328.000 43.625 L 328.000 67.564 327.037 70.217 C 326.507 71.676,325.675 73.295,325.186 73.814 C 324.086 74.986,324.398 76.000,325.859 76.000 C 326.455 76.000,327.496 76.173,328.172 76.385 C 328.847 76.596,330.750 77.120,332.400 77.549 C 345.108 80.851,355.490 87.893,363.435 98.600 C 364.571 100.132,366.000 102.438,366.000 102.740 C 366.000 102.908,366.450 103.655,367.000 104.400 C 367.550 105.145,368.000 106.008,368.000 106.316 C 368.000 106.624,368.353 107.372,368.784 107.978 C 369.216 108.584,369.738 109.831,369.944 110.748 C 370.150 111.666,370.584 112.821,370.909 113.317 C 371.233 113.812,371.630 115.024,371.791 116.009 C 371.951 116.994,372.423 119.240,372.838 121.000 C 373.656 124.461,373.869 134.644,373.207 138.600 C 372.531 142.634,371.324 147.433,370.671 148.680 C 370.302 149.384,370.000 150.265,370.000 150.638 C 370.000 151.340,367.875 155.803,366.208 158.600 C 365.684 159.480,364.949 160.740,364.575 161.400 C 362.629 164.836,351.289 176.400,349.867 176.400 C 349.764 176.400,348.537 177.120,347.140 178.001 C 345.743 178.881,344.150 179.781,343.600 180.001 C 343.050 180.221,342.285 180.580,341.900 180.800 C 340.636 181.522,339.824 181.876,338.000 182.497 C 337.010 182.835,335.660 183.304,335.000 183.539 C 334.340 183.774,332.450 184.265,330.800 184.629 C 329.150 184.993,327.485 185.457,327.100 185.660 C 326.437 186.009,326.400 189.839,326.400 257.511 L 326.400 328.993 324.938 331.116 C 323.230 333.595,320.760 335.200,318.652 335.200 C 316.806 335.200,313.345 333.488,313.002 332.406 C 312.860 331.960,312.308 331.076,311.773 330.441 L 310.802 329.287 310.701 257.744 L 310.600 186.202 309.200 185.536 C 308.430 185.170,306.360 184.510,304.600 184.070 C 300.021 182.925,296.855 181.839,295.200 180.846 C 294.870 180.648,294.150 180.287,293.600 180.045 C 287.767 177.478,280.501 171.545,275.300 165.104 C 273.925 163.401,272.800 161.918,272.800 161.808 C 272.800 161.698,271.990 160.345,271.000 158.800 C 270.010 157.255,269.200 155.748,269.200 155.450 C 269.200 155.152,268.838 154.448,268.396 153.886 C 267.955 153.325,267.474 152.265,267.329 151.532 C 267.184 150.800,266.647 149.300,266.136 148.200 C 265.626 147.100,265.206 145.790,265.204 145.289 C 265.202 144.789,264.806 142.899,264.324 141.089 C 263.159 136.711,263.017 125.193,264.083 121.400 C 264.454 120.080,265.024 117.920,265.349 116.600 C 266.123 113.464,267.076 110.673,268.220 108.200 C 268.728 107.100,269.249 105.930,269.378 105.600 C 269.507 105.270,270.144 104.190,270.793 103.200 C 271.442 102.210,272.330 100.770,272.767 100.000 C 274.766 96.478,285.865 85.200,287.333 85.200 C 287.436 85.200,288.663 84.480,290.060 83.599 C 291.457 82.719,293.050 81.819,293.600 81.599 C 294.150 81.380,294.870 81.019,295.200 80.797 C 295.951 80.293,296.911 79.886,299.200 79.104 C 300.190 78.766,301.540 78.305,302.200 78.080 C 302.860 77.854,304.750 77.369,306.400 77.000 C 312.951 75.537,313.286 75.337,311.600 73.893 C 311.160 73.516,310.800 72.845,310.800 72.402 C 310.800 71.960,310.440 70.925,310.000 70.104 C 309.229 68.665,309.200 67.848,309.200 47.186 C 309.200 31.055,309.081 25.641,308.720 25.280 C 308.352 24.912,296.497 24.800,257.795 24.800 L 207.350 24.800 206.193 26.008 C 205.556 26.672,204.847 27.707,204.618 28.308 C 204.388 28.909,199.970 33.516,194.800 38.548 C 189.630 43.579,177.305 55.639,167.411 65.348 C 157.517 75.056,145.464 86.870,140.626 91.600 C 135.789 96.330,128.629 103.356,124.715 107.212 L 117.600 114.225 117.600 291.480 C 117.600 388.970,117.709 469.019,117.843 469.367 C 118.062 469.939,122.166 470.000,160.193 470.000 C 209.097 470.000,205.235 469.640,208.977 474.543 C 210.749 476.864,211.074 481.436,209.600 483.309 C 209.160 483.869,208.800 484.523,208.800 484.763 C 208.800 485.078,235.549 485.200,304.400 485.200 L 400.000 485.200 400.000 242.600 L 400.000 0.000 200.000 0.000 L 0.000 0.000 0.000 242.600 M117.843 25.433 C 117.526 26.259,117.526 84.141,117.843 84.967 C 118.285 86.119,118.972 85.641,123.607 80.961 C 126.133 78.409,129.460 75.228,131.000 73.891 C 136.409 69.194,180.085 25.661,179.819 25.231 C 179.333 24.444,118.146 24.644,117.843 25.433 M310.352 88.360 C 309.336 88.758,307.614 89.201,306.526 89.346 C 305.395 89.496,303.055 90.376,301.058 91.404 C 299.138 92.392,297.384 93.200,297.161 93.200 C 294.599 93.200,282.798 105.109,280.909 109.600 C 280.585 110.370,280.084 111.270,279.795 111.600 C 276.643 115.200,274.115 131.987,275.818 138.013 C 276.158 139.216,276.664 141.280,276.943 142.600 C 277.221 143.920,278.203 146.536,279.125 148.414 C 280.046 150.292,280.800 151.974,280.800 152.152 C 280.800 152.330,281.567 153.493,282.504 154.738 C 283.441 155.982,284.509 157.450,284.877 158.000 C 286.069 159.780,288.937 162.600,291.611 164.624 C 295.625 167.661,296.535 168.263,297.608 168.591 C 298.153 168.758,298.915 169.171,299.299 169.508 C 302.091 171.960,314.773 174.667,317.129 173.315 C 318.256 172.668,318.444 172.668,320.497 173.315 C 323.197 174.166,324.801 174.180,326.713 173.370 C 327.531 173.023,329.238 172.568,330.506 172.360 C 331.775 172.151,333.395 171.626,334.106 171.192 C 334.818 170.758,335.693 170.402,336.051 170.401 C 336.409 170.401,336.918 170.139,337.183 169.820 C 337.448 169.502,338.325 169.025,339.132 168.761 C 343.621 167.294,356.400 154.634,356.400 151.655 C 356.400 151.323,356.733 150.680,357.140 150.226 C 360.879 146.057,363.198 128.314,360.842 121.910 C 360.379 120.650,359.994 119.120,359.987 118.510 C 359.981 117.899,359.532 116.500,358.991 115.400 C 358.450 114.300,358.006 113.197,358.004 112.949 C 358.002 112.701,357.739 112.282,357.420 112.017 C 357.102 111.752,356.625 110.875,356.361 110.068 C 354.957 105.772,342.644 93.208,339.829 93.199 C 339.593 93.198,338.770 92.803,338.000 92.321 C 331.766 88.422,315.977 86.160,310.352 88.360 " stroke="none" fill="#84bcf4" fill-rule="evenodd"></path><path id="path2" d="M106.400 5.181 C 106.070 5.405,105.320 5.591,104.734 5.594 C 100.867 5.616,95.824 14.328,97.870 17.451 C 98.734 18.770,99.248 467.615,98.388 469.223 C 97.980 469.985,97.157 470.000,56.933 470.000 C 17.224 470.000,15.854 470.025,14.647 470.765 C 13.961 471.186,12.514 471.661,11.430 471.821 C 6.993 472.476,4.708 476.425,5.566 481.954 C 5.805 483.493,6.000 484.854,6.000 484.977 C 6.000 485.099,51.630 485.200,107.400 485.200 C 180.444 485.200,208.800 485.078,208.800 484.763 C 208.800 484.523,209.160 483.869,209.600 483.309 C 211.074 481.436,210.749 476.864,208.977 474.543 C 205.235 469.640,209.097 470.000,160.193 470.000 C 122.166 470.000,118.062 469.939,117.843 469.367 C 117.709 469.019,117.600 388.970,117.600 291.480 L 117.600 114.225 124.715 107.212 C 128.629 103.356,135.789 96.330,140.626 91.600 C 145.464 86.870,157.517 75.056,167.411 65.348 C 177.305 55.639,189.630 43.579,194.800 38.548 C 199.970 33.516,204.388 28.909,204.618 28.308 C 204.847 27.707,205.556 26.672,206.193 26.008 L 207.350 24.800 257.795 24.800 C 296.497 24.800,308.352 24.912,308.720 25.280 C 309.081 25.641,309.200 31.055,309.200 47.186 C 309.200 67.848,309.229 68.665,310.000 70.104 C 310.440 70.925,310.800 71.960,310.800 72.402 C 310.800 72.845,311.160 73.516,311.600 73.893 C 313.286 75.337,312.951 75.537,306.400 77.000 C 304.750 77.369,302.860 77.854,302.200 78.080 C 301.540 78.305,300.190 78.766,299.200 79.104 C 296.911 79.886,295.951 80.293,295.200 80.797 C 294.870 81.019,294.150 81.380,293.600 81.599 C 293.050 81.819,291.457 82.719,290.060 83.599 C 288.663 84.480,287.436 85.200,287.333 85.200 C 285.865 85.200,274.766 96.478,272.767 100.000 C 272.330 100.770,271.442 102.210,270.793 103.200 C 270.144 104.190,269.507 105.270,269.378 105.600 C 269.249 105.930,268.728 107.100,268.220 108.200 C 267.076 110.673,266.123 113.464,265.349 116.600 C 265.024 117.920,264.454 120.080,264.083 121.400 C 263.017 125.193,263.159 136.711,264.324 141.089 C 264.806 142.899,265.202 144.789,265.204 145.289 C 265.206 145.790,265.626 147.100,266.136 148.200 C 266.647 149.300,267.184 150.800,267.329 151.532 C 267.474 152.265,267.955 153.325,268.396 153.886 C 268.838 154.448,269.200 155.152,269.200 155.450 C 269.200 155.748,270.010 157.255,271.000 158.800 C 271.990 160.345,272.800 161.698,272.800 161.808 C 272.800 163.584,283.738 174.256,288.600 177.222 C 291.397 178.929,292.574 179.593,293.600 180.045 C 294.150 180.287,294.870 180.648,295.200 180.846 C 296.855 181.839,300.021 182.925,304.600 184.070 C 306.360 184.510,308.430 185.170,309.200 185.536 L 310.600 186.202 310.701 257.744 L 310.802 329.287 311.773 330.441 C 312.308 331.076,312.860 331.960,313.002 332.406 C 313.345 333.488,316.806 335.200,318.652 335.200 C 320.760 335.200,323.230 333.595,324.938 331.116 L 326.400 328.993 326.400 257.511 C 326.400 189.839,326.437 186.009,327.100 185.660 C 327.485 185.457,329.150 184.993,330.800 184.629 C 332.450 184.265,334.340 183.774,335.000 183.539 C 335.660 183.304,337.010 182.835,338.000 182.497 C 339.978 181.823,340.604 181.554,341.800 180.863 C 342.240 180.608,343.050 180.221,343.600 180.001 C 344.150 179.781,345.743 178.881,347.140 178.001 C 348.537 177.120,349.764 176.400,349.867 176.400 C 351.289 176.400,362.629 164.836,364.575 161.400 C 364.949 160.740,365.684 159.480,366.208 158.600 C 367.875 155.803,370.000 151.340,370.000 150.638 C 370.000 150.265,370.302 149.384,370.671 148.680 C 371.324 147.433,372.531 142.634,373.207 138.600 C 373.869 134.644,373.656 124.461,372.838 121.000 C 372.423 119.240,371.951 116.994,371.791 116.009 C 371.630 115.024,371.233 113.812,370.909 113.317 C 370.584 112.821,370.150 111.666,369.944 110.748 C 369.738 109.831,369.216 108.584,368.784 107.978 C 368.353 107.372,368.000 106.624,368.000 106.316 C 368.000 106.008,367.550 105.145,367.000 104.400 C 366.450 103.655,366.000 102.908,366.000 102.740 C 366.000 102.438,364.571 100.132,363.435 98.600 C 355.490 87.893,345.108 80.851,332.400 77.549 C 330.750 77.120,328.847 76.596,328.172 76.385 C 327.496 76.173,326.455 76.000,325.859 76.000 C 324.398 76.000,324.086 74.986,325.186 73.814 C 325.675 73.295,326.507 71.676,327.037 70.217 L 328.000 67.564 328.000 43.625 C 328.000 20.630,328.031 19.619,328.791 17.944 C 330.301 14.616,327.558 7.755,324.662 7.616 C 324.476 7.607,323.756 7.195,323.062 6.700 L 321.800 5.800 216.200 5.553 C 158.120 5.417,109.790 5.186,108.800 5.040 C 107.769 4.888,106.744 4.949,106.400 5.181 M179.819 25.231 C 180.085 25.661,136.409 69.194,131.000 73.891 C 129.460 75.228,126.133 78.409,123.607 80.961 C 118.972 85.641,118.285 86.119,117.843 84.967 C 117.526 84.141,117.526 26.259,117.843 25.433 C 118.146 24.644,179.333 24.444,179.819 25.231 M323.860 76.451 C 324.642 77.140,325.596 77.366,330.349 77.987 C 331.971 78.199,333.727 78.653,334.251 78.997 C 334.776 79.340,336.118 79.795,337.234 80.006 C 338.350 80.218,339.723 80.753,340.285 81.196 C 340.848 81.638,341.619 82.000,342.000 82.000 C 342.381 82.000,343.121 82.335,343.646 82.745 C 344.171 83.155,344.981 83.609,345.447 83.755 C 345.913 83.901,346.616 84.376,347.009 84.810 C 347.402 85.245,347.941 85.600,348.207 85.600 C 349.360 85.600,356.534 91.886,359.876 95.825 C 362.876 99.360,363.600 100.309,363.600 100.704 C 363.600 100.917,363.994 101.593,364.476 102.205 C 365.652 103.700,369.200 110.731,369.200 111.566 C 369.200 111.931,369.567 112.944,370.017 113.815 C 370.466 114.687,371.016 116.840,371.238 118.600 C 371.461 120.360,371.917 122.749,372.252 123.908 C 373.031 126.604,372.809 135.379,371.861 139.400 C 371.497 140.940,371.200 142.832,371.200 143.606 C 371.200 144.379,370.853 145.660,370.428 146.452 C 370.004 147.244,369.528 148.591,369.370 149.446 C 369.059 151.135,365.855 157.641,364.464 159.410 C 363.989 160.014,363.600 160.727,363.600 160.996 C 363.600 161.264,363.195 161.953,362.700 162.526 C 362.205 163.100,361.276 164.205,360.636 164.981 C 358.849 167.147,355.636 170.404,353.200 172.519 C 351.990 173.569,350.715 174.692,350.366 175.014 C 350.018 175.337,349.548 175.600,349.322 175.600 C 349.096 175.600,348.212 176.078,347.356 176.663 C 344.981 178.285,338.303 181.593,337.394 181.597 C 336.951 181.598,335.904 181.966,335.069 182.414 C 334.223 182.868,332.098 183.405,330.275 183.626 C 327.766 183.931,326.836 184.219,326.300 184.856 C 325.639 185.642,325.600 189.681,325.600 257.281 L 325.600 328.872 323.778 331.005 C 320.483 334.862,315.325 334.925,313.365 331.131 C 312.987 330.399,312.435 329.620,312.139 329.400 C 311.693 329.068,311.584 316.811,311.501 257.311 L 311.400 185.622 310.550 184.773 C 309.928 184.150,308.913 183.832,306.750 183.582 C 305.128 183.394,303.087 182.872,302.215 182.420 C 301.344 181.969,300.243 181.600,299.768 181.600 C 298.776 181.600,290.000 177.276,290.000 176.787 C 290.000 176.608,289.415 176.267,288.700 176.029 C 285.967 175.118,274.739 163.976,273.370 160.814 C 273.039 160.052,272.621 159.332,272.441 159.214 C 271.782 158.784,268.037 151.204,267.764 149.746 C 267.609 148.921,267.168 147.695,266.785 147.023 C 266.401 146.350,265.965 144.484,265.817 142.875 C 265.668 141.266,265.277 139.196,264.948 138.275 C 264.132 135.995,263.791 128.694,264.392 126.400 C 264.652 125.410,265.168 122.599,265.540 120.152 C 265.911 117.706,266.431 115.444,266.696 115.125 C 266.961 114.806,267.385 113.568,267.639 112.373 C 267.893 111.178,268.438 109.722,268.850 109.138 C 269.263 108.554,269.600 107.844,269.600 107.560 C 269.600 107.276,270.009 106.403,270.510 105.622 C 271.831 103.557,272.294 102.780,273.212 101.083 C 273.664 100.249,274.300 99.259,274.626 98.883 C 274.952 98.508,276.300 96.940,277.622 95.400 C 278.945 93.860,281.415 91.380,283.113 89.890 C 284.811 88.399,286.485 86.914,286.834 86.590 C 287.182 86.265,287.652 86.000,287.878 86.000 C 288.104 86.000,288.988 85.522,289.844 84.937 C 292.219 83.315,298.897 80.007,299.806 80.003 C 300.249 80.002,301.262 79.651,302.057 79.225 C 302.852 78.799,304.649 78.335,306.051 78.192 C 309.485 77.845,312.521 76.972,313.300 76.109 C 314.176 75.139,322.682 75.414,323.860 76.451 M310.400 87.043 C 310.070 87.164,308.957 87.609,307.926 88.031 C 306.895 88.454,305.581 88.800,305.006 88.800 C 303.302 88.800,294.947 93.127,291.652 95.716 C 286.904 99.447,280.952 106.240,280.188 108.800 C 280.024 109.350,279.555 110.229,279.145 110.754 C 278.735 111.279,278.394 111.909,278.387 112.154 C 278.381 112.399,277.932 113.500,277.391 114.600 C 276.850 115.700,276.406 116.982,276.404 117.449 C 276.402 117.916,275.998 119.176,275.507 120.249 C 274.142 123.234,274.137 137.932,275.500 141.074 C 275.995 142.215,276.400 143.615,276.400 144.186 C 276.400 145.062,278.343 149.577,279.592 151.600 C 279.795 151.930,280.240 152.830,280.580 153.600 C 282.459 157.852,291.834 167.077,296.401 169.167 C 297.390 169.619,298.470 170.161,298.800 170.371 C 300.146 171.224,303.899 172.717,305.358 172.979 C 306.216 173.132,307.378 173.560,307.941 173.929 C 309.555 174.987,325.898 175.057,328.254 174.016 C 329.163 173.615,330.693 173.161,331.654 173.007 C 339.254 171.795,352.789 161.158,356.603 153.400 C 357.144 152.300,357.828 150.950,358.125 150.400 C 359.852 147.191,360.363 145.993,360.608 144.578 C 360.758 143.710,361.266 142.190,361.737 141.200 C 363.051 138.438,363.020 123.519,361.695 120.800 C 361.212 119.810,360.814 118.484,360.809 117.854 C 360.778 113.806,349.030 96.400,346.329 96.400 C 346.165 96.400,345.709 96.078,345.316 95.685 C 344.091 94.461,341.845 92.929,340.800 92.605 C 340.250 92.435,339.322 91.959,338.738 91.548 C 338.154 91.136,337.524 90.794,337.338 90.787 C 337.152 90.781,336.100 90.332,335.000 89.791 C 333.900 89.250,332.547 88.806,331.994 88.804 C 331.441 88.802,330.271 88.401,329.394 87.914 C 327.825 87.042,312.340 86.332,310.400 87.043 M328.200 88.779 C 333.361 90.134,336.067 91.112,338.000 92.321 C 338.770 92.803,339.593 93.198,339.829 93.199 C 342.644 93.208,354.957 105.772,356.361 110.068 C 356.625 110.875,357.102 111.752,357.420 112.017 C 357.739 112.282,358.002 112.701,358.004 112.949 C 358.006 113.197,358.450 114.300,358.991 115.400 C 359.532 116.500,359.981 117.899,359.987 118.510 C 359.994 119.120,360.379 120.650,360.842 121.910 C 363.198 128.314,360.879 146.057,357.140 150.226 C 356.733 150.680,356.400 151.323,356.400 151.655 C 356.400 154.634,343.621 167.294,339.132 168.761 C 338.325 169.025,337.448 169.502,337.183 169.820 C 336.918 170.139,336.409 170.401,336.051 170.401 C 335.693 170.402,334.818 170.758,334.106 171.192 C 333.395 171.626,331.775 172.151,330.506 172.360 C 329.238 172.568,327.531 173.023,326.713 173.370 C 324.801 174.180,323.197 174.166,320.497 173.315 C 318.444 172.668,318.256 172.668,317.129 173.315 C 314.773 174.667,302.091 171.960,299.299 169.508 C 298.915 169.171,298.153 168.758,297.608 168.591 C 294.948 167.777,286.994 161.161,284.877 158.000 C 284.509 157.450,283.441 155.982,282.504 154.738 C 281.567 153.493,280.800 152.330,280.800 152.152 C 280.800 151.974,280.046 150.292,279.125 148.414 C 278.203 146.536,277.221 143.920,276.943 142.600 C 276.664 141.280,276.158 139.216,275.818 138.013 C 274.115 131.987,276.643 115.200,279.795 111.600 C 280.084 111.270,280.585 110.370,280.909 109.600 C 282.798 105.109,294.599 93.200,297.161 93.200 C 297.384 93.200,299.138 92.392,301.058 91.404 C 303.055 90.376,305.395 89.496,306.526 89.346 C 307.614 89.201,309.336 88.758,310.352 88.360 C 313.562 87.105,322.636 87.318,328.200 88.779 M38.974 471.158 C 39.418 471.876,37.742 472.000,27.600 472.000 C 21.916 472.000,16.982 471.891,16.635 471.758 C 14.770 471.042,17.543 470.800,27.600 470.800 C 33.734 470.800,38.852 470.961,38.974 471.158 M209.600 478.800 C 209.600 479.900,209.420 480.800,209.200 480.800 C 208.980 480.800,208.800 479.900,208.800 478.800 C 208.800 477.700,208.980 476.800,209.200 476.800 C 209.420 476.800,209.600 477.700,209.600 478.800 " stroke="none" fill="#844404" fill-rule="evenodd"></path></g></svg>