<svg id="svg" version="1.1" xmlns="http://www.w3.org/2000/svg" xmlns:xlink="http://www.w3.org/1999/xlink" width="400" height="485.3080568720379" viewBox="0, 0, 400,485.3080568720379"><g id="svgg"><path id="path0" d="M313.600 72.111 C 313.600 72.769,309.950 73.956,307.130 74.215 C 305.389 74.375,303.358 74.873,302.125 75.442 C 300.983 75.969,299.713 76.400,299.301 76.400 C 298.519 76.400,291.678 79.731,289.980 80.939 C 289.441 81.322,288.186 82.158,287.190 82.796 C 283.574 85.114,273.600 95.321,273.600 96.705 C 273.600 96.918,273.206 97.593,272.724 98.205 C 271.369 99.929,268.059 106.674,267.760 108.323 C 267.612 109.135,267.177 110.430,266.793 111.200 C 266.409 111.970,265.883 114.220,265.624 116.200 C 265.365 118.180,264.870 120.783,264.524 121.984 C 263.766 124.613,263.992 131.678,264.914 134.209 C 265.237 135.095,265.628 137.165,265.784 138.809 C 265.939 140.454,266.389 142.437,266.783 143.216 C 267.177 143.995,267.631 145.229,267.791 145.958 C 268.052 147.148,269.489 150.421,270.443 152.000 C 270.643 152.330,271.022 153.050,271.287 153.600 C 271.552 154.150,272.181 155.109,272.684 155.731 C 273.188 156.353,273.600 157.047,273.600 157.273 C 273.600 157.679,274.324 158.649,276.997 161.822 C 280.283 165.722,287.260 172.000,288.309 172.000 C 288.520 172.000,289.193 172.394,289.805 172.876 C 291.529 174.231,298.274 177.541,299.923 177.840 C 300.735 177.988,302.082 178.451,302.917 178.871 C 303.751 179.290,305.602 179.742,307.031 179.876 C 311.436 180.287,311.600 180.665,311.600 190.400 C 311.600 199.787,311.975 198.961,305.594 203.641 C 303.375 205.269,300.384 207.545,298.947 208.700 C 297.510 209.855,296.192 210.800,296.018 210.800 C 295.844 210.800,294.607 211.655,293.269 212.700 C 291.931 213.745,290.186 215.050,289.391 215.600 C 288.596 216.150,286.793 217.500,285.384 218.600 C 283.975 219.700,282.142 221.096,281.311 221.702 C 279.359 223.126,278.203 224.009,276.990 225.000 C 276.452 225.440,274.730 226.700,273.164 227.800 C 271.598 228.900,269.171 230.700,267.770 231.800 C 266.368 232.900,263.499 235.060,261.393 236.600 C 259.286 238.140,256.469 240.255,255.131 241.300 C 253.793 242.345,252.550 243.200,252.370 243.200 C 251.821 243.200,247.164 247.227,246.893 247.937 C 246.753 248.302,246.225 249.210,245.719 249.956 C 242.371 254.894,248.181 261.039,253.515 258.200 C 254.548 257.650,255.682 257.200,256.035 257.200 C 256.387 257.200,257.002 256.840,257.400 256.400 C 257.798 255.960,258.270 255.600,258.449 255.600 C 258.628 255.600,260.985 253.933,263.687 251.895 C 268.765 248.066,270.364 246.916,271.665 246.157 C 272.083 245.913,272.734 245.414,273.112 245.048 C 273.799 244.383,275.504 243.090,278.187 241.200 C 278.967 240.650,280.280 239.604,281.103 238.876 C 281.926 238.148,283.140 237.270,283.800 236.925 C 284.460 236.580,285.900 235.549,287.000 234.634 C 288.811 233.129,290.161 232.135,291.939 231.000 C 292.283 230.780,293.596 229.790,294.856 228.800 C 296.117 227.810,297.834 226.504,298.674 225.898 C 299.513 225.291,300.560 224.514,301.000 224.169 C 305.237 220.852,309.850 217.616,310.186 217.727 C 311.571 218.183,311.588 218.859,311.594 272.438 C 311.600 324.564,311.608 325.083,312.400 325.800 C 312.840 326.198,313.200 326.735,313.200 326.992 C 313.200 327.786,314.934 329.142,316.783 329.794 C 319.313 330.687,320.893 330.094,323.499 327.272 L 325.599 325.000 325.599 253.674 C 325.600 200.706,325.718 182.123,326.060 181.474 C 326.722 180.217,326.984 180.114,330.356 179.799 C 332.030 179.642,334.030 179.195,334.800 178.806 C 335.570 178.416,336.795 177.969,337.522 177.812 C 339.105 177.470,345.825 174.110,347.395 172.876 C 348.007 172.394,348.682 172.000,348.895 172.000 C 350.216 172.000,360.354 162.147,362.669 158.613 C 363.250 157.726,364.047 156.526,364.440 155.946 C 366.115 153.479,369.093 147.229,369.345 145.652 C 369.496 144.713,369.923 143.479,370.295 142.912 C 370.667 142.344,371.100 140.782,371.258 139.440 C 371.416 138.098,371.763 136.010,372.029 134.800 C 372.828 131.166,372.951 122.268,372.234 120.070 C 371.898 119.041,371.508 116.940,371.368 115.400 C 371.220 113.785,370.707 111.722,370.156 110.525 C 369.630 109.383,369.200 108.165,369.200 107.817 C 369.200 107.260,367.980 104.529,366.691 102.200 C 366.448 101.760,365.933 100.756,365.548 99.969 C 365.163 99.182,364.567 98.305,364.224 98.020 C 363.881 97.735,363.600 97.263,363.600 96.972 C 363.600 95.193,350.407 82.000,348.628 82.000 C 348.337 82.000,347.853 81.705,347.555 81.345 C 347.256 80.985,346.289 80.358,345.406 79.950 C 344.523 79.543,343.530 79.043,343.200 78.838 C 341.484 77.773,338.414 76.480,337.000 76.227 C 336.120 76.070,334.964 75.660,334.432 75.317 C 333.900 74.973,332.280 74.539,330.832 74.351 C 326.176 73.747,324.419 73.341,323.702 72.704 C 322.946 72.032,313.600 71.484,313.600 72.111 M328.875 83.904 C 329.839 84.330,331.320 84.809,332.168 84.968 C 333.015 85.127,334.356 85.604,335.148 86.028 C 335.940 86.453,336.781 86.800,337.016 86.800 C 337.252 86.800,338.055 87.250,338.800 87.800 C 339.545 88.350,340.437 88.800,340.780 88.800 C 343.178 88.800,356.800 102.401,356.800 104.795 C 356.800 105.152,357.250 106.055,357.800 106.800 C 358.350 107.545,358.800 108.381,358.800 108.657 C 358.800 108.932,359.250 110.004,359.800 111.038 C 360.350 112.073,360.800 113.442,360.800 114.082 C 360.800 114.721,361.205 116.089,361.699 117.122 C 363.014 119.869,363.049 134.351,361.746 137.214 C 361.293 138.211,360.797 139.689,360.645 140.499 C 360.347 142.089,358.591 146.226,357.800 147.200 C 357.532 147.530,357.109 148.408,356.859 149.152 C 354.713 155.544,337.657 169.200,331.820 169.200 C 331.231 169.200,329.823 169.598,328.693 170.084 C 327.294 170.686,325.865 170.962,324.219 170.948 C 322.889 170.937,320.630 170.918,319.200 170.907 C 317.770 170.895,315.003 170.873,313.051 170.858 C 310.404 170.837,309.133 170.639,308.051 170.079 C 307.253 169.666,305.910 169.218,305.067 169.084 C 303.654 168.859,300.629 167.664,299.200 166.767 C 298.870 166.559,297.824 166.034,296.875 165.598 C 291.312 163.046,281.507 153.223,280.039 148.732 C 279.775 147.925,279.298 147.048,278.980 146.783 C 278.661 146.518,278.394 146.009,278.388 145.651 C 278.381 145.293,277.932 144.280,277.390 143.400 C 276.848 142.520,276.403 141.203,276.402 140.474 C 276.401 139.745,275.995 138.215,275.500 137.074 C 274.293 134.292,274.147 119.113,275.306 116.941 C 275.676 116.248,276.172 114.808,276.408 113.741 C 276.814 111.909,277.993 108.929,278.838 107.600 C 279.048 107.270,279.599 106.190,280.062 105.200 C 282.395 100.213,292.495 90.068,296.448 88.741 C 297.192 88.491,298.070 88.073,298.400 87.812 C 299.663 86.813,303.721 85.108,305.324 84.904 C 306.246 84.786,307.540 84.408,308.200 84.063 C 311.046 82.575,325.619 82.463,328.875 83.904 M16.400 467.600 C 16.400 467.857,20.400 468.000,27.600 468.000 C 34.800 468.000,38.800 467.857,38.800 467.600 C 38.800 467.343,34.800 467.200,27.600 467.200 C 20.400 467.200,16.400 467.343,16.400 467.600 M208.800 475.000 C 208.800 475.990,208.980 476.800,209.200 476.800 C 209.420 476.800,209.600 475.990,209.600 475.000 C 209.600 474.010,209.420 473.200,209.200 473.200 C 208.980 473.200,208.800 474.010,208.800 475.000 M184.480 484.080 C 183.464 485.096,184.274 485.200,193.243 485.200 C 201.507 485.200,202.460 485.133,202.243 484.567 C 202.109 484.219,202.000 483.859,202.000 483.767 C 202.000 483.323,184.933 483.627,184.480 484.080 " stroke="none" fill="#070707" fill-rule="evenodd"></path><path id="path1" d="M0.000 242.600 L 0.000 485.200 5.433 485.200 C 11.127 485.200,11.974 484.867,9.376 483.648 C 2.856 480.590,4.402 469.426,11.545 467.982 C 12.785 467.732,14.199 467.273,14.686 466.963 C 15.433 466.488,21.996 466.400,56.557 466.400 C 93.322 466.400,97.608 466.335,98.173 465.770 C 99.256 464.686,98.921 15.622,97.835 13.520 C 96.008 9.982,100.222 2.939,104.833 1.825 C 105.975 1.549,106.640 1.154,106.726 0.700 C 106.852 0.036,104.098 -0.000,53.429 -0.000 L 0.000 0.000 0.000 242.600 M109.600 0.581 C 109.600 1.970,111.533 1.996,217.222 1.998 L 321.845 2.000 323.200 3.000 C 323.945 3.550,324.755 4.000,324.999 4.000 C 325.858 4.000,327.897 6.625,328.829 8.930 L 329.772 11.260 328.996 13.130 C 328.264 14.892,328.207 16.436,328.005 39.800 C 327.860 56.496,327.645 65.000,327.345 65.823 C 326.629 67.790,325.524 69.765,324.874 70.242 C 324.016 70.871,324.562 71.934,325.883 72.208 C 326.497 72.335,327.630 72.594,328.400 72.783 C 329.170 72.973,330.970 73.402,332.400 73.737 C 347.641 77.312,361.343 88.651,368.540 103.642 C 369.343 105.315,370.001 106.935,370.002 107.242 C 370.004 107.549,370.300 108.340,370.660 109.000 C 371.020 109.660,371.544 111.280,371.824 112.600 C 372.104 113.920,372.634 116.350,373.003 118.000 C 373.758 121.384,373.691 134.934,372.910 136.800 C 372.679 137.350,372.274 138.970,372.009 140.400 C 371.745 141.830,371.205 143.720,370.809 144.600 C 370.414 145.480,369.957 146.830,369.793 147.600 C 369.630 148.370,369.159 149.429,368.748 149.954 C 368.337 150.479,368.000 151.189,368.000 151.532 C 368.000 151.876,367.577 152.797,367.061 153.578 C 365.947 155.264,363.370 159.139,362.087 161.057 C 360.208 163.867,350.541 172.800,349.379 172.800 C 349.263 172.800,348.680 173.132,348.084 173.537 C 345.057 175.597,343.702 176.373,342.716 176.614 C 342.120 176.759,341.427 177.126,341.176 177.429 C 340.925 177.731,340.063 178.094,339.260 178.234 C 338.457 178.374,337.206 178.828,336.480 179.243 C 335.753 179.658,334.403 180.107,333.480 180.242 C 331.172 180.578,327.506 181.612,326.900 182.097 C 326.503 182.415,326.400 197.278,326.400 253.997 L 326.400 325.495 324.761 327.554 C 320.919 332.379,315.000 332.678,312.804 328.158 C 312.472 327.475,311.885 326.607,311.500 326.229 C 310.840 325.583,310.800 322.502,310.794 272.871 C 310.790 240.603,310.642 219.969,310.411 219.604 C 309.965 218.899,308.740 219.508,305.400 222.094 C 304.300 222.946,302.252 224.533,300.849 225.621 C 299.446 226.710,298.156 227.600,297.983 227.600 C 297.810 227.600,296.037 228.905,294.043 230.500 C 292.049 232.095,289.139 234.300,287.576 235.400 C 285.138 237.116,282.103 239.380,279.000 241.799 C 278.560 242.142,276.850 243.407,275.200 244.610 C 271.918 247.002,268.424 249.614,264.777 252.400 C 263.482 253.390,261.774 254.650,260.983 255.200 C 260.192 255.750,259.036 256.605,258.415 257.100 C 257.793 257.595,256.840 258.000,256.296 258.000 C 255.753 258.000,254.836 258.371,254.260 258.824 C 248.206 263.586,240.363 254.116,245.512 248.262 C 246.901 246.683,251.378 242.400,251.640 242.400 C 251.788 242.400,254.495 240.465,257.655 238.099 C 260.815 235.734,263.778 233.529,264.239 233.199 C 265.155 232.545,268.875 229.806,272.508 227.112 C 275.022 225.247,279.400 221.892,280.474 221.008 C 280.844 220.703,281.654 220.131,282.274 219.737 C 282.893 219.343,284.784 217.936,286.476 216.610 C 288.168 215.285,290.148 213.787,290.876 213.282 C 291.604 212.777,293.821 211.157,295.803 209.682 C 297.785 208.207,299.790 206.730,300.258 206.400 C 302.589 204.758,308.279 200.466,309.461 199.459 L 310.800 198.317 310.800 190.587 C 310.800 181.078,311.406 182.028,304.200 180.251 C 299.760 179.156,294.906 177.138,290.600 174.599 C 289.720 174.080,288.460 173.349,287.800 172.976 C 287.140 172.602,286.330 172.058,286.000 171.766 C 285.670 171.475,284.057 170.097,282.416 168.703 C 280.774 167.309,278.291 164.826,276.897 163.184 C 275.503 161.543,274.125 159.930,273.834 159.600 C 273.542 159.270,272.998 158.460,272.624 157.800 C 272.251 157.140,271.520 155.880,271.001 155.000 C 269.293 152.103,267.200 147.804,267.200 147.191 C 267.200 146.859,266.853 145.940,266.428 145.148 C 266.004 144.356,265.540 143.009,265.397 142.154 C 265.254 141.299,264.752 139.070,264.283 137.200 C 263.271 133.172,263.071 120.018,263.988 117.800 C 264.260 117.140,264.805 115.160,265.197 113.400 C 266.080 109.441,267.432 105.457,268.387 104.000 C 268.604 103.670,269.057 102.770,269.394 102.000 C 271.813 96.479,279.885 86.628,284.543 83.513 C 286.461 82.230,290.336 79.653,292.022 78.539 C 292.803 78.023,293.724 77.600,294.068 77.600 C 294.411 77.600,295.121 77.263,295.646 76.852 C 296.171 76.441,297.230 75.969,298.000 75.803 C 298.770 75.638,300.030 75.186,300.800 74.799 C 301.570 74.412,303.010 73.966,304.000 73.807 C 310.386 72.784,312.929 71.615,311.675 70.280 C 311.194 69.767,310.800 69.038,310.800 68.658 C 310.800 68.279,310.440 67.262,310.000 66.400 C 309.230 64.890,309.200 64.042,309.200 43.445 C 309.200 24.535,309.127 21.984,308.571 21.429 C 308.007 20.864,302.847 20.800,257.758 20.800 L 207.573 20.800 206.187 22.187 C 205.424 22.949,204.800 23.885,204.800 24.266 C 204.800 25.017,188.144 42.023,186.237 43.219 C 185.597 43.620,177.303 51.655,167.806 61.074 C 158.309 70.493,145.908 82.700,140.249 88.200 C 134.590 93.700,127.179 100.965,123.780 104.344 L 117.600 110.488 117.600 287.995 C 117.600 446.525,117.665 465.556,118.210 466.008 C 118.696 466.411,127.210 466.473,160.310 466.310 C 208.052 466.076,204.298 465.805,208.100 469.757 L 210.400 472.147 210.400 475.330 L 210.400 478.514 208.509 480.757 C 206.255 483.430,206.058 483.586,204.914 483.594 C 204.427 483.597,203.835 483.960,203.600 484.400 C 203.172 485.199,203.296 485.200,301.586 485.200 L 400.000 485.200 400.000 242.600 L 400.000 0.000 254.800 0.000 C 128.088 0.000,109.600 0.074,109.600 0.581 M118.300 21.232 C 117.593 21.644,117.153 79.569,117.843 81.367 C 118.286 82.523,118.924 82.045,125.398 75.700 C 128.934 72.235,139.895 61.480,149.756 51.800 C 183.636 18.541,180.725 21.564,179.367 21.043 C 178.230 20.607,119.059 20.790,118.300 21.232 M312.800 83.878 C 312.250 83.970,310.764 84.396,309.498 84.823 C 308.233 85.250,306.769 85.600,306.247 85.600 C 305.368 85.600,301.388 87.148,300.000 88.029 C 299.670 88.239,298.651 88.754,297.737 89.175 C 292.260 91.694,280.800 103.088,280.800 106.015 C 280.800 106.413,280.350 107.273,279.800 107.927 C 279.250 108.581,278.800 109.413,278.800 109.778 C 278.800 110.142,278.528 110.966,278.195 111.610 C 275.557 116.712,274.266 131.487,276.100 135.600 C 276.443 136.370,276.852 137.900,277.009 139.000 C 277.166 140.100,277.633 141.561,278.047 142.247 C 278.461 142.933,278.800 143.764,278.800 144.093 C 278.800 144.423,279.131 145.121,279.536 145.646 C 279.941 146.171,280.469 147.179,280.711 147.887 C 282.200 152.257,294.638 164.800,297.482 164.800 C 297.790 164.800,298.705 165.250,299.514 165.800 C 300.323 166.350,301.223 166.800,301.513 166.800 C 301.803 166.800,302.616 167.099,303.320 167.464 C 306.710 169.223,314.883 170.665,316.546 169.798 C 317.996 169.041,319.168 169.044,321.525 169.808 C 323.213 170.356,323.620 170.353,325.600 169.785 C 326.810 169.438,328.970 168.928,330.400 168.653 C 331.830 168.377,333.450 167.867,334.000 167.518 C 334.550 167.169,335.450 166.750,336.000 166.587 C 336.550 166.423,337.429 165.955,337.954 165.545 C 338.479 165.135,339.199 164.799,339.554 164.799 C 342.447 164.793,354.212 153.020,356.288 148.052 C 356.618 147.261,357.229 146.181,357.644 145.653 C 358.060 145.124,358.400 144.347,358.400 143.926 C 358.400 143.505,358.694 142.591,359.054 141.895 C 361.830 136.528,362.803 123.413,360.829 118.000 C 360.387 116.790,360.020 115.260,360.012 114.600 C 360.004 113.940,359.665 112.856,359.259 112.190 C 358.854 111.525,358.305 110.325,358.040 109.522 C 357.776 108.720,357.298 107.848,356.980 107.583 C 356.661 107.318,356.400 106.806,356.400 106.444 C 356.400 106.081,355.769 104.889,354.997 103.793 C 354.225 102.697,353.167 101.170,352.646 100.400 C 351.424 98.595,347.005 94.176,345.200 92.954 C 344.430 92.433,342.903 91.375,341.807 90.603 C 340.711 89.831,339.567 89.200,339.265 89.200 C 338.963 89.200,338.181 88.750,337.527 88.200 C 336.873 87.650,335.983 87.200,335.549 87.200 C 335.115 87.200,334.247 86.935,333.621 86.611 C 329.611 84.537,317.959 83.008,312.800 83.878 " stroke="none" fill="#84bcf4" fill-rule="evenodd"></path><path id="path2" d="M106.687 0.789 C 106.541 1.349,106.005 1.654,104.844 1.839 C 100.474 2.538,96.008 9.981,97.835 13.520 C 98.921 15.622,99.256 464.686,98.173 465.770 C 97.608 466.335,93.322 466.400,56.557 466.400 C 21.996 466.400,15.433 466.488,14.686 466.963 C 14.199 467.273,12.785 467.732,11.545 467.982 C 4.501 469.406,2.817 481.110,9.305 483.547 C 9.913 483.775,10.517 484.241,10.648 484.581 C 11.072 485.686,183.616 485.506,184.307 484.400 C 184.782 483.640,185.240 483.600,193.376 483.600 C 201.595 483.600,201.956 483.633,202.200 484.400 C 202.524 485.420,203.054 485.420,203.600 484.400 C 203.835 483.960,204.427 483.597,204.914 483.594 C 206.058 483.586,206.255 483.430,208.509 480.757 L 210.400 478.514 210.400 475.330 L 210.400 472.147 208.100 469.757 C 204.298 465.805,208.052 466.076,160.310 466.310 C 127.210 466.473,118.696 466.411,118.210 466.008 C 117.665 465.556,117.600 446.525,117.600 287.995 L 117.600 110.488 123.780 104.344 C 127.179 100.965,134.590 93.700,140.249 88.200 C 145.908 82.700,158.309 70.493,167.806 61.074 C 177.303 51.655,185.597 43.620,186.237 43.219 C 188.144 42.023,204.800 25.017,204.800 24.266 C 204.800 23.885,205.424 22.949,206.187 22.187 L 207.573 20.800 257.758 20.800 C 302.847 20.800,308.007 20.864,308.571 21.429 C 309.127 21.984,309.200 24.535,309.200 43.445 C 309.200 64.042,309.230 64.890,310.000 66.400 C 310.440 67.262,310.800 68.279,310.800 68.658 C 310.800 69.038,311.194 69.767,311.675 70.280 C 312.929 71.615,310.386 72.784,304.000 73.807 C 303.010 73.966,301.570 74.412,300.800 74.799 C 300.030 75.186,298.770 75.638,298.000 75.803 C 297.230 75.969,296.171 76.441,295.646 76.852 C 295.121 77.263,294.411 77.600,294.068 77.600 C 293.724 77.600,292.803 78.023,292.022 78.539 C 290.336 79.653,286.461 82.230,284.543 83.513 C 279.885 86.628,271.813 96.479,269.394 102.000 C 269.057 102.770,268.604 103.670,268.387 104.000 C 267.432 105.457,266.080 109.441,265.197 113.400 C 264.805 115.160,264.260 117.140,263.988 117.800 C 263.071 120.018,263.271 133.172,264.283 137.200 C 264.752 139.070,265.254 141.299,265.397 142.154 C 265.540 143.009,266.004 144.356,266.428 145.148 C 266.853 145.940,267.200 146.859,267.200 147.191 C 267.200 147.804,269.293 152.103,271.001 155.000 C 271.520 155.880,272.251 157.140,272.624 157.800 C 272.998 158.460,273.542 159.270,273.834 159.600 C 274.125 159.930,275.503 161.543,276.897 163.184 C 278.291 164.826,280.774 167.309,282.416 168.703 C 284.057 170.097,285.670 171.475,286.000 171.766 C 286.330 172.058,287.140 172.602,287.800 172.976 C 288.460 173.349,289.720 174.080,290.600 174.599 C 294.906 177.138,299.760 179.156,304.200 180.251 C 311.406 182.028,310.800 181.078,310.800 190.587 L 310.800 198.317 309.461 199.459 C 308.279 200.466,302.589 204.758,300.258 206.400 C 299.790 206.730,297.785 208.207,295.803 209.682 C 293.821 211.157,291.604 212.777,290.876 213.282 C 290.148 213.787,288.168 215.285,286.476 216.610 C 284.784 217.936,282.893 219.343,282.274 219.737 C 281.654 220.131,280.844 220.703,280.474 221.008 C 279.400 221.892,275.022 225.247,272.508 227.112 C 268.875 229.806,265.155 232.545,264.239 233.199 C 263.778 233.529,260.815 235.734,257.655 238.099 C 254.495 240.465,251.788 242.400,251.640 242.400 C 251.378 242.400,246.901 246.683,245.512 248.262 C 240.363 254.116,248.206 263.586,254.260 258.824 C 254.836 258.371,255.753 258.000,256.296 258.000 C 256.840 258.000,257.793 257.595,258.415 257.100 C 259.036 256.605,260.192 255.750,260.983 255.200 C 261.774 254.650,263.482 253.390,264.777 252.400 C 268.424 249.614,271.918 247.002,275.200 244.610 C 276.850 243.407,278.560 242.142,279.000 241.799 C 282.103 239.380,285.138 237.116,287.576 235.400 C 289.139 234.300,292.049 232.095,294.043 230.500 C 296.037 228.905,297.810 227.600,297.983 227.600 C 298.156 227.600,299.446 226.710,300.849 225.621 C 302.252 224.533,304.300 222.946,305.400 222.094 C 308.740 219.508,309.965 218.899,310.411 219.604 C 310.642 219.969,310.790 240.603,310.794 272.871 C 310.800 322.502,310.840 325.583,311.500 326.229 C 311.885 326.607,312.472 327.475,312.804 328.158 C 315.000 332.678,320.919 332.379,324.761 327.554 L 326.400 325.495 326.400 253.997 C 326.400 197.278,326.503 182.415,326.900 182.097 C 327.506 181.612,331.172 180.578,333.480 180.242 C 334.403 180.107,335.753 179.658,336.480 179.243 C 337.206 178.828,338.457 178.374,339.260 178.234 C 340.063 178.094,340.925 177.731,341.176 177.429 C 341.427 177.126,342.120 176.759,342.716 176.614 C 343.702 176.373,345.057 175.597,348.084 173.537 C 348.680 173.132,349.263 172.800,349.379 172.800 C 350.541 172.800,360.208 163.867,362.087 161.057 C 363.370 159.139,365.947 155.264,367.061 153.578 C 367.577 152.797,368.000 151.876,368.000 151.532 C 368.000 151.189,368.337 150.479,368.748 149.954 C 369.159 149.429,369.630 148.370,369.793 147.600 C 369.957 146.830,370.414 145.480,370.809 144.600 C 371.205 143.720,371.745 141.830,372.009 140.400 C 372.274 138.970,372.679 137.350,372.910 136.800 C 373.691 134.934,373.758 121.384,373.003 118.000 C 372.634 116.350,372.104 113.920,371.824 112.600 C 371.544 111.280,371.020 109.660,370.660 109.000 C 370.300 108.340,370.004 107.549,370.002 107.242 C 370.001 106.935,369.343 105.315,368.540 103.642 C 361.343 88.651,347.641 77.312,332.400 73.737 C 330.970 73.402,329.170 72.973,328.400 72.783 C 327.630 72.594,326.497 72.335,325.883 72.208 C 324.562 71.934,324.016 70.871,324.874 70.242 C 325.524 69.765,326.629 67.790,327.345 65.823 C 327.645 65.000,327.860 56.496,328.005 39.800 C 328.207 16.436,328.264 14.892,328.996 13.130 L 329.772 11.260 328.829 8.930 C 327.897 6.625,325.858 4.000,324.999 4.000 C 324.755 4.000,323.945 3.550,323.200 3.000 L 321.845 2.000 217.222 1.998 C 111.533 1.996,109.600 1.970,109.600 0.581 C 109.600 -0.379,106.943 -0.190,106.687 0.789 M179.367 21.043 C 180.725 21.564,183.636 18.541,149.756 51.800 C 115.075 85.845,118.384 82.779,117.843 81.367 C 117.153 79.569,117.593 21.644,118.300 21.232 C 119.059 20.790,178.230 20.607,179.367 21.043 M323.702 72.704 C 324.419 73.341,326.176 73.747,330.832 74.351 C 332.280 74.539,333.900 74.973,334.432 75.317 C 334.964 75.660,336.120 76.070,337.000 76.227 C 338.414 76.480,341.484 77.773,343.200 78.838 C 343.530 79.043,344.523 79.543,345.406 79.950 C 346.289 80.358,347.256 80.985,347.555 81.345 C 347.853 81.705,348.337 82.000,348.628 82.000 C 350.407 82.000,363.600 95.193,363.600 96.972 C 363.600 97.263,363.881 97.735,364.224 98.020 C 364.567 98.305,365.163 99.182,365.548 99.969 C 365.933 100.756,366.448 101.760,366.691 102.200 C 367.980 104.529,369.200 107.260,369.200 107.817 C 369.200 108.165,369.630 109.383,370.156 110.525 C 370.707 111.722,371.220 113.785,371.368 115.400 C 371.508 116.940,371.898 119.041,372.234 120.070 C 372.951 122.268,372.828 131.166,372.029 134.800 C 371.763 136.010,371.416 138.098,371.258 139.440 C 371.100 140.782,370.667 142.344,370.295 142.912 C 369.923 143.479,369.496 144.713,369.345 145.652 C 369.093 147.229,366.115 153.479,364.440 155.946 C 364.047 156.526,363.250 157.726,362.669 158.613 C 360.354 162.147,350.216 172.000,348.895 172.000 C 348.682 172.000,348.007 172.394,347.395 172.876 C 345.825 174.110,339.105 177.470,337.522 177.812 C 336.795 177.969,335.570 178.416,334.800 178.806 C 334.030 179.195,332.030 179.642,330.356 179.799 C 326.984 180.114,326.722 180.217,326.060 181.474 C 325.718 182.123,325.600 200.706,325.599 253.674 L 325.599 325.000 323.499 327.272 C 320.893 330.094,319.313 330.687,316.783 329.794 C 314.934 329.142,313.200 327.786,313.200 326.992 C 313.200 326.735,312.840 326.198,312.400 325.800 C 311.608 325.083,311.600 324.564,311.594 272.438 C 311.588 218.859,311.571 218.183,310.186 217.727 C 309.850 217.616,305.237 220.852,301.000 224.169 C 300.560 224.514,299.513 225.291,298.674 225.898 C 297.834 226.504,296.117 227.810,294.856 228.800 C 293.596 229.790,292.283 230.780,291.939 231.000 C 290.161 232.135,288.811 233.129,287.000 234.634 C 285.900 235.549,284.460 236.580,283.800 236.925 C 283.140 237.270,281.926 238.148,281.103 238.876 C 280.280 239.604,278.967 240.650,278.187 241.200 C 275.504 243.090,273.799 244.383,273.112 245.048 C 272.734 245.414,272.083 245.913,271.665 246.157 C 270.364 246.916,268.765 248.066,263.687 251.895 C 260.985 253.933,258.628 255.600,258.449 255.600 C 258.270 255.600,257.798 255.960,257.400 256.400 C 257.002 256.840,256.387 257.200,256.035 257.200 C 255.682 257.200,254.548 257.650,253.515 258.200 C 248.181 261.039,242.371 254.894,245.719 249.956 C 246.225 249.210,246.753 248.302,246.893 247.937 C 247.164 247.227,251.821 243.200,252.370 243.200 C 252.550 243.200,253.793 242.345,255.131 241.300 C 256.469 240.255,259.286 238.140,261.393 236.600 C 263.499 235.060,266.368 232.900,267.770 231.800 C 269.171 230.700,271.598 228.900,273.164 227.800 C 274.730 226.700,276.452 225.440,276.990 225.000 C 278.203 224.009,279.359 223.126,281.311 221.702 C 282.142 221.096,283.975 219.700,285.384 218.600 C 286.793 217.500,288.596 216.150,289.391 215.600 C 290.186 215.050,291.931 213.745,293.269 212.700 C 294.607 211.655,295.844 210.800,296.018 210.800 C 296.192 210.800,297.510 209.855,298.947 208.700 C 300.384 207.545,303.375 205.269,305.594 203.641 C 311.975 198.961,311.600 199.787,311.600 190.400 C 311.600 180.665,311.436 180.287,307.031 179.876 C 305.602 179.742,303.751 179.290,302.917 178.871 C 302.082 178.451,300.735 177.988,299.923 177.840 C 298.274 177.541,291.529 174.231,289.805 172.876 C 289.193 172.394,288.520 172.000,288.309 172.000 C 287.260 172.000,280.283 165.722,276.997 161.822 C 274.324 158.649,273.600 157.679,273.600 157.273 C 273.600 157.047,273.188 156.353,272.684 155.731 C 272.181 155.109,271.552 154.150,271.287 153.600 C 271.022 153.050,270.643 152.330,270.443 152.000 C 269.489 150.421,268.052 147.148,267.791 145.958 C 267.631 145.229,267.177 143.995,266.783 143.216 C 266.389 142.437,265.939 140.454,265.784 138.809 C 265.628 137.165,265.237 135.095,264.914 134.209 C 263.992 131.678,263.766 124.613,264.524 121.984 C 264.870 120.783,265.365 118.180,265.624 116.200 C 265.883 114.220,266.409 111.970,266.793 111.200 C 267.177 110.430,267.612 109.135,267.760 108.323 C 268.059 106.674,271.369 99.929,272.724 98.205 C 273.206 97.593,273.600 96.918,273.600 96.705 C 273.600 95.321,283.574 85.114,287.190 82.796 C 288.186 82.158,289.441 81.322,289.980 80.939 C 291.678 79.731,298.519 76.400,299.301 76.400 C 299.713 76.400,300.983 75.969,302.125 75.442 C 303.358 74.873,305.389 74.375,307.130 74.215 C 309.950 73.956,313.600 72.769,313.600 72.111 C 313.600 71.484,322.946 72.032,323.702 72.704 M311.400 83.145 C 310.300 83.305,308.860 83.718,308.200 84.063 C 307.540 84.408,306.246 84.786,305.324 84.904 C 303.721 85.108,299.663 86.813,298.400 87.812 C 298.070 88.073,297.192 88.491,296.448 88.741 C 292.495 90.068,282.395 100.213,280.062 105.200 C 279.599 106.190,279.048 107.270,278.838 107.600 C 277.993 108.929,276.814 111.909,276.408 113.741 C 276.172 114.808,275.676 116.248,275.306 116.941 C 274.147 119.113,274.293 134.292,275.500 137.074 C 275.995 138.215,276.401 139.745,276.402 140.474 C 276.403 141.203,276.848 142.520,277.390 143.400 C 277.932 144.280,278.381 145.293,278.388 145.651 C 278.394 146.009,278.661 146.518,278.980 146.783 C 279.298 147.048,279.775 147.925,280.039 148.732 C 281.507 153.223,291.312 163.046,296.875 165.598 C 297.824 166.034,298.870 166.559,299.200 166.767 C 300.629 167.664,303.654 168.859,305.067 169.084 C 305.910 169.218,307.253 169.666,308.051 170.079 C 309.133 170.639,310.404 170.837,313.051 170.858 C 315.003 170.873,317.770 170.895,319.200 170.907 C 320.630 170.918,322.889 170.937,324.219 170.948 C 325.865 170.962,327.294 170.686,328.693 170.084 C 329.823 169.598,331.231 169.200,331.820 169.200 C 337.657 169.200,354.713 155.544,356.859 149.152 C 357.109 148.408,357.532 147.530,357.800 147.200 C 358.591 146.226,360.347 142.089,360.645 140.499 C 360.797 139.689,361.293 138.211,361.746 137.214 C 363.049 134.351,363.014 119.869,361.699 117.122 C 361.205 116.089,360.800 114.721,360.800 114.082 C 360.800 113.442,360.350 112.073,359.800 111.038 C 359.250 110.004,358.800 108.932,358.800 108.657 C 358.800 108.381,358.350 107.545,357.800 106.800 C 357.250 106.055,356.800 105.152,356.800 104.795 C 356.800 102.401,343.178 88.800,340.780 88.800 C 340.437 88.800,339.545 88.350,338.800 87.800 C 338.055 87.250,337.252 86.800,337.016 86.800 C 336.781 86.800,335.940 86.453,335.148 86.028 C 334.356 85.604,333.015 85.127,332.168 84.968 C 331.320 84.809,329.839 84.330,328.875 83.904 C 326.953 83.053,315.470 82.555,311.400 83.145 M327.444 84.811 C 330.214 85.476,332.994 86.286,333.621 86.611 C 334.247 86.935,335.115 87.200,335.549 87.200 C 335.983 87.200,336.873 87.650,337.527 88.200 C 338.181 88.750,338.963 89.200,339.265 89.200 C 339.567 89.200,340.711 89.831,341.807 90.603 C 342.903 91.375,344.430 92.433,345.200 92.954 C 347.005 94.176,351.424 98.595,352.646 100.400 C 353.167 101.170,354.225 102.697,354.997 103.793 C 355.769 104.889,356.400 106.081,356.400 106.444 C 356.400 106.806,356.661 107.318,356.980 107.583 C 357.298 107.848,357.776 108.720,358.040 109.522 C 358.305 110.325,358.854 111.525,359.259 112.190 C 359.665 112.856,360.004 113.940,360.012 114.600 C 360.020 115.260,360.387 116.790,360.829 118.000 C 362.803 123.413,361.830 136.528,359.054 141.895 C 358.694 142.591,358.400 143.505,358.400 143.926 C 358.400 144.347,358.060 145.124,357.644 145.653 C 357.229 146.181,356.618 147.261,356.288 148.052 C 354.212 153.020,342.447 164.793,339.554 164.799 C 339.199 164.799,338.479 165.135,337.954 165.545 C 337.429 165.955,336.550 166.423,336.000 166.587 C 335.450 166.750,334.550 167.169,334.000 167.518 C 333.450 167.867,331.830 168.377,330.400 168.653 C 328.970 168.928,326.810 169.438,325.600 169.785 C 323.620 170.353,323.213 170.356,321.525 169.808 C 319.168 169.044,317.996 169.041,316.546 169.798 C 314.883 170.665,306.710 169.223,303.320 167.464 C 302.616 167.099,301.803 166.800,301.513 166.800 C 301.223 166.800,300.323 166.350,299.514 165.800 C 298.705 165.250,297.790 164.800,297.482 164.800 C 294.638 164.800,282.200 152.257,280.711 147.887 C 280.469 147.179,279.941 146.171,279.536 145.646 C 279.131 145.121,278.800 144.423,278.800 144.093 C 278.800 143.764,278.461 142.933,278.047 142.247 C 277.633 141.561,277.166 140.100,277.009 139.000 C 276.852 137.900,276.443 136.370,276.100 135.600 C 274.266 131.487,275.557 116.712,278.195 111.610 C 278.528 110.966,278.800 110.142,278.800 109.778 C 278.800 109.413,279.250 108.581,279.800 107.927 C 280.350 107.273,280.800 106.413,280.800 106.015 C 280.800 103.088,292.260 91.694,297.737 89.175 C 298.651 88.754,299.670 88.239,300.000 88.029 C 301.388 87.148,305.368 85.600,306.247 85.600 C 306.769 85.600,308.233 85.250,309.498 84.823 C 314.464 83.147,320.505 83.143,327.444 84.811 M38.800 467.600 C 38.800 467.857,34.800 468.000,27.600 468.000 C 20.400 468.000,16.400 467.857,16.400 467.600 C 16.400 467.343,20.400 467.200,27.600 467.200 C 34.800 467.200,38.800 467.343,38.800 467.600 M209.600 475.000 C 209.600 475.990,209.420 476.800,209.200 476.800 C 208.980 476.800,208.800 475.990,208.800 475.000 C 208.800 474.010,208.980 473.200,209.200 473.200 C 209.420 473.200,209.600 474.010,209.600 475.000 " stroke="none" fill="#844404" fill-rule="evenodd"></path></g></svg>