<svg id="Capa_1" enable-background="new 0 0 512 512" height="512" viewBox="0 0 512 512" width="512" xmlns="http://www.w3.org/2000/svg"><g><g><g><g><path d="m207.542 334.695-34.226-17.861 163.316-312.961c1.841-3.528 6.193-4.895 9.721-3.054 14.357 7.492 21.173 24.283 16.099 39.663l-76.457 231.742c-5.098 15.451-19.671 25.776-35.939 25.462-14.073-.272-27.086 7.445-33.598 19.923z" fill="#c7e0e5"/><g><path d="m23.558 469.904 3.929 3.55c13.577 2.725 29.141.753 41.055-5.349 0 0-1.067-3.972-.892-3.881-14.39-7.869-19.977-26.025-12.311-40.601 8.138-15.473 23.362-25.797 40.757-27.629 6.629-.698 13.126-1.911 19.444-3.605l6.994-5.143 25.044-47.991-1.412-5.553c-14.243 14.431-33.208 23.756-53.9 25.936-29.59 3.117-55.651 20.847-69.416 47.225-10.727 20.557-9.684 44.138.708 63.041z" fill="#62d8f9"/></g><g><path d="m211.233 320.047-27.752-14.482c-7.911-4.128-17.67-1.062-21.798 6.849-4.139 7.933-9.392 15.083-15.517 21.289l-30.626 58.688c1.88-.504 3.745-1.05 5.592-1.638 13.333-4.247 25.162 9.641 18.688 22.047l-25.504 48.872c-6.096 11.683-20.509 16.211-32.192 10.115l-13.953-7.281c-.175-.092-.349-.185-.522-.28-13.153 7.502-29.012 9.76-44.093 5.679 6.115 11.123 15.467 20.626 27.564 26.938l15.992 8.345c28.532 14.889 63.732 3.829 78.621-24.702l72.348-138.639c4.129-7.913 1.063-17.672-6.848-21.8z" fill="#0acefa"/></g></g><g><path d="m304.458 334.695 34.226-17.861-163.316-312.961c-1.841-3.528-6.193-4.895-9.721-3.054-14.357 7.492-21.173 24.283-16.099 39.663l76.457 231.742c5.098 15.451 19.671 25.776 35.939 25.462 14.073-.272 27.086 7.445 33.598 19.923z" fill="#daeaef"/><g><path d="m438.542 467.263-8.667 4.523c-11.683 6.096-26.095 1.568-32.192-10.115l-25.504-48.872c-3.209-6.148-2.276-12.219 1.462-16.707l-.682-5.155c-3.467-.753-7.009-1.444-9.237-1.679-19.085-2.01-38.589-10.248-53.634-22.711l-2.73 1.055 58.907 112.883c11.933 22.868 35.601 34.711 59.739 30.767l10.435-5.508c5.536-11.199 8.382-23.442 8.504-35.865z" fill="#62d8f9"/></g><g><path d="m489.149 406.863c-23.593-45.212-69.312-47.186-69.416-47.225-29.59-3.117-55.651-20.847-69.416-47.225-4.128-7.911-13.888-10.977-21.798-6.849l-27.752 14.482c-7.911 4.128-10.977 13.888-6.849 21.798l13.441 25.757c14.293 14.697 33.444 24.201 54.358 26.404 4.048.426 8.03 1.127 11.924 2.085 3.756-4.848 10.287-7.55 17.226-5.34 8.055 2.566 16.435 4.337 25.036 5.243 17.395 1.833 32.619 12.157 40.757 27.629 7.759 14.751 1.944 33.169-12.833 40.88l-5.286 2.759c1.129 15.681-3.353 31.307-12.537 43.989 6.423-.899 12.804-2.893 18.882-6.065l15.992-8.345c32.654-17.038 45.311-57.323 28.271-89.977z" fill="#0acefa"/></g></g></g><circle cx="256" cy="235.12" fill="#c7e0e5" r="7.834"/></g></g></svg>