<svg id="svg" version="1.1" xmlns="http://www.w3.org/2000/svg" xmlns:xlink="http://www.w3.org/1999/xlink" width="400" height="485.3080568720379" viewBox="0, 0, 400,485.3080568720379"><g id="svgg"><path id="path0" d="M0.000 242.600 L 0.000 485.200 3.500 485.187 C 6.900 485.174,6.976 485.153,6.154 484.466 C 3.938 482.615,2.510 476.745,3.957 475.438 C 4.421 475.019,4.800 474.216,4.800 473.653 C 4.800 472.287,7.806 469.200,9.136 469.200 C 9.669 469.200,10.757 468.795,11.553 468.300 L 13.000 467.400 55.300 467.291 L 97.600 467.182 97.597 242.691 C 97.595 19.368,97.591 18.194,96.800 17.000 C 95.649 15.262,95.649 10.292,96.800 9.307 C 97.240 8.930,97.600 8.455,97.600 8.251 C 97.600 7.483,102.284 3.357,104.356 2.300 C 106.988 0.957,109.563 0.852,111.704 2.000 C 113.186 2.794,113.967 2.800,217.899 2.806 C 300.257 2.811,322.782 2.917,323.453 3.306 C 326.030 4.798,328.438 6.690,328.658 7.396 C 328.796 7.838,329.352 8.730,329.894 9.377 C 331.206 10.946,331.139 16.471,329.795 17.453 C 329.019 18.020,328.995 18.665,328.800 43.985 L 328.600 69.936 327.600 71.046 C 325.175 73.739,324.096 74.800,323.785 74.800 C 323.602 74.800,323.021 75.205,322.494 75.700 C 321.077 77.031,315.726 77.031,314.308 75.700 C 313.780 75.205,313.169 74.800,312.949 74.800 C 312.299 74.800,310.524 72.746,309.321 70.600 L 308.200 68.600 308.087 46.416 C 308.001 29.525,307.858 24.157,307.487 23.922 C 307.219 23.751,284.833 23.609,257.740 23.606 L 208.480 23.600 207.040 25.040 C 206.248 25.832,205.600 26.835,205.600 27.268 C 205.600 28.050,197.837 35.888,178.335 54.800 C 173.457 59.530,165.126 67.675,159.822 72.900 C 154.518 78.125,150.065 82.400,149.926 82.400 C 149.786 82.400,142.636 89.395,134.036 97.944 L 118.400 113.488 118.406 289.844 C 118.409 386.840,118.556 466.427,118.733 466.705 C 119.032 467.176,146.155 467.180,193.400 466.716 C 204.507 466.607,205.419 466.800,208.621 469.949 C 212.013 473.283,212.827 479.533,210.300 482.838 C 209.695 483.629,209.200 484.484,209.200 484.738 C 209.200 485.086,232.703 485.200,304.600 485.200 L 400.000 485.200 400.000 242.600 L 400.000 0.000 200.000 0.000 L 0.000 0.000 0.000 242.600 M118.880 24.080 C 118.343 24.617,118.211 79.579,118.744 80.931 C 118.984 81.540,120.073 80.645,125.216 75.616 C 128.617 72.290,135.360 65.717,140.200 61.010 C 145.040 56.302,152.918 48.614,157.706 43.925 C 162.494 39.236,166.596 35.338,166.822 35.261 C 167.401 35.066,177.600 24.793,177.600 24.405 C 177.600 24.229,177.315 23.976,176.967 23.843 C 175.661 23.341,119.389 23.571,118.880 24.080 " stroke="none" fill="#fcfcfc" fill-rule="evenodd"></path><path id="path1" d="M106.400 3.400 C 105.630 3.697,104.639 3.953,104.198 3.970 C 100.834 4.097,95.941 13.381,98.100 15.540 C 98.995 16.435,99.021 467.241,98.126 467.900 C 97.593 468.292,88.620 468.400,56.455 468.400 C 20.544 468.400,15.381 468.475,14.799 469.001 C 14.433 469.332,13.069 469.796,11.767 470.032 C 6.279 471.029,3.179 479.146,6.810 483.011 C 7.245 483.473,7.600 484.155,7.600 484.526 C 7.600 485.156,14.058 485.200,107.157 485.200 L 206.715 485.200 208.558 482.500 C 212.028 477.418,210.530 472.095,204.844 469.302 L 202.600 468.200 160.706 468.354 C 127.483 468.475,118.686 468.403,118.206 468.005 C 117.666 467.557,117.600 447.993,117.600 289.807 L 117.600 112.112 133.100 96.972 C 141.625 88.644,156.745 73.730,166.699 63.830 C 176.654 53.929,185.162 45.635,185.606 45.397 C 186.855 44.729,204.400 27.107,204.400 26.521 C 204.400 26.236,205.051 25.282,205.847 24.401 L 207.293 22.800 257.767 22.800 C 296.490 22.800,308.352 22.912,308.720 23.280 C 309.081 23.641,309.200 29.010,309.200 44.986 C 309.200 65.448,309.229 66.266,310.000 67.704 C 310.440 68.525,310.800 69.551,310.800 69.985 C 310.800 71.284,312.981 73.362,315.397 74.363 L 317.666 75.304 320.448 74.468 C 327.777 72.264,327.996 71.294,328.014 41.014 C 328.026 20.950,328.122 16.836,328.600 16.000 C 329.624 14.209,329.320 11.886,327.608 8.400 C 327.446 8.070,326.073 6.953,324.557 5.918 L 321.800 4.036 217.184 4.018 C 125.522 4.002,112.283 3.926,110.265 3.400 C 108.998 3.070,107.925 2.814,107.880 2.830 C 107.836 2.847,107.170 3.103,106.400 3.400 M179.860 23.413 C 180.112 24.069,180.501 23.675,150.487 53.200 C 118.918 84.255,118.376 84.756,117.843 83.367 C 117.510 82.500,117.534 23.400,117.867 23.067 C 118.504 22.429,179.614 22.770,179.860 23.413 " stroke="none" fill="#804307" fill-rule="evenodd"></path><path id="path2" d="M104.200 2.338 C 102.225 3.386,97.600 7.530,97.600 8.251 C 97.600 8.455,97.240 8.930,96.800 9.307 C 95.649 10.292,95.649 15.262,96.800 17.000 C 97.591 18.194,97.595 19.368,97.597 242.691 L 97.600 467.182 55.300 467.291 L 13.000 467.400 11.553 468.300 C 10.757 468.795,9.669 469.200,9.136 469.200 C 7.806 469.200,4.800 472.287,4.800 473.653 C 4.800 474.216,4.421 475.019,3.957 475.438 C 2.159 477.062,4.909 485.081,7.300 485.187 C 7.894 485.213,7.584 483.834,6.810 483.011 C 3.179 479.146,6.279 471.029,11.767 470.032 C 13.069 469.796,14.433 469.332,14.799 469.001 C 15.381 468.475,20.544 468.400,56.455 468.400 C 88.620 468.400,97.593 468.292,98.126 467.900 C 99.021 467.241,98.995 16.435,98.100 15.540 C 96.001 13.441,100.867 4.000,104.048 4.000 C 104.406 4.000,105.451 3.735,106.370 3.410 C 107.842 2.891,108.311 2.891,110.305 3.410 C 112.270 3.922,126.347 4.002,217.184 4.018 L 321.800 4.036 324.557 5.918 C 326.073 6.953,327.446 8.070,327.608 8.400 C 329.320 11.886,329.624 14.209,328.600 16.000 C 328.122 16.836,328.026 20.950,328.014 41.014 C 327.996 71.294,327.777 72.264,320.448 74.468 L 317.666 75.304 315.397 74.363 C 312.981 73.362,310.800 71.284,310.800 69.985 C 310.800 69.551,310.440 68.525,310.000 67.704 C 309.229 66.266,309.200 65.448,309.200 44.986 C 309.200 29.010,309.081 23.641,308.720 23.280 C 308.352 22.912,296.490 22.800,257.767 22.800 L 207.293 22.800 205.847 24.401 C 205.051 25.282,204.400 26.236,204.400 26.521 C 204.400 27.107,186.855 44.729,185.606 45.397 C 185.162 45.635,176.654 53.929,166.699 63.830 C 156.745 73.730,141.625 88.644,133.100 96.972 L 117.600 112.112 117.600 289.807 C 117.600 447.993,117.666 467.557,118.206 468.005 C 118.686 468.403,127.483 468.475,160.706 468.354 L 202.600 468.200 204.844 469.302 C 210.274 471.969,212.038 477.527,208.884 482.034 C 206.568 485.343,206.609 485.200,207.976 485.200 C 208.649 485.200,209.200 484.992,209.200 484.738 C 209.200 484.484,209.695 483.629,210.300 482.838 C 212.827 479.533,212.013 473.283,208.621 469.949 C 205.419 466.800,204.507 466.607,193.400 466.716 C 146.155 467.180,119.032 467.176,118.733 466.705 C 118.556 466.427,118.409 386.840,118.406 289.844 L 118.400 113.488 134.036 97.944 C 142.636 89.395,149.786 82.400,149.926 82.400 C 150.065 82.400,154.518 78.125,159.822 72.900 C 165.126 67.675,173.457 59.530,178.335 54.800 C 197.837 35.888,205.600 28.050,205.600 27.268 C 205.600 26.835,206.248 25.832,207.040 25.040 L 208.480 23.600 257.740 23.606 C 284.833 23.609,307.219 23.751,307.487 23.922 C 307.858 24.157,308.001 29.525,308.087 46.416 L 308.200 68.600 309.321 70.600 C 310.524 72.746,312.299 74.800,312.949 74.800 C 313.169 74.800,313.780 75.205,314.308 75.700 C 315.726 77.031,321.077 77.031,322.494 75.700 C 323.021 75.205,323.602 74.800,323.785 74.800 C 324.096 74.800,325.175 73.739,327.600 71.046 L 328.600 69.936 328.800 43.985 C 328.995 18.665,329.019 18.020,329.795 17.453 C 331.139 16.471,331.206 10.946,329.894 9.377 C 329.352 8.730,328.796 7.838,328.658 7.396 C 328.438 6.690,326.030 4.798,323.453 3.306 C 322.782 2.917,300.257 2.811,217.899 2.806 C 113.967 2.800,113.186 2.794,111.704 2.000 C 109.588 0.865,106.731 0.994,104.200 2.338 M117.867 23.067 C 117.534 23.400,117.510 82.500,117.843 83.367 C 118.376 84.756,118.918 84.255,150.487 53.200 C 180.501 23.675,180.112 24.069,179.860 23.413 C 179.614 22.770,118.504 22.429,117.867 23.067 M176.967 23.843 C 177.315 23.976,177.600 24.229,177.600 24.405 C 177.600 24.793,167.401 35.066,166.822 35.261 C 166.596 35.338,162.494 39.236,157.706 43.925 C 152.918 48.614,145.040 56.302,140.200 61.010 C 135.360 65.717,128.617 72.290,125.216 75.616 C 120.073 80.645,118.984 81.540,118.744 80.931 C 118.211 79.579,118.343 24.617,118.880 24.080 C 119.389 23.571,175.661 23.341,176.967 23.843 " stroke="none" fill="#e4e4e4" fill-rule="evenodd"></path></g></svg>