<svg id="svg" version="1.1" xmlns="http://www.w3.org/2000/svg" xmlns:xlink="http://www.w3.org/1999/xlink" width="400" height="485.3080568720379" viewBox="0, 0, 400,485.3080568720379"><g id="svgg"><path id="path0" d="M313.069 73.958 C 312.288 74.900,310.330 75.525,306.573 76.030 C 304.603 76.295,302.440 76.845,301.753 77.255 C 301.067 77.665,300.169 78.000,299.759 78.000 C 299.047 78.000,295.745 79.430,293.600 80.667 C 293.050 80.984,292.046 81.493,291.368 81.799 C 290.691 82.104,289.904 82.634,289.619 82.977 C 289.335 83.320,288.863 83.600,288.572 83.600 C 286.721 83.600,273.200 97.116,273.200 98.966 C 273.200 99.261,272.920 99.735,272.577 100.019 C 272.234 100.304,271.704 101.091,271.399 101.768 C 271.093 102.446,270.584 103.450,270.267 104.000 C 268.992 106.212,267.600 109.458,267.600 110.221 C 267.600 110.666,267.238 111.741,266.796 112.609 C 266.353 113.476,265.821 115.360,265.614 116.793 C 265.406 118.227,265.035 120.300,264.788 121.400 C 263.880 125.454,263.852 132.686,264.731 136.400 C 265.173 138.270,265.661 140.790,265.815 142.000 C 265.969 143.210,266.434 144.868,266.848 145.684 C 267.261 146.500,267.600 147.506,267.600 147.918 C 267.600 148.765,270.926 155.389,272.539 157.756 C 273.123 158.612,273.600 159.486,273.600 159.699 C 273.600 159.913,273.948 160.473,274.374 160.944 C 274.800 161.415,276.285 163.101,277.674 164.691 C 279.063 166.281,281.460 168.662,283.000 169.982 C 284.540 171.302,286.108 172.648,286.483 172.974 C 286.859 173.300,287.849 173.940,288.683 174.396 C 289.518 174.852,291.190 175.843,292.400 176.597 C 293.610 177.352,294.832 177.976,295.116 177.984 C 295.400 177.993,296.120 178.343,296.716 178.763 C 297.312 179.182,298.512 179.647,299.381 179.796 C 300.251 179.945,301.601 180.392,302.381 180.788 C 303.162 181.185,305.060 181.701,306.600 181.935 C 308.140 182.168,310.480 182.593,311.800 182.879 C 314.866 183.544,323.732 183.534,325.600 182.863 C 326.370 182.587,328.656 182.110,330.679 181.803 C 332.703 181.497,334.773 180.983,335.279 180.662 C 335.786 180.341,336.804 179.952,337.542 179.798 C 338.749 179.546,342.036 178.110,343.600 177.152 C 343.930 176.949,344.773 176.520,345.473 176.198 C 346.173 175.876,346.870 175.411,347.021 175.165 C 347.173 174.919,347.861 174.459,348.549 174.142 C 352.309 172.409,363.600 161.247,363.600 159.262 C 363.600 159.042,364.012 158.353,364.516 157.731 C 365.019 157.109,365.648 156.150,365.913 155.600 C 366.178 155.050,366.561 154.330,366.764 154.000 C 367.777 152.360,369.128 149.193,369.553 147.463 C 369.816 146.397,370.285 145.137,370.597 144.661 C 370.908 144.186,371.339 142.538,371.553 140.998 C 371.768 139.459,372.242 136.670,372.607 134.800 C 373.378 130.850,373.208 124.136,372.262 121.166 C 371.941 120.157,371.552 118.087,371.398 116.566 C 371.244 115.044,370.803 113.250,370.418 112.577 C 370.033 111.905,369.591 110.679,369.436 109.854 C 369.174 108.453,365.439 100.843,364.797 100.400 C 364.638 100.290,364.136 99.480,363.681 98.600 C 362.584 96.475,357.727 91.056,354.000 87.800 C 352.350 86.358,350.715 84.913,350.366 84.589 C 350.018 84.265,349.548 84.000,349.322 84.000 C 349.096 84.000,348.212 83.523,347.356 82.939 C 344.904 81.268,338.354 78.001,337.434 77.991 C 336.975 77.986,335.792 77.616,334.805 77.168 C 333.818 76.721,331.838 76.188,330.405 75.985 C 326.184 75.386,324.420 74.942,323.689 74.292 C 322.704 73.417,313.751 73.136,313.069 73.958 M328.029 85.802 C 329.003 86.158,330.700 86.678,331.800 86.957 C 344.045 90.068,358.737 104.863,360.595 115.956 C 360.757 116.922,361.225 118.452,361.636 119.356 C 362.635 121.557,362.751 134.606,361.800 137.913 C 361.470 139.061,360.929 140.945,360.597 142.100 C 360.266 143.255,359.726 144.767,359.397 145.460 C 359.069 146.154,358.800 146.894,358.800 147.107 C 358.800 147.319,358.434 147.958,357.986 148.527 C 357.538 149.097,356.971 150.156,356.727 150.881 C 355.388 154.851,345.534 164.736,340.600 167.058 C 339.500 167.575,338.330 168.161,338.000 168.359 C 336.067 169.520,333.059 170.753,331.546 171.006 C 330.586 171.166,328.900 171.653,327.800 172.088 C 325.136 173.140,310.241 173.009,308.186 171.915 C 307.519 171.559,306.259 171.138,305.386 170.979 C 299.031 169.817,288.390 162.286,283.030 155.156 C 280.918 152.346,276.400 143.278,276.400 141.849 C 276.400 141.288,276.010 139.878,275.533 138.715 C 274.186 135.431,274.187 123.128,275.534 118.800 C 277.006 114.069,278.823 109.497,279.645 108.451 C 280.060 107.924,280.400 107.189,280.400 106.819 C 280.400 104.536,294.029 90.800,296.294 90.800 C 296.489 90.800,298.426 89.900,300.600 88.800 C 302.774 87.700,305.064 86.800,305.689 86.800 C 306.314 86.800,307.495 86.501,308.313 86.134 C 311.539 84.691,324.394 84.474,328.029 85.802 M16.000 469.400 C 16.000 469.938,17.408 469.999,27.600 469.906 C 43.294 469.763,43.294 469.037,27.600 468.894 C 17.408 468.801,16.000 468.862,16.000 469.400 M208.800 476.943 C 208.800 479.466,209.434 480.292,209.814 478.264 C 210.144 476.505,209.930 475.106,209.300 474.898 C 208.940 474.780,208.800 475.354,208.800 476.943 M205.067 483.867 C 204.516 484.417,204.829 485.200,205.600 485.200 C 206.481 485.200,206.509 485.150,206.157 484.233 C 205.900 483.561,205.505 483.429,205.067 483.867 " stroke="none" fill="#161616" fill-rule="evenodd"></path><path id="path1" d="M0.000 242.600 L 0.000 485.200 3.800 485.200 C 7.880 485.200,8.268 484.963,6.782 483.381 C 5.600 482.123,4.963 477.674,5.626 475.306 C 6.516 472.130,8.542 470.370,11.967 469.801 C 12.938 469.639,14.288 469.169,14.967 468.755 C 16.153 468.032,17.774 468.003,57.086 468.001 C 97.158 468.000,97.980 467.985,98.388 467.223 C 99.281 465.553,98.730 16.814,97.832 15.331 C 95.736 11.868,100.192 5.052,105.614 3.428 C 107.949 2.729,108.229 2.724,110.798 3.344 C 113.279 3.943,122.541 4.000,217.739 4.000 L 321.964 4.000 323.482 4.989 C 327.169 7.391,327.537 7.787,328.653 10.544 L 329.762 13.287 328.991 15.144 C 328.266 16.889,328.207 18.485,328.010 41.800 C 327.779 69.063,327.780 69.054,325.167 71.836 C 324.113 72.957,324.403 74.000,325.769 74.000 C 326.315 74.000,327.176 74.187,327.681 74.416 C 328.187 74.645,330.130 75.165,332.000 75.572 C 336.104 76.464,340.095 77.801,341.600 78.787 C 341.930 79.004,342.830 79.457,343.600 79.794 C 349.121 82.213,358.972 90.285,362.087 94.943 C 363.370 96.861,365.947 100.736,367.061 102.422 C 367.577 103.203,368.000 104.124,368.000 104.468 C 368.000 104.811,368.337 105.521,368.748 106.046 C 369.159 106.571,369.631 107.630,369.797 108.400 C 369.962 109.170,370.411 110.430,370.795 111.200 C 371.178 111.970,371.614 113.320,371.764 114.200 C 371.914 115.080,372.411 117.328,372.868 119.195 C 373.775 122.897,373.776 136.369,372.870 139.000 C 372.642 139.660,372.186 141.370,371.855 142.800 C 369.121 154.611,358.496 169.810,349.657 174.553 C 349.296 174.747,348.100 175.487,347.000 176.198 C 344.619 177.737,339.147 180.399,338.358 180.402 C 338.051 180.404,337.260 180.696,336.600 181.052 C 335.940 181.408,334.320 181.926,333.000 182.203 C 331.680 182.480,329.167 183.019,327.414 183.400 C 323.854 184.176,310.911 184.085,308.600 183.269 C 307.940 183.036,306.061 182.552,304.425 182.194 C 302.789 181.836,300.983 181.301,300.411 181.006 C 299.840 180.710,298.710 180.344,297.900 180.192 C 297.091 180.041,296.228 179.674,295.982 179.379 C 295.737 179.083,294.875 178.623,294.068 178.357 C 293.261 178.091,292.150 177.566,291.600 177.191 C 291.050 176.815,289.544 175.809,288.254 174.954 C 286.964 174.099,285.294 172.989,284.543 172.487 C 281.733 170.608,272.800 160.941,272.800 159.779 C 272.800 159.663,272.468 159.080,272.063 158.484 C 270.218 155.773,269.258 154.124,268.985 153.200 C 268.823 152.650,268.355 151.771,267.945 151.246 C 267.535 150.721,267.200 149.904,267.200 149.431 C 267.200 148.957,266.842 147.866,266.404 147.007 C 265.966 146.148,265.501 144.805,265.372 144.022 C 265.243 143.240,264.754 141.070,264.287 139.200 C 263.153 134.662,263.035 123.143,264.084 119.400 C 264.454 118.080,265.024 115.920,265.349 114.600 C 266.445 110.159,268.462 105.305,271.001 101.000 C 271.520 100.120,272.250 98.860,272.623 98.200 C 272.996 97.540,273.594 96.687,273.951 96.304 C 274.308 95.922,275.674 94.296,276.988 92.692 C 278.301 91.088,280.688 88.701,282.292 87.388 C 283.896 86.074,285.522 84.708,285.904 84.351 C 286.287 83.994,287.140 83.396,287.800 83.023 C 288.460 82.650,289.720 81.920,290.600 81.401 C 293.497 79.693,297.796 77.600,298.409 77.600 C 298.741 77.600,299.639 77.264,300.406 76.853 C 301.173 76.443,302.430 75.990,303.200 75.847 C 311.124 74.376,313.088 73.488,311.631 72.031 C 311.174 71.574,310.800 70.882,310.800 70.494 C 310.800 70.106,310.440 69.116,310.000 68.296 C 309.229 66.857,309.200 66.039,309.200 45.575 C 309.200 31.707,309.056 24.079,308.786 23.574 C 308.380 22.815,307.390 22.800,257.861 22.800 L 207.350 22.800 206.193 24.008 C 205.556 24.672,204.847 25.717,204.618 26.329 C 204.386 26.946,196.000 35.459,185.810 45.421 C 175.696 55.310,163.688 67.090,159.126 71.600 C 154.565 76.110,146.476 84.030,141.151 89.200 C 135.826 94.370,128.349 101.697,124.534 105.483 L 117.599 112.365 117.700 290.083 L 117.800 467.800 160.600 468.000 L 203.400 468.200 205.057 469.086 C 210.441 471.966,212.169 478.090,208.800 482.352 C 207.920 483.466,207.200 484.562,207.200 484.788 C 207.200 485.069,237.763 485.200,303.600 485.200 L 400.000 485.200 400.000 242.600 L 400.000 0.000 200.000 0.000 L 0.000 0.000 0.000 242.600 M118.080 23.280 C 117.302 24.058,117.395 82.931,118.175 83.579 C 118.647 83.971,119.698 83.100,124.075 78.685 C 127.004 75.731,130.300 72.548,131.400 71.611 C 132.500 70.675,141.140 62.274,150.600 52.942 C 160.060 43.610,170.555 33.257,173.923 29.935 C 177.668 26.240,179.964 23.682,179.835 23.347 C 179.545 22.591,118.835 22.525,118.080 23.280 M311.800 86.021 C 311.140 86.208,309.616 86.639,308.413 86.980 C 307.210 87.321,305.860 87.601,305.413 87.603 C 304.966 87.604,304.060 87.963,303.400 88.400 C 302.740 88.837,301.920 89.196,301.578 89.197 C 301.235 89.199,300.345 89.650,299.600 90.200 C 298.855 90.750,297.947 91.200,297.583 91.200 C 294.866 91.200,280.800 105.107,280.800 107.793 C 280.800 108.041,280.350 108.855,279.800 109.600 C 279.250 110.345,278.800 111.289,278.800 111.698 C 278.800 112.106,278.501 113.016,278.136 113.720 C 275.679 118.456,274.382 130.956,275.823 136.013 C 276.166 137.216,276.672 139.370,276.947 140.800 C 277.223 142.230,277.733 143.850,278.082 144.400 C 278.431 144.950,278.850 145.850,279.013 146.400 C 279.177 146.950,279.645 147.829,280.055 148.354 C 280.465 148.879,280.800 149.618,280.800 149.997 C 280.800 152.861,292.600 164.620,297.548 166.688 C 298.339 167.018,299.419 167.629,299.947 168.044 C 300.476 168.460,301.251 168.800,301.670 168.800 C 302.089 168.800,303.100 169.133,303.916 169.539 C 309.362 172.253,321.619 173.123,327.536 171.217 C 328.930 170.768,330.555 170.400,331.147 170.400 C 331.738 170.400,332.616 170.124,333.097 169.787 C 333.578 169.450,334.734 168.906,335.666 168.577 C 336.598 168.248,337.639 167.738,337.980 167.443 C 338.321 167.149,339.050 166.797,339.600 166.663 C 341.875 166.107,350.636 158.656,352.743 155.485 C 353.104 154.942,354.075 153.533,354.900 152.354 C 355.725 151.175,356.400 149.964,356.400 149.663 C 356.400 149.362,356.850 148.581,357.400 147.927 C 357.950 147.273,358.400 146.383,358.400 145.949 C 358.400 145.515,358.665 144.647,358.989 144.021 C 361.800 138.585,362.820 125.303,360.841 119.910 C 360.378 118.650,360.000 117.187,360.000 116.658 C 360.000 115.771,358.457 111.796,357.571 110.400 C 357.361 110.070,356.846 109.051,356.425 108.137 C 353.927 102.706,342.488 91.207,339.578 91.201 C 339.235 91.201,338.345 90.750,337.600 90.200 C 336.855 89.650,335.965 89.199,335.622 89.198 C 335.280 89.196,334.460 88.913,333.800 88.568 C 329.482 86.312,316.206 84.775,311.800 86.021 " stroke="none" fill="#84bcf4" fill-rule="evenodd"></path><path id="path2" d="M105.081 3.533 C 100.153 5.123,95.871 12.091,97.832 15.331 C 98.730 16.814,99.281 465.553,98.388 467.223 C 97.980 467.985,97.158 468.000,57.086 468.001 C 17.774 468.003,16.153 468.032,14.967 468.755 C 14.288 469.169,12.938 469.639,11.967 469.801 C 8.542 470.370,6.516 472.130,5.626 475.306 C 4.963 477.674,5.600 482.123,6.782 483.381 C 7.232 483.860,7.600 484.463,7.600 484.721 C 7.600 485.696,204.660 485.378,204.915 484.402 C 205.185 483.372,205.873 483.371,206.200 484.400 C 206.463 485.228,207.200 485.514,207.200 484.788 C 207.200 484.562,207.920 483.466,208.800 482.352 C 212.169 478.090,210.441 471.966,205.057 469.086 L 203.400 468.200 160.600 468.000 L 117.800 467.800 117.700 290.083 L 117.599 112.365 124.534 105.483 C 128.349 101.697,135.826 94.370,141.151 89.200 C 146.476 84.030,154.565 76.110,159.126 71.600 C 163.688 67.090,175.696 55.310,185.810 45.421 C 196.000 35.459,204.386 26.946,204.618 26.329 C 204.847 25.717,205.556 24.672,206.193 24.008 L 207.350 22.800 257.861 22.800 C 307.390 22.800,308.380 22.815,308.786 23.574 C 309.056 24.079,309.200 31.707,309.200 45.575 C 309.200 66.039,309.229 66.857,310.000 68.296 C 310.440 69.116,310.800 70.106,310.800 70.494 C 310.800 70.882,311.174 71.574,311.631 72.031 C 313.088 73.488,311.124 74.376,303.200 75.847 C 302.430 75.990,301.173 76.443,300.406 76.853 C 299.639 77.264,298.741 77.600,298.409 77.600 C 297.796 77.600,293.497 79.693,290.600 81.401 C 289.720 81.920,288.460 82.650,287.800 83.023 C 287.140 83.396,286.287 83.994,285.904 84.351 C 285.522 84.708,283.896 86.074,282.292 87.388 C 280.688 88.701,278.301 91.088,276.988 92.692 C 275.674 94.296,274.308 95.922,273.951 96.304 C 273.594 96.687,272.996 97.540,272.623 98.200 C 272.250 98.860,271.520 100.120,271.001 101.000 C 268.462 105.305,266.445 110.159,265.349 114.600 C 265.024 115.920,264.454 118.080,264.084 119.400 C 263.035 123.143,263.153 134.662,264.287 139.200 C 264.754 141.070,265.243 143.240,265.372 144.022 C 265.501 144.805,265.966 146.148,266.404 147.007 C 266.842 147.866,267.200 148.957,267.200 149.431 C 267.200 149.904,267.535 150.721,267.945 151.246 C 268.355 151.771,268.823 152.650,268.985 153.200 C 269.258 154.124,270.218 155.773,272.063 158.484 C 272.468 159.080,272.800 159.663,272.800 159.779 C 272.800 160.941,281.733 170.608,284.543 172.487 C 285.294 172.989,286.964 174.099,288.254 174.954 C 289.544 175.809,291.050 176.815,291.600 177.191 C 292.150 177.566,293.261 178.091,294.068 178.357 C 294.875 178.623,295.737 179.083,295.982 179.379 C 296.228 179.674,297.091 180.041,297.900 180.192 C 298.710 180.344,299.840 180.710,300.411 181.006 C 300.983 181.301,302.789 181.836,304.425 182.194 C 306.061 182.552,307.940 183.036,308.600 183.269 C 310.911 184.085,323.854 184.176,327.414 183.400 C 329.167 183.019,331.680 182.480,333.000 182.203 C 334.320 181.926,335.940 181.408,336.600 181.052 C 337.260 180.696,338.051 180.404,338.358 180.402 C 339.147 180.399,344.619 177.737,347.000 176.198 C 348.100 175.487,349.296 174.747,349.657 174.553 C 358.496 169.810,369.121 154.611,371.855 142.800 C 372.186 141.370,372.642 139.660,372.870 139.000 C 373.776 136.369,373.775 122.897,372.868 119.195 C 372.411 117.328,371.914 115.080,371.764 114.200 C 371.614 113.320,371.178 111.970,370.795 111.200 C 370.411 110.430,369.962 109.170,369.797 108.400 C 369.631 107.630,369.159 106.571,368.748 106.046 C 368.337 105.521,368.000 104.811,368.000 104.468 C 368.000 104.124,367.577 103.203,367.061 102.422 C 365.947 100.736,363.370 96.861,362.087 94.943 C 358.972 90.285,349.121 82.213,343.600 79.794 C 342.830 79.457,341.930 79.004,341.600 78.787 C 340.095 77.801,336.104 76.464,332.000 75.572 C 330.130 75.165,328.187 74.645,327.681 74.416 C 327.176 74.187,326.315 74.000,325.769 74.000 C 324.403 74.000,324.113 72.957,325.167 71.836 C 327.780 69.054,327.779 69.063,328.010 41.800 C 328.207 18.485,328.266 16.889,328.991 15.144 L 329.762 13.287 328.653 10.544 C 327.537 7.787,327.169 7.391,323.482 4.989 L 321.964 4.000 217.666 4.000 C 126.247 4.000,113.084 3.926,111.065 3.400 C 108.351 2.693,107.635 2.709,105.081 3.533 M179.835 23.347 C 179.964 23.682,177.668 26.240,173.923 29.935 C 170.555 33.257,160.060 43.610,150.600 52.942 C 141.140 62.274,132.500 70.675,131.400 71.611 C 130.300 72.548,127.004 75.731,124.075 78.685 C 119.698 83.100,118.647 83.971,118.175 83.579 C 117.395 82.931,117.302 24.058,118.080 23.280 C 118.835 22.525,179.545 22.591,179.835 23.347 M323.689 74.292 C 324.420 74.942,326.184 75.386,330.405 75.985 C 331.838 76.188,333.818 76.721,334.805 77.168 C 335.792 77.616,336.975 77.986,337.434 77.991 C 338.354 78.001,344.904 81.268,347.356 82.939 C 348.212 83.523,349.096 84.000,349.322 84.000 C 349.548 84.000,350.018 84.265,350.366 84.589 C 350.715 84.913,352.350 86.358,354.000 87.800 C 357.727 91.056,362.584 96.475,363.681 98.600 C 364.136 99.480,364.638 100.290,364.797 100.400 C 365.439 100.843,369.174 108.453,369.436 109.854 C 369.591 110.679,370.033 111.905,370.418 112.577 C 370.803 113.250,371.244 115.044,371.398 116.566 C 371.552 118.087,371.941 120.157,372.262 121.166 C 373.208 124.136,373.378 130.850,372.607 134.800 C 372.242 136.670,371.768 139.459,371.553 140.998 C 371.339 142.538,370.908 144.186,370.597 144.661 C 370.285 145.137,369.816 146.397,369.553 147.463 C 369.128 149.193,367.777 152.360,366.764 154.000 C 366.561 154.330,366.178 155.050,365.913 155.600 C 365.648 156.150,365.019 157.109,364.516 157.731 C 364.012 158.353,363.600 159.042,363.600 159.262 C 363.600 161.247,352.309 172.409,348.549 174.142 C 347.861 174.459,347.173 174.919,347.021 175.165 C 346.870 175.411,346.173 175.876,345.473 176.198 C 344.773 176.520,343.930 176.949,343.600 177.152 C 342.036 178.110,338.749 179.546,337.542 179.798 C 336.804 179.952,335.786 180.341,335.279 180.662 C 334.773 180.983,332.703 181.497,330.679 181.803 C 328.656 182.110,326.370 182.587,325.600 182.863 C 323.732 183.534,314.866 183.544,311.800 182.879 C 310.480 182.593,308.140 182.168,306.600 181.935 C 305.060 181.701,303.162 181.185,302.381 180.788 C 301.601 180.392,300.251 179.945,299.381 179.796 C 298.512 179.647,297.312 179.182,296.716 178.763 C 296.120 178.343,295.400 177.993,295.116 177.984 C 294.832 177.976,293.610 177.352,292.400 176.597 C 291.190 175.843,289.518 174.852,288.683 174.396 C 287.849 173.940,286.859 173.300,286.483 172.974 C 286.108 172.648,284.540 171.302,283.000 169.982 C 281.460 168.662,279.063 166.281,277.674 164.691 C 276.285 163.101,274.800 161.415,274.374 160.944 C 273.948 160.473,273.600 159.913,273.600 159.699 C 273.600 159.486,273.123 158.612,272.539 157.756 C 270.926 155.389,267.600 148.765,267.600 147.918 C 267.600 147.506,267.261 146.500,266.848 145.684 C 266.434 144.868,265.969 143.210,265.815 142.000 C 265.661 140.790,265.173 138.270,264.731 136.400 C 263.852 132.686,263.880 125.454,264.788 121.400 C 265.035 120.300,265.406 118.227,265.614 116.793 C 265.821 115.360,266.353 113.476,266.796 112.609 C 267.238 111.741,267.600 110.666,267.600 110.221 C 267.600 109.458,268.992 106.212,270.267 104.000 C 270.584 103.450,271.093 102.446,271.399 101.768 C 271.704 101.091,272.234 100.304,272.577 100.019 C 272.920 99.735,273.200 99.261,273.200 98.966 C 273.200 97.116,286.721 83.600,288.572 83.600 C 288.863 83.600,289.335 83.320,289.619 82.977 C 289.904 82.634,290.691 82.104,291.368 81.799 C 292.046 81.493,293.050 80.984,293.600 80.667 C 295.745 79.430,299.047 78.000,299.759 78.000 C 300.169 78.000,301.067 77.665,301.753 77.255 C 302.440 76.845,304.603 76.295,306.573 76.030 C 310.330 75.525,312.288 74.900,313.069 73.958 C 313.751 73.136,322.704 73.417,323.689 74.292 M312.000 85.164 C 310.790 85.332,309.131 85.768,308.313 86.134 C 307.495 86.501,306.314 86.800,305.689 86.800 C 305.064 86.800,302.774 87.700,300.600 88.800 C 298.426 89.900,296.489 90.800,296.294 90.800 C 294.029 90.800,280.400 104.536,280.400 106.819 C 280.400 107.189,280.060 107.924,279.645 108.451 C 278.823 109.497,277.006 114.069,275.534 118.800 C 274.187 123.128,274.186 135.431,275.533 138.715 C 276.010 139.878,276.400 141.288,276.400 141.849 C 276.400 143.278,280.918 152.346,283.030 155.156 C 288.390 162.286,299.031 169.817,305.386 170.979 C 306.259 171.138,307.519 171.559,308.186 171.915 C 310.241 173.009,325.136 173.140,327.800 172.088 C 328.900 171.653,330.586 171.166,331.546 171.006 C 333.059 170.753,336.067 169.520,338.000 168.359 C 338.330 168.161,339.500 167.575,340.600 167.058 C 345.534 164.736,355.388 154.851,356.727 150.881 C 356.971 150.156,357.538 149.097,357.986 148.527 C 358.434 147.958,358.800 147.319,358.800 147.107 C 358.800 146.894,359.069 146.154,359.397 145.460 C 359.726 144.767,360.266 143.255,360.597 142.100 C 360.929 140.945,361.470 139.061,361.800 137.913 C 362.751 134.606,362.635 121.557,361.636 119.356 C 361.225 118.452,360.757 116.922,360.595 115.956 C 358.737 104.863,344.045 90.068,331.800 86.957 C 330.700 86.678,329.003 86.158,328.029 85.802 C 326.007 85.063,315.691 84.653,312.000 85.164 M327.810 86.771 C 330.445 87.415,333.140 88.223,333.800 88.568 C 334.460 88.913,335.280 89.196,335.622 89.198 C 335.965 89.199,336.855 89.650,337.600 90.200 C 338.345 90.750,339.235 91.201,339.578 91.201 C 342.488 91.207,353.927 102.706,356.425 108.137 C 356.846 109.051,357.361 110.070,357.571 110.400 C 358.457 111.796,360.000 115.771,360.000 116.658 C 360.000 117.187,360.378 118.650,360.841 119.910 C 362.820 125.303,361.800 138.585,358.989 144.021 C 358.665 144.647,358.400 145.515,358.400 145.949 C 358.400 146.383,357.950 147.273,357.400 147.927 C 356.850 148.581,356.400 149.362,356.400 149.663 C 356.400 149.964,355.725 151.175,354.900 152.354 C 354.075 153.533,353.104 154.942,352.743 155.485 C 350.636 158.656,341.875 166.107,339.600 166.663 C 339.050 166.797,338.321 167.149,337.980 167.443 C 337.639 167.738,336.598 168.248,335.666 168.577 C 334.734 168.906,333.578 169.450,333.097 169.787 C 332.616 170.124,331.738 170.400,331.147 170.400 C 330.555 170.400,328.930 170.768,327.536 171.217 C 321.619 173.123,309.362 172.253,303.916 169.539 C 303.100 169.133,302.089 168.800,301.670 168.800 C 301.251 168.800,300.476 168.460,299.947 168.044 C 299.419 167.629,298.339 167.018,297.548 166.688 C 292.600 164.620,280.800 152.861,280.800 149.997 C 280.800 149.618,280.465 148.879,280.055 148.354 C 279.645 147.829,279.177 146.950,279.013 146.400 C 278.850 145.850,278.431 144.950,278.082 144.400 C 277.733 143.850,277.223 142.230,276.947 140.800 C 276.672 139.370,276.166 137.216,275.823 136.013 C 274.382 130.956,275.679 118.456,278.136 113.720 C 278.501 113.016,278.800 112.106,278.800 111.698 C 278.800 111.289,279.250 110.345,279.800 109.600 C 280.350 108.855,280.800 108.041,280.800 107.793 C 280.800 105.107,294.866 91.200,297.583 91.200 C 297.947 91.200,298.855 90.750,299.600 90.200 C 300.345 89.650,301.235 89.199,301.578 89.197 C 301.920 89.196,302.740 88.837,303.400 88.400 C 304.060 87.963,304.966 87.604,305.413 87.603 C 305.860 87.601,307.210 87.321,308.413 86.980 C 309.616 86.639,311.140 86.208,311.800 86.021 C 314.787 85.177,322.827 85.553,327.810 86.771 M39.201 469.400 C 39.201 469.655,34.996 469.838,27.600 469.906 C 17.408 469.999,16.000 469.938,16.000 469.400 C 16.000 468.862,17.408 468.801,27.600 468.894 C 34.996 468.962,39.201 469.145,39.201 469.400 M209.935 475.984 C 210.133 477.341,209.619 479.659,209.180 479.388 C 208.579 479.016,208.695 474.699,209.300 474.898 C 209.575 474.989,209.861 475.477,209.935 475.984 " stroke="none" fill="#844404" fill-rule="evenodd"></path></g></svg>