<svg id="svg" version="1.1" xmlns="http://www.w3.org/2000/svg" xmlns:xlink="http://www.w3.org/1999/xlink" width="400" height="485.3080568720379" viewBox="0, 0, 400,485.3080568720379"><g id="svgg"><path id="path0" d="M313.496 75.923 C 312.741 76.836,310.469 77.561,306.881 78.035 C 304.966 78.288,302.732 78.833,301.916 79.247 C 301.100 79.661,300.094 80.000,299.682 80.000 C 298.835 80.000,292.211 83.326,289.844 84.939 C 288.988 85.523,288.104 86.000,287.878 86.000 C 287.652 86.000,287.182 86.265,286.834 86.590 C 286.485 86.914,284.811 88.399,283.113 89.890 C 281.415 91.380,278.937 93.860,277.605 95.400 C 276.274 96.940,274.941 98.470,274.644 98.800 C 274.347 99.130,273.789 100.030,273.404 100.800 C 273.019 101.570,272.472 102.470,272.189 102.800 C 271.100 104.069,268.034 110.552,267.629 112.441 C 267.395 113.531,266.950 114.823,266.640 115.311 C 266.329 115.800,265.869 117.799,265.616 119.754 C 265.363 121.708,264.873 124.408,264.526 125.754 C 263.779 128.656,264.002 135.632,264.925 138.209 C 265.241 139.095,265.630 141.165,265.788 142.809 C 265.945 144.454,266.391 146.350,266.778 147.023 C 267.165 147.695,267.609 148.921,267.764 149.746 C 268.052 151.284,271.525 158.243,272.857 159.954 C 273.266 160.479,273.600 161.095,273.600 161.323 C 273.600 162.889,286.974 176.000,288.572 176.000 C 288.863 176.000,289.347 176.295,289.645 176.655 C 289.944 177.015,290.911 177.642,291.794 178.050 C 292.677 178.457,293.670 178.943,294.000 179.131 C 296.614 180.616,298.867 181.601,299.659 181.604 C 300.177 181.606,301.500 182.050,302.600 182.591 C 303.892 183.227,305.308 183.580,306.600 183.589 C 311.314 183.622,311.706 184.556,311.526 195.332 L 311.400 202.863 309.923 204.132 C 309.110 204.829,307.344 206.210,305.998 207.200 C 304.652 208.190,303.041 209.405,302.418 209.900 C 301.794 210.395,301.168 210.800,301.025 210.800 C 300.882 210.800,299.683 211.700,298.362 212.800 C 297.040 213.900,295.763 214.800,295.525 214.800 C 295.287 214.800,294.682 215.205,294.181 215.700 C 293.680 216.195,292.849 216.907,292.335 217.283 C 291.821 217.658,290.050 218.951,288.400 220.155 C 286.750 221.359,285.040 222.681,284.600 223.093 C 284.160 223.505,282.990 224.371,282.000 225.019 C 281.010 225.666,279.180 227.007,277.933 227.998 C 276.686 228.989,275.008 230.250,274.203 230.800 C 273.398 231.350,272.313 232.160,271.792 232.600 C 271.271 233.040,269.565 234.300,268.001 235.400 C 266.437 236.500,264.192 238.162,263.013 239.094 C 260.714 240.910,255.836 244.558,253.682 246.073 C 250.225 248.504,247.348 250.969,246.842 251.935 C 246.535 252.521,245.950 253.429,245.542 253.954 C 242.200 258.252,249.221 265.359,253.491 262.000 C 254.050 261.560,254.894 261.200,255.367 261.200 C 256.111 261.200,261.324 257.766,263.252 256.005 C 263.617 255.672,265.557 254.230,267.563 252.800 C 269.569 251.370,272.393 249.255,273.839 248.100 C 275.284 246.945,276.609 246.000,276.783 246.000 C 276.958 246.000,278.663 244.740,280.572 243.200 C 282.481 241.660,284.199 240.400,284.388 240.400 C 284.715 240.400,286.005 239.410,287.628 237.914 C 288.038 237.536,289.054 236.796,289.886 236.269 C 290.719 235.742,292.210 234.650,293.200 233.841 C 294.190 233.033,295.360 232.102,295.800 231.772 C 297.502 230.496,299.628 228.958,301.014 228.000 C 301.810 227.450,302.893 226.640,303.421 226.200 C 303.949 225.760,305.028 224.950,305.818 224.400 C 306.608 223.850,307.780 222.981,308.422 222.470 C 311.695 219.858,311.515 216.772,311.560 276.337 L 311.600 328.873 312.500 330.068 C 316.180 334.950,319.729 335.337,323.500 331.267 L 325.600 329.000 325.600 275.529 C 325.600 219.335,325.558 220.800,327.155 220.800 C 327.423 220.800,341.464 232.149,343.400 233.930 C 344.373 234.826,349.598 239.035,352.237 241.049 C 353.295 241.856,354.779 243.118,355.535 243.852 C 356.291 244.586,357.920 245.952,359.155 246.887 C 360.390 247.822,363.200 250.034,365.400 251.803 C 367.600 253.572,369.970 255.465,370.666 256.010 C 371.362 256.554,373.439 258.292,375.280 259.871 C 377.122 261.450,379.162 262.872,379.814 263.032 C 380.466 263.191,381.429 263.655,381.954 264.061 C 386.763 267.787,393.422 259.494,389.216 255.017 C 388.767 254.539,388.399 253.980,388.398 253.774 C 388.395 253.193,385.409 250.331,382.587 248.204 C 381.714 247.546,379.284 245.566,377.187 243.804 C 375.089 242.042,373.109 240.379,372.787 240.109 C 368.085 236.172,359.887 229.599,359.676 229.597 C 359.524 229.595,358.449 228.740,357.287 227.697 C 354.600 225.285,353.581 224.440,338.548 212.173 C 330.901 205.932,326.003 201.662,325.854 201.106 C 325.720 200.607,325.608 196.935,325.605 192.944 C 325.599 183.975,325.478 184.206,330.511 183.598 C 332.650 183.340,334.526 182.868,335.311 182.389 C 336.020 181.957,336.971 181.602,337.424 181.601 C 338.377 181.600,345.412 178.121,347.020 176.855 C 347.618 176.385,348.338 176.000,348.620 176.000 C 349.143 176.000,349.731 175.552,353.340 172.402 C 356.409 169.724,361.147 164.753,361.825 163.500 C 362.153 162.895,362.582 162.400,362.779 162.400 C 362.977 162.400,363.341 161.784,363.589 161.032 C 363.838 160.280,364.312 159.439,364.644 159.164 C 364.975 158.889,365.502 158.109,365.815 157.432 C 366.128 156.754,366.553 155.930,366.759 155.600 C 367.815 153.913,369.119 150.818,369.373 149.400 C 369.530 148.520,369.940 147.364,370.283 146.832 C 370.627 146.300,371.061 144.680,371.249 143.232 C 371.437 141.784,371.792 139.700,372.039 138.600 C 372.826 135.093,372.952 125.868,372.242 123.695 C 371.902 122.653,371.505 120.540,371.360 119.000 C 371.209 117.401,370.690 115.326,370.148 114.161 C 369.627 113.040,369.200 111.848,369.200 111.512 C 369.200 110.718,365.612 103.650,364.476 102.205 C 363.994 101.593,363.600 100.917,363.600 100.704 C 363.600 98.799,350.148 85.600,348.207 85.600 C 347.941 85.600,347.402 85.245,347.009 84.810 C 346.616 84.376,345.913 83.901,345.447 83.755 C 344.981 83.609,344.171 83.155,343.646 82.745 C 343.121 82.335,342.381 82.000,342.000 82.000 C 341.619 82.000,340.848 81.638,340.285 81.196 C 339.723 80.753,338.350 80.218,337.234 80.006 C 336.118 79.795,334.776 79.340,334.251 78.997 C 333.727 78.653,331.971 78.199,330.349 77.987 C 325.596 77.366,324.642 77.140,323.860 76.451 C 322.856 75.568,314.157 75.125,313.496 75.923 M329.394 87.922 C 330.271 88.405,331.441 88.802,331.994 88.804 C 332.547 88.806,333.900 89.250,335.000 89.791 C 336.100 90.332,337.203 90.781,337.451 90.787 C 337.699 90.794,338.118 91.061,338.383 91.380 C 338.648 91.698,339.518 92.175,340.317 92.439 C 347.207 94.712,359.741 110.257,360.695 117.710 C 360.814 118.640,361.257 120.088,361.679 120.930 C 363.194 123.949,363.039 139.176,361.467 141.680 C 361.150 142.186,360.766 143.320,360.615 144.200 C 360.352 145.727,359.349 148.247,358.145 150.400 C 357.838 150.950,357.144 152.300,356.603 153.400 C 352.789 161.158,339.254 171.795,331.654 173.007 C 330.693 173.161,329.163 173.615,328.254 174.016 C 325.898 175.057,309.555 174.987,307.941 173.929 C 307.378 173.560,306.216 173.137,305.358 172.989 C 302.689 172.528,294.438 168.206,291.200 165.573 C 286.424 161.689,280.775 155.094,280.189 152.716 C 280.042 152.120,279.678 151.431,279.381 151.184 C 279.084 150.938,278.629 150.075,278.370 149.268 C 278.111 148.461,277.646 147.510,277.337 147.155 C 277.029 146.801,276.613 145.509,276.414 144.285 C 276.215 143.062,275.725 141.462,275.326 140.730 C 274.119 138.519,274.254 122.970,275.504 120.249 C 275.997 119.176,276.402 117.916,276.404 117.449 C 276.406 116.982,276.850 115.700,277.391 114.600 C 277.932 113.500,278.381 112.399,278.387 112.154 C 278.394 111.909,278.735 111.279,279.145 110.754 C 279.555 110.229,280.030 109.350,280.201 108.800 C 281.581 104.369,291.654 94.695,297.908 91.795 C 299.609 91.007,301.630 90.034,302.400 89.633 C 303.170 89.232,304.682 88.790,305.760 88.651 C 306.837 88.512,307.951 88.207,308.234 87.972 C 310.076 86.443,326.640 86.403,329.394 87.922 M16.202 471.197 C 16.063 471.422,16.188 471.697,16.480 471.809 C 17.502 472.202,38.798 471.813,38.900 471.400 C 39.039 470.842,16.546 470.641,16.202 471.197 M208.800 478.800 C 208.800 479.900,208.980 480.800,209.200 480.800 C 209.420 480.800,209.600 479.900,209.600 478.800 C 209.600 477.700,209.420 476.800,209.200 476.800 C 208.980 476.800,208.800 477.700,208.800 478.800 " stroke="none" fill="#090909" fill-rule="evenodd"></path><path id="path1" d="M0.000 242.600 L 0.000 485.200 3.000 485.200 C 4.650 485.200,6.000 485.099,6.000 484.977 C 6.000 484.854,5.805 483.493,5.566 481.954 C 4.708 476.425,6.993 472.476,11.430 471.821 C 12.514 471.661,13.961 471.186,14.647 470.765 C 15.854 470.025,17.224 470.000,56.933 470.000 C 97.157 470.000,97.980 469.985,98.388 469.223 C 99.248 467.615,98.734 18.770,97.870 17.451 C 96.201 14.904,97.837 10.984,102.377 6.650 C 103.350 5.721,106.016 5.068,108.400 5.175 C 109.390 5.219,157.810 5.378,216.000 5.528 L 321.800 5.800 323.062 6.700 C 323.756 7.195,324.476 7.607,324.662 7.616 C 327.558 7.755,330.301 14.616,328.791 17.944 C 328.031 19.619,328.000 20.630,328.000 43.625 L 328.000 67.564 327.037 70.217 C 326.507 71.676,325.675 73.295,325.186 73.814 C 324.086 74.986,324.398 76.000,325.859 76.000 C 326.455 76.000,327.496 76.173,328.172 76.385 C 328.847 76.596,330.750 77.120,332.400 77.549 C 345.108 80.851,355.490 87.893,363.435 98.600 C 364.571 100.132,366.000 102.438,366.000 102.740 C 366.000 102.908,366.450 103.655,367.000 104.400 C 367.550 105.145,368.000 106.008,368.000 106.316 C 368.000 106.624,368.353 107.372,368.784 107.978 C 369.216 108.584,369.738 109.831,369.944 110.748 C 370.150 111.666,370.584 112.821,370.909 113.317 C 371.233 113.812,371.630 115.024,371.791 116.009 C 371.951 116.994,372.423 119.240,372.838 121.000 C 373.656 124.461,373.869 134.644,373.207 138.600 C 372.531 142.634,371.324 147.433,370.671 148.680 C 370.302 149.384,370.000 150.265,370.000 150.638 C 370.000 151.340,367.875 155.803,366.208 158.600 C 365.684 159.480,364.949 160.740,364.575 161.400 C 362.629 164.836,351.289 176.400,349.867 176.400 C 349.764 176.400,348.537 177.120,347.140 178.001 C 345.743 178.881,344.150 179.781,343.600 180.001 C 343.050 180.221,342.285 180.580,341.900 180.800 C 340.636 181.522,339.824 181.876,338.000 182.497 C 337.010 182.835,335.660 183.304,335.000 183.539 C 334.340 183.774,332.450 184.265,330.800 184.629 C 326.020 185.684,326.400 184.931,326.400 193.355 L 326.400 200.682 328.700 202.730 C 329.965 203.856,331.360 205.114,331.800 205.526 C 332.240 205.938,333.474 206.938,334.543 207.747 C 336.996 209.605,342.345 213.902,343.400 214.862 C 344.077 215.478,359.041 227.698,362.538 230.491 C 363.164 230.991,364.154 231.819,364.738 232.332 C 365.322 232.844,366.700 233.946,367.800 234.781 C 368.900 235.615,370.294 236.762,370.898 237.328 C 371.502 237.894,372.245 238.502,372.549 238.679 C 372.853 238.856,373.979 239.765,375.051 240.699 C 376.123 241.634,379.340 244.284,382.200 246.589 C 390.022 252.893,392.079 255.987,391.244 260.194 C 390.315 264.877,384.894 267.477,381.548 264.845 C 381.020 264.429,379.960 263.916,379.193 263.704 C 378.426 263.492,377.034 262.633,376.099 261.794 C 375.165 260.956,373.965 259.984,373.432 259.635 C 372.415 258.969,367.978 255.370,358.600 247.603 C 355.520 245.053,352.192 242.344,351.204 241.583 C 350.216 240.822,349.226 240.003,349.004 239.762 C 348.494 239.210,342.509 234.335,339.600 232.103 C 338.390 231.175,336.590 229.672,335.600 228.764 C 334.610 227.856,333.170 226.644,332.400 226.070 C 331.630 225.496,330.149 224.333,329.109 223.484 C 328.070 222.635,327.035 222.055,326.809 222.194 C 326.534 222.365,326.400 239.823,326.400 275.720 L 326.400 328.993 324.938 331.116 C 321.611 335.947,314.657 336.484,312.821 332.052 C 312.549 331.395,311.983 330.547,311.563 330.167 C 310.820 329.494,310.800 328.121,310.794 276.638 C 310.790 245.706,310.637 223.562,310.425 223.226 C 310.123 222.750,309.802 222.835,308.531 223.723 C 304.539 226.512,301.775 228.508,299.988 229.890 C 298.914 230.720,297.384 231.850,296.587 232.400 C 295.791 232.950,294.701 233.760,294.166 234.200 C 293.631 234.640,292.519 235.499,291.696 236.110 C 290.873 236.720,289.210 237.980,288.000 238.910 C 286.790 239.839,284.900 241.221,283.800 241.979 C 282.700 242.737,280.862 244.087,279.715 244.979 C 278.568 245.871,276.540 247.410,275.209 248.400 C 270.831 251.655,269.808 252.427,269.116 252.999 C 268.740 253.310,267.539 254.179,266.447 254.930 C 265.356 255.681,263.683 256.921,262.731 257.685 C 260.041 259.844,256.589 262.000,255.822 262.000 C 255.439 262.000,254.669 262.360,254.109 262.800 C 250.681 265.497,244.841 262.680,243.978 257.914 C 243.162 253.402,245.279 250.813,256.400 242.720 C 264.429 236.878,267.302 234.755,271.990 231.200 C 273.295 230.210,275.014 228.950,275.809 228.400 C 276.604 227.850,278.404 226.500,279.809 225.400 C 281.215 224.300,283.011 222.950,283.801 222.400 C 284.590 221.850,286.305 220.590,287.610 219.600 C 290.750 217.219,293.816 214.931,298.228 211.676 C 300.224 210.204,302.384 208.595,303.028 208.100 C 303.673 207.605,305.190 206.494,306.400 205.632 C 307.610 204.769,309.099 203.588,309.708 203.007 L 310.817 201.952 310.708 194.076 L 310.600 186.201 309.200 185.535 C 308.430 185.169,306.360 184.510,304.600 184.070 C 300.021 182.925,296.855 181.839,295.200 180.846 C 294.870 180.648,294.150 180.287,293.600 180.045 C 287.767 177.478,280.501 171.545,275.300 165.104 C 273.925 163.401,272.800 161.918,272.800 161.808 C 272.800 161.698,271.990 160.345,271.000 158.800 C 270.010 157.255,269.200 155.748,269.200 155.450 C 269.200 155.152,268.838 154.448,268.396 153.886 C 267.955 153.325,267.474 152.265,267.329 151.532 C 267.184 150.800,266.647 149.300,266.136 148.200 C 265.626 147.100,265.206 145.790,265.204 145.289 C 265.202 144.789,264.806 142.899,264.324 141.089 C 263.159 136.711,263.017 125.193,264.083 121.400 C 264.454 120.080,265.024 117.920,265.349 116.600 C 266.123 113.464,267.076 110.673,268.220 108.200 C 268.728 107.100,269.249 105.930,269.378 105.600 C 269.507 105.270,270.144 104.190,270.793 103.200 C 271.442 102.210,272.330 100.770,272.767 100.000 C 274.766 96.478,285.865 85.200,287.333 85.200 C 287.436 85.200,288.663 84.480,290.060 83.599 C 291.457 82.719,293.050 81.819,293.600 81.599 C 294.150 81.380,294.870 81.019,295.200 80.797 C 295.951 80.293,296.911 79.886,299.200 79.104 C 300.190 78.766,301.540 78.305,302.200 78.080 C 302.860 77.854,304.750 77.369,306.400 77.000 C 312.951 75.537,313.286 75.337,311.600 73.893 C 311.160 73.516,310.800 72.845,310.800 72.402 C 310.800 71.960,310.440 70.925,310.000 70.104 C 309.229 68.665,309.200 67.848,309.200 47.186 C 309.200 31.055,309.081 25.641,308.720 25.280 C 308.352 24.912,296.497 24.800,257.795 24.800 L 207.350 24.800 206.193 26.008 C 205.556 26.672,204.847 27.707,204.618 28.308 C 204.388 28.909,199.970 33.516,194.800 38.548 C 189.630 43.579,177.305 55.639,167.411 65.348 C 157.517 75.056,145.464 86.870,140.626 91.600 C 135.789 96.330,128.629 103.356,124.715 107.212 L 117.600 114.225 117.600 291.480 C 117.600 388.970,117.709 469.019,117.843 469.367 C 118.062 469.939,122.166 470.000,160.193 470.000 C 209.097 470.000,205.235 469.640,208.977 474.543 C 210.749 476.864,211.074 481.436,209.600 483.309 C 209.160 483.869,208.800 484.523,208.800 484.763 C 208.800 485.078,235.549 485.200,304.400 485.200 L 400.000 485.200 400.000 242.600 L 400.000 0.000 200.000 0.000 L 0.000 0.000 0.000 242.600 M117.843 25.433 C 117.526 26.259,117.526 84.141,117.843 84.967 C 118.285 86.119,118.972 85.641,123.607 80.961 C 126.133 78.409,129.460 75.228,131.000 73.891 C 136.409 69.194,180.085 25.661,179.819 25.231 C 179.333 24.444,118.146 24.644,117.843 25.433 M310.352 88.360 C 309.336 88.758,307.614 89.201,306.526 89.346 C 305.395 89.496,303.055 90.376,301.058 91.404 C 299.138 92.392,297.384 93.200,297.161 93.200 C 294.599 93.200,282.798 105.109,280.909 109.600 C 280.585 110.370,280.084 111.270,279.795 111.600 C 276.643 115.200,274.115 131.987,275.818 138.013 C 276.158 139.216,276.664 141.280,276.943 142.600 C 277.221 143.920,278.203 146.536,279.125 148.414 C 280.046 150.292,280.800 151.974,280.800 152.152 C 280.800 152.330,281.567 153.493,282.504 154.738 C 283.441 155.982,284.509 157.450,284.877 158.000 C 286.069 159.780,288.937 162.600,291.611 164.624 C 295.625 167.661,296.535 168.263,297.608 168.591 C 298.153 168.758,298.915 169.171,299.299 169.508 C 302.091 171.960,314.773 174.667,317.129 173.315 C 318.256 172.668,318.444 172.668,320.497 173.315 C 323.197 174.166,324.801 174.180,326.713 173.370 C 327.531 173.023,329.238 172.568,330.506 172.360 C 331.775 172.151,333.395 171.626,334.106 171.192 C 334.818 170.758,335.693 170.402,336.051 170.401 C 336.409 170.401,336.918 170.139,337.183 169.820 C 337.448 169.502,338.325 169.025,339.132 168.761 C 343.621 167.294,356.400 154.634,356.400 151.655 C 356.400 151.323,356.733 150.680,357.140 150.226 C 360.879 146.057,363.198 128.314,360.842 121.910 C 360.379 120.650,359.994 119.120,359.987 118.510 C 359.981 117.899,359.532 116.500,358.991 115.400 C 358.450 114.300,358.006 113.197,358.004 112.949 C 358.002 112.701,357.739 112.282,357.420 112.017 C 357.102 111.752,356.625 110.875,356.361 110.068 C 354.957 105.772,342.644 93.208,339.829 93.199 C 339.593 93.198,338.770 92.803,338.000 92.321 C 331.766 88.422,315.977 86.160,310.352 88.360 " stroke="none" fill="#84bcf4" fill-rule="evenodd"></path><path id="path2" d="M106.400 5.181 C 106.070 5.405,105.320 5.591,104.734 5.594 C 100.867 5.616,95.824 14.328,97.870 17.451 C 98.734 18.770,99.248 467.615,98.388 469.223 C 97.980 469.985,97.157 470.000,56.933 470.000 C 17.224 470.000,15.854 470.025,14.647 470.765 C 13.961 471.186,12.514 471.661,11.430 471.821 C 6.993 472.476,4.708 476.425,5.566 481.954 C 5.805 483.493,6.000 484.854,6.000 484.977 C 6.000 485.099,51.630 485.200,107.400 485.200 C 180.444 485.200,208.800 485.078,208.800 484.763 C 208.800 484.523,209.160 483.869,209.600 483.309 C 211.074 481.436,210.749 476.864,208.977 474.543 C 205.235 469.640,209.097 470.000,160.193 470.000 C 122.166 470.000,118.062 469.939,117.843 469.367 C 117.709 469.019,117.600 388.970,117.600 291.480 L 117.600 114.225 124.715 107.212 C 128.629 103.356,135.789 96.330,140.626 91.600 C 145.464 86.870,157.517 75.056,167.411 65.348 C 177.305 55.639,189.630 43.579,194.800 38.548 C 199.970 33.516,204.388 28.909,204.618 28.308 C 204.847 27.707,205.556 26.672,206.193 26.008 L 207.350 24.800 257.795 24.800 C 296.497 24.800,308.352 24.912,308.720 25.280 C 309.081 25.641,309.200 31.055,309.200 47.186 C 309.200 67.848,309.229 68.665,310.000 70.104 C 310.440 70.925,310.800 71.960,310.800 72.402 C 310.800 72.845,311.160 73.516,311.600 73.893 C 313.286 75.337,312.951 75.537,306.400 77.000 C 304.750 77.369,302.860 77.854,302.200 78.080 C 301.540 78.305,300.190 78.766,299.200 79.104 C 296.911 79.886,295.951 80.293,295.200 80.797 C 294.870 81.019,294.150 81.380,293.600 81.599 C 293.050 81.819,291.457 82.719,290.060 83.599 C 288.663 84.480,287.436 85.200,287.333 85.200 C 285.865 85.200,274.766 96.478,272.767 100.000 C 272.330 100.770,271.442 102.210,270.793 103.200 C 270.144 104.190,269.507 105.270,269.378 105.600 C 269.249 105.930,268.728 107.100,268.220 108.200 C 267.076 110.673,266.123 113.464,265.349 116.600 C 265.024 117.920,264.454 120.080,264.083 121.400 C 263.017 125.193,263.159 136.711,264.324 141.089 C 264.806 142.899,265.202 144.789,265.204 145.289 C 265.206 145.790,265.626 147.100,266.136 148.200 C 266.647 149.300,267.184 150.800,267.329 151.532 C 267.474 152.265,267.955 153.325,268.396 153.886 C 268.838 154.448,269.200 155.152,269.200 155.450 C 269.200 155.748,270.010 157.255,271.000 158.800 C 271.990 160.345,272.800 161.698,272.800 161.808 C 272.800 163.584,283.738 174.256,288.600 177.222 C 291.397 178.929,292.574 179.593,293.600 180.045 C 294.150 180.287,294.870 180.648,295.200 180.846 C 296.855 181.839,300.021 182.925,304.600 184.070 C 306.360 184.510,308.430 185.169,309.200 185.535 L 310.600 186.201 310.708 194.076 L 310.817 201.952 309.708 203.007 C 309.099 203.588,307.610 204.769,306.400 205.632 C 305.190 206.494,303.673 207.605,303.028 208.100 C 302.384 208.595,300.224 210.204,298.228 211.676 C 293.816 214.931,290.750 217.219,287.610 219.600 C 286.305 220.590,284.590 221.850,283.801 222.400 C 283.011 222.950,281.215 224.300,279.809 225.400 C 278.404 226.500,276.604 227.850,275.809 228.400 C 275.014 228.950,273.295 230.210,271.990 231.200 C 267.302 234.755,264.429 236.878,256.400 242.720 C 247.430 249.247,246.308 250.323,244.182 254.435 C 241.482 259.656,249.509 266.419,254.109 262.800 C 254.669 262.360,255.439 262.000,255.822 262.000 C 256.589 262.000,260.041 259.844,262.731 257.685 C 263.683 256.921,265.356 255.681,266.447 254.930 C 267.539 254.179,268.740 253.310,269.116 252.999 C 269.808 252.427,270.831 251.655,275.209 248.400 C 276.540 247.410,278.568 245.871,279.715 244.979 C 280.862 244.087,282.700 242.737,283.800 241.979 C 284.900 241.221,286.790 239.839,288.000 238.910 C 289.210 237.980,290.873 236.720,291.696 236.110 C 292.519 235.499,293.631 234.640,294.166 234.200 C 294.701 233.760,295.791 232.950,296.587 232.400 C 297.384 231.850,298.914 230.720,299.988 229.890 C 301.775 228.508,304.539 226.512,308.531 223.723 C 309.802 222.835,310.123 222.750,310.425 223.226 C 310.637 223.562,310.790 245.706,310.794 276.638 C 310.800 328.121,310.820 329.494,311.563 330.167 C 311.983 330.547,312.549 331.395,312.821 332.052 C 314.657 336.484,321.611 335.947,324.938 331.116 L 326.400 328.993 326.400 275.720 C 326.400 239.823,326.534 222.365,326.809 222.194 C 327.035 222.055,328.070 222.635,329.109 223.484 C 330.149 224.333,331.630 225.496,332.400 226.070 C 333.170 226.644,334.610 227.856,335.600 228.764 C 336.590 229.672,338.390 231.175,339.600 232.103 C 342.509 234.335,348.494 239.210,349.004 239.762 C 349.226 240.003,350.216 240.822,351.204 241.583 C 352.192 242.344,355.520 245.053,358.600 247.603 C 367.978 255.370,372.415 258.969,373.432 259.635 C 373.965 259.984,375.165 260.956,376.099 261.794 C 377.034 262.633,378.426 263.492,379.193 263.704 C 379.960 263.916,381.020 264.429,381.548 264.845 C 384.894 267.477,390.315 264.877,391.244 260.194 C 392.079 255.987,390.022 252.893,382.200 246.589 C 379.340 244.284,376.123 241.634,375.051 240.699 C 373.979 239.765,372.853 238.856,372.549 238.679 C 372.245 238.502,371.502 237.894,370.898 237.328 C 370.294 236.762,368.900 235.615,367.800 234.781 C 366.700 233.946,365.322 232.844,364.738 232.332 C 364.154 231.819,363.164 230.991,362.538 230.491 C 359.041 227.698,344.077 215.478,343.400 214.862 C 342.345 213.902,336.996 209.605,334.543 207.747 C 333.474 206.938,332.240 205.938,331.800 205.526 C 331.360 205.114,329.965 203.856,328.700 202.730 L 326.400 200.682 326.400 193.355 C 326.400 184.931,326.020 185.684,330.800 184.629 C 332.450 184.265,334.340 183.774,335.000 183.539 C 335.660 183.304,337.010 182.835,338.000 182.497 C 339.978 181.823,340.604 181.554,341.800 180.863 C 342.240 180.608,343.050 180.221,343.600 180.001 C 344.150 179.781,345.743 178.881,347.140 178.001 C 348.537 177.120,349.764 176.400,349.867 176.400 C 351.289 176.400,362.629 164.836,364.575 161.400 C 364.949 160.740,365.684 159.480,366.208 158.600 C 367.875 155.803,370.000 151.340,370.000 150.638 C 370.000 150.265,370.302 149.384,370.671 148.680 C 371.324 147.433,372.531 142.634,373.207 138.600 C 373.869 134.644,373.656 124.461,372.838 121.000 C 372.423 119.240,371.951 116.994,371.791 116.009 C 371.630 115.024,371.233 113.812,370.909 113.317 C 370.584 112.821,370.150 111.666,369.944 110.748 C 369.738 109.831,369.216 108.584,368.784 107.978 C 368.353 107.372,368.000 106.624,368.000 106.316 C 368.000 106.008,367.550 105.145,367.000 104.400 C 366.450 103.655,366.000 102.908,366.000 102.740 C 366.000 102.438,364.571 100.132,363.435 98.600 C 355.490 87.893,345.108 80.851,332.400 77.549 C 330.750 77.120,328.847 76.596,328.172 76.385 C 327.496 76.173,326.455 76.000,325.859 76.000 C 324.398 76.000,324.086 74.986,325.186 73.814 C 325.675 73.295,326.507 71.676,327.037 70.217 L 328.000 67.564 328.000 43.625 C 328.000 20.630,328.031 19.619,328.791 17.944 C 330.301 14.616,327.558 7.755,324.662 7.616 C 324.476 7.607,323.756 7.195,323.062 6.700 L 321.800 5.800 216.200 5.553 C 158.120 5.417,109.790 5.186,108.800 5.040 C 107.769 4.888,106.744 4.949,106.400 5.181 M179.819 25.231 C 180.085 25.661,136.409 69.194,131.000 73.891 C 129.460 75.228,126.133 78.409,123.607 80.961 C 118.972 85.641,118.285 86.119,117.843 84.967 C 117.526 84.141,117.526 26.259,117.843 25.433 C 118.146 24.644,179.333 24.444,179.819 25.231 M323.860 76.451 C 324.642 77.140,325.596 77.366,330.349 77.987 C 331.971 78.199,333.727 78.653,334.251 78.997 C 334.776 79.340,336.118 79.795,337.234 80.006 C 338.350 80.218,339.723 80.753,340.285 81.196 C 340.848 81.638,341.619 82.000,342.000 82.000 C 342.381 82.000,343.121 82.335,343.646 82.745 C 344.171 83.155,344.981 83.609,345.447 83.755 C 345.913 83.901,346.616 84.376,347.009 84.810 C 347.402 85.245,347.941 85.600,348.207 85.600 C 350.148 85.600,363.600 98.799,363.600 100.704 C 363.600 100.917,363.994 101.593,364.476 102.205 C 365.612 103.650,369.200 110.718,369.200 111.512 C 369.200 111.848,369.627 113.040,370.148 114.161 C 370.690 115.326,371.209 117.401,371.360 119.000 C 371.505 120.540,371.902 122.653,372.242 123.695 C 372.952 125.868,372.826 135.093,372.039 138.600 C 371.792 139.700,371.437 141.784,371.249 143.232 C 371.061 144.680,370.627 146.300,370.283 146.832 C 369.940 147.364,369.530 148.520,369.373 149.400 C 369.119 150.818,367.815 153.913,366.759 155.600 C 366.553 155.930,366.128 156.754,365.815 157.432 C 365.502 158.109,364.975 158.889,364.644 159.164 C 364.312 159.439,363.838 160.280,363.589 161.032 C 363.341 161.784,362.977 162.400,362.779 162.400 C 362.582 162.400,362.153 162.895,361.825 163.500 C 361.147 164.753,356.409 169.724,353.340 172.402 C 349.731 175.552,349.143 176.000,348.620 176.000 C 348.338 176.000,347.618 176.385,347.020 176.855 C 345.412 178.121,338.377 181.600,337.424 181.601 C 336.971 181.602,336.020 181.957,335.311 182.389 C 334.526 182.868,332.650 183.340,330.511 183.598 C 325.478 184.206,325.599 183.975,325.605 192.944 C 325.608 196.935,325.720 200.607,325.854 201.106 C 326.003 201.662,330.901 205.932,338.548 212.173 C 353.581 224.440,354.600 225.285,357.287 227.697 C 358.449 228.740,359.524 229.595,359.676 229.597 C 359.887 229.599,368.085 236.172,372.787 240.109 C 373.109 240.379,375.089 242.042,377.187 243.804 C 379.284 245.566,381.714 247.546,382.587 248.204 C 385.409 250.331,388.395 253.193,388.398 253.774 C 388.399 253.980,388.767 254.539,389.216 255.017 C 393.422 259.494,386.763 267.787,381.954 264.061 C 381.429 263.655,380.466 263.191,379.814 263.032 C 379.162 262.872,377.122 261.450,375.280 259.871 C 373.439 258.292,371.362 256.554,370.666 256.010 C 369.970 255.465,367.600 253.572,365.400 251.803 C 363.200 250.034,360.390 247.822,359.155 246.887 C 357.920 245.952,356.291 244.586,355.535 243.852 C 354.779 243.118,353.295 241.856,352.237 241.049 C 349.598 239.035,344.373 234.826,343.400 233.930 C 341.464 232.149,327.423 220.800,327.155 220.800 C 325.558 220.800,325.600 219.335,325.600 275.529 L 325.600 329.000 323.500 331.267 C 319.729 335.337,316.180 334.950,312.500 330.068 L 311.600 328.873 311.560 276.337 C 311.515 216.772,311.695 219.858,308.422 222.470 C 307.780 222.981,306.608 223.850,305.818 224.400 C 305.028 224.950,303.949 225.760,303.421 226.200 C 302.893 226.640,301.810 227.450,301.014 228.000 C 299.628 228.958,297.502 230.496,295.800 231.772 C 295.360 232.102,294.190 233.033,293.200 233.841 C 292.210 234.650,290.719 235.742,289.886 236.269 C 289.054 236.796,288.038 237.536,287.628 237.914 C 286.005 239.410,284.715 240.400,284.388 240.400 C 284.199 240.400,282.481 241.660,280.572 243.200 C 278.663 244.740,276.958 246.000,276.783 246.000 C 276.609 246.000,275.284 246.945,273.839 248.100 C 272.393 249.255,269.569 251.370,267.563 252.800 C 265.557 254.230,263.617 255.672,263.252 256.005 C 261.324 257.766,256.111 261.200,255.367 261.200 C 254.894 261.200,254.050 261.560,253.491 262.000 C 249.221 265.359,242.200 258.252,245.542 253.954 C 245.950 253.429,246.535 252.521,246.842 251.935 C 247.348 250.969,250.225 248.504,253.682 246.073 C 255.836 244.558,260.714 240.910,263.013 239.094 C 264.192 238.162,266.437 236.500,268.001 235.400 C 269.565 234.300,271.271 233.040,271.792 232.600 C 272.313 232.160,273.398 231.350,274.203 230.800 C 275.008 230.250,276.686 228.989,277.933 227.998 C 279.180 227.007,281.010 225.666,282.000 225.019 C 282.990 224.371,284.160 223.505,284.600 223.093 C 285.040 222.681,286.750 221.359,288.400 220.155 C 290.050 218.951,291.821 217.658,292.335 217.283 C 292.849 216.907,293.680 216.195,294.181 215.700 C 294.682 215.205,295.287 214.800,295.525 214.800 C 295.763 214.800,297.040 213.900,298.362 212.800 C 299.683 211.700,300.882 210.800,301.025 210.800 C 301.168 210.800,301.794 210.395,302.418 209.900 C 303.041 209.405,304.652 208.190,305.998 207.200 C 307.344 206.210,309.110 204.829,309.923 204.132 L 311.400 202.863 311.526 195.332 C 311.706 184.556,311.314 183.622,306.600 183.589 C 305.308 183.580,303.892 183.227,302.600 182.591 C 301.500 182.050,300.177 181.606,299.659 181.604 C 298.867 181.601,296.614 180.616,294.000 179.131 C 293.670 178.943,292.677 178.457,291.794 178.050 C 290.911 177.642,289.944 177.015,289.645 176.655 C 289.347 176.295,288.863 176.000,288.572 176.000 C 286.974 176.000,273.600 162.889,273.600 161.323 C 273.600 161.095,273.266 160.479,272.857 159.954 C 271.525 158.243,268.052 151.284,267.764 149.746 C 267.609 148.921,267.165 147.695,266.778 147.023 C 266.391 146.350,265.945 144.454,265.788 142.809 C 265.630 141.165,265.241 139.095,264.925 138.209 C 264.002 135.632,263.779 128.656,264.526 125.754 C 264.873 124.408,265.363 121.708,265.616 119.754 C 265.869 117.799,266.329 115.800,266.640 115.311 C 266.950 114.823,267.395 113.531,267.629 112.441 C 268.034 110.552,271.100 104.069,272.189 102.800 C 272.472 102.470,273.019 101.570,273.404 100.800 C 273.789 100.030,274.347 99.130,274.644 98.800 C 274.941 98.470,276.274 96.940,277.605 95.400 C 278.937 93.860,281.415 91.380,283.113 89.890 C 284.811 88.399,286.485 86.914,286.834 86.590 C 287.182 86.265,287.652 86.000,287.878 86.000 C 288.104 86.000,288.988 85.523,289.844 84.939 C 292.211 83.326,298.835 80.000,299.682 80.000 C 300.094 80.000,301.100 79.661,301.916 79.247 C 302.732 78.833,304.966 78.288,306.881 78.035 C 310.469 77.561,312.741 76.836,313.496 75.923 C 314.157 75.125,322.856 75.568,323.860 76.451 M309.874 87.184 C 309.255 87.382,308.517 87.737,308.234 87.972 C 307.951 88.207,306.837 88.512,305.760 88.651 C 304.682 88.790,303.170 89.232,302.400 89.633 C 301.630 90.034,299.609 91.007,297.908 91.795 C 291.654 94.695,281.581 104.369,280.201 108.800 C 280.030 109.350,279.555 110.229,279.145 110.754 C 278.735 111.279,278.394 111.909,278.387 112.154 C 278.381 112.399,277.932 113.500,277.391 114.600 C 276.850 115.700,276.406 116.982,276.404 117.449 C 276.402 117.916,275.997 119.176,275.504 120.249 C 274.254 122.970,274.119 138.519,275.326 140.730 C 275.725 141.462,276.215 143.062,276.414 144.285 C 276.613 145.509,277.029 146.801,277.337 147.155 C 277.646 147.510,278.111 148.461,278.370 149.268 C 278.629 150.075,279.084 150.938,279.381 151.184 C 279.678 151.431,280.042 152.120,280.189 152.716 C 280.775 155.094,286.424 161.689,291.200 165.573 C 294.438 168.206,302.689 172.528,305.358 172.989 C 306.216 173.137,307.378 173.560,307.941 173.929 C 309.555 174.987,325.898 175.057,328.254 174.016 C 329.163 173.615,330.693 173.161,331.654 173.007 C 339.254 171.795,352.789 161.158,356.603 153.400 C 357.144 152.300,357.838 150.950,358.145 150.400 C 359.349 148.247,360.352 145.727,360.615 144.200 C 360.766 143.320,361.150 142.186,361.467 141.680 C 363.039 139.176,363.194 123.949,361.679 120.930 C 361.257 120.088,360.814 118.640,360.695 117.710 C 359.741 110.257,347.207 94.712,340.317 92.439 C 339.518 92.175,338.648 91.698,338.383 91.380 C 338.118 91.061,337.699 90.794,337.451 90.787 C 337.203 90.781,336.100 90.332,335.000 89.791 C 333.900 89.250,332.547 88.806,331.994 88.804 C 331.441 88.802,330.271 88.405,329.394 87.922 C 327.647 86.959,312.382 86.382,309.874 87.184 M328.200 88.779 C 333.361 90.134,336.067 91.112,338.000 92.321 C 338.770 92.803,339.593 93.198,339.829 93.199 C 342.644 93.208,354.957 105.772,356.361 110.068 C 356.625 110.875,357.102 111.752,357.420 112.017 C 357.739 112.282,358.002 112.701,358.004 112.949 C 358.006 113.197,358.450 114.300,358.991 115.400 C 359.532 116.500,359.981 117.899,359.987 118.510 C 359.994 119.120,360.379 120.650,360.842 121.910 C 363.198 128.314,360.879 146.057,357.140 150.226 C 356.733 150.680,356.400 151.323,356.400 151.655 C 356.400 154.634,343.621 167.294,339.132 168.761 C 338.325 169.025,337.448 169.502,337.183 169.820 C 336.918 170.139,336.409 170.401,336.051 170.401 C 335.693 170.402,334.818 170.758,334.106 171.192 C 333.395 171.626,331.775 172.151,330.506 172.360 C 329.238 172.568,327.531 173.023,326.713 173.370 C 324.801 174.180,323.197 174.166,320.497 173.315 C 318.444 172.668,318.256 172.668,317.129 173.315 C 314.773 174.667,302.091 171.960,299.299 169.508 C 298.915 169.171,298.153 168.758,297.608 168.591 C 294.948 167.777,286.994 161.161,284.877 158.000 C 284.509 157.450,283.441 155.982,282.504 154.738 C 281.567 153.493,280.800 152.330,280.800 152.152 C 280.800 151.974,280.046 150.292,279.125 148.414 C 278.203 146.536,277.221 143.920,276.943 142.600 C 276.664 141.280,276.158 139.216,275.818 138.013 C 274.115 131.987,276.643 115.200,279.795 111.600 C 280.084 111.270,280.585 110.370,280.909 109.600 C 282.798 105.109,294.599 93.200,297.161 93.200 C 297.384 93.200,299.138 92.392,301.058 91.404 C 303.055 90.376,305.395 89.496,306.526 89.346 C 307.614 89.201,309.336 88.758,310.352 88.360 C 313.562 87.105,322.636 87.318,328.200 88.779 M38.900 471.400 C 38.798 471.813,17.502 472.202,16.480 471.809 C 16.188 471.697,16.063 471.422,16.202 471.197 C 16.546 470.641,39.039 470.842,38.900 471.400 M209.600 478.800 C 209.600 479.900,209.420 480.800,209.200 480.800 C 208.980 480.800,208.800 479.900,208.800 478.800 C 208.800 477.700,208.980 476.800,209.200 476.800 C 209.420 476.800,209.600 477.700,209.600 478.800 " stroke="none" fill="#844404" fill-rule="evenodd"></path></g></svg>