<svg id="svg" version="1.1" xmlns="http://www.w3.org/2000/svg" xmlns:xlink="http://www.w3.org/1999/xlink" width="400" height="485.3080568720379" viewBox="0, 0, 400,485.3080568720379"><g id="svgg"><path id="path0" d="M106.400 5.181 C 106.070 5.405,105.320 5.591,104.734 5.594 C 100.867 5.616,95.824 14.328,97.870 17.451 C 98.734 18.770,99.248 467.615,98.388 469.223 C 97.980 469.985,97.157 470.000,56.933 470.000 C 17.224 470.000,15.854 470.025,14.647 470.765 C 13.961 471.186,12.514 471.661,11.430 471.821 C 6.993 472.476,4.708 476.425,5.566 481.954 C 5.805 483.493,6.000 484.854,6.000 484.977 C 6.000 485.099,51.630 485.200,107.400 485.200 C 180.444 485.200,208.800 485.078,208.800 484.763 C 208.800 484.523,209.160 483.869,209.600 483.309 C 211.074 481.436,210.749 476.864,208.977 474.543 C 205.235 469.640,209.097 470.000,160.193 470.000 C 122.166 470.000,118.062 469.939,117.843 469.367 C 117.709 469.019,117.600 388.970,117.600 291.480 L 117.600 114.225 124.715 107.212 C 128.629 103.356,135.789 96.330,140.626 91.600 C 145.464 86.870,157.517 75.056,167.411 65.348 C 177.305 55.639,189.630 43.579,194.800 38.548 C 199.970 33.516,204.388 28.909,204.618 28.308 C 204.847 27.707,205.556 26.672,206.193 26.008 L 207.350 24.800 257.795 24.800 C 296.497 24.800,308.352 24.912,308.720 25.280 C 309.081 25.641,309.200 31.055,309.200 47.186 C 309.200 67.848,309.229 68.665,310.000 70.104 C 310.440 70.925,310.800 71.960,310.800 72.402 C 310.800 72.845,311.160 73.516,311.600 73.893 C 313.286 75.337,312.951 75.537,306.400 77.000 C 304.750 77.369,302.860 77.854,302.200 78.080 C 301.540 78.305,300.190 78.766,299.200 79.104 C 296.911 79.886,295.951 80.293,295.200 80.797 C 294.870 81.019,294.150 81.380,293.600 81.599 C 293.050 81.819,291.457 82.719,290.060 83.599 C 288.663 84.480,287.436 85.200,287.333 85.200 C 285.865 85.200,274.766 96.478,272.767 100.000 C 272.330 100.770,271.442 102.210,270.793 103.200 C 270.144 104.190,269.507 105.270,269.378 105.600 C 269.249 105.930,268.728 107.100,268.220 108.200 C 267.076 110.673,266.123 113.464,265.349 116.600 C 265.024 117.920,264.454 120.080,264.083 121.400 C 263.017 125.193,263.159 136.711,264.324 141.089 C 264.806 142.899,265.202 144.789,265.204 145.289 C 265.206 145.790,265.626 147.100,266.136 148.200 C 266.647 149.300,267.184 150.800,267.329 151.532 C 267.474 152.265,267.955 153.325,268.396 153.886 C 268.838 154.448,269.200 155.152,269.200 155.450 C 269.200 155.748,270.010 157.255,271.000 158.800 C 271.990 160.345,272.800 161.698,272.800 161.808 C 272.800 163.584,283.738 174.256,288.600 177.222 C 291.397 178.929,292.574 179.593,293.600 180.045 C 294.150 180.287,294.870 180.648,295.200 180.846 C 296.855 181.839,300.021 182.925,304.600 184.070 C 306.360 184.510,308.430 185.169,309.200 185.535 L 310.600 186.201 310.708 194.076 L 310.817 201.952 309.708 203.007 C 309.099 203.588,307.610 204.769,306.400 205.632 C 305.190 206.494,303.673 207.605,303.028 208.100 C 302.384 208.595,300.224 210.204,298.228 211.676 C 293.816 214.931,290.750 217.219,287.610 219.600 C 286.305 220.590,284.590 221.850,283.801 222.400 C 283.011 222.950,281.215 224.300,279.809 225.400 C 278.404 226.500,276.604 227.850,275.809 228.400 C 275.014 228.950,273.295 230.210,271.990 231.200 C 267.302 234.755,264.429 236.878,256.400 242.720 C 247.430 249.247,246.308 250.323,244.182 254.435 C 241.482 259.656,249.509 266.419,254.109 262.800 C 254.669 262.360,255.439 262.000,255.822 262.000 C 256.589 262.000,260.041 259.844,262.731 257.685 C 263.683 256.921,265.356 255.681,266.447 254.930 C 267.539 254.179,268.740 253.310,269.116 252.999 C 269.808 252.427,270.831 251.655,275.209 248.400 C 276.540 247.410,278.568 245.871,279.715 244.979 C 280.862 244.087,282.700 242.737,283.800 241.979 C 284.900 241.221,286.790 239.839,288.000 238.910 C 289.210 237.980,290.873 236.720,291.696 236.110 C 292.519 235.499,293.631 234.640,294.166 234.200 C 294.701 233.760,295.791 232.950,296.587 232.400 C 297.384 231.850,298.914 230.720,299.988 229.890 C 301.775 228.508,304.539 226.512,308.531 223.723 C 309.802 222.835,310.123 222.750,310.425 223.226 C 310.637 223.561,310.790 243.693,310.794 271.622 L 310.800 319.445 309.900 320.632 C 309.405 321.285,308.370 322.449,307.600 323.219 C 306.830 323.989,304.506 326.414,302.436 328.609 C 297.658 333.675,292.395 339.224,287.800 344.041 C 285.820 346.117,281.320 350.867,277.800 354.597 C 271.601 361.165,262.768 370.487,249.300 384.675 C 245.725 388.441,242.802 391.765,242.804 392.061 C 242.806 392.358,242.414 393.722,241.932 395.093 L 241.057 397.586 241.987 399.572 C 243.841 403.532,248.002 405.264,251.200 403.408 C 251.750 403.088,252.921 402.486,253.803 402.069 C 254.685 401.653,256.109 400.521,256.969 399.556 C 258.404 397.943,273.037 382.443,282.603 372.402 C 284.805 370.091,292.545 361.900,299.803 354.200 C 314.816 338.274,316.754 336.321,317.383 336.483 C 317.832 336.599,325.055 344.484,335.800 356.586 C 338.880 360.055,341.760 363.291,342.200 363.776 C 342.640 364.262,344.170 365.989,345.600 367.614 C 347.030 369.238,348.693 371.115,349.295 371.784 C 349.898 372.453,352.294 375.126,354.621 377.725 C 356.947 380.324,359.154 382.767,359.525 383.155 C 359.896 383.542,361.299 385.106,362.641 386.629 C 363.984 388.153,366.594 391.080,368.441 393.134 C 370.289 395.187,372.769 397.977,373.953 399.334 C 375.137 400.690,376.577 401.962,377.153 402.160 C 377.729 402.357,378.700 402.935,379.312 403.444 C 384.336 407.622,392.579 401.120,389.657 395.284 C 389.248 394.468,388.804 393.350,388.670 392.800 C 388.536 392.250,387.541 390.836,386.460 389.657 C 385.378 388.479,383.347 386.267,381.946 384.742 C 378.345 380.821,377.653 380.047,375.400 377.418 C 374.300 376.135,372.140 373.709,370.600 372.028 C 369.060 370.346,366.630 367.640,365.200 366.014 C 363.770 364.387,360.890 361.143,358.800 358.805 C 356.710 356.466,351.580 350.709,347.400 346.012 C 340.786 338.579,337.430 334.824,330.207 326.775 C 329.330 325.799,328.115 324.390,327.507 323.645 L 326.400 322.290 326.400 272.369 C 326.400 238.757,326.534 222.365,326.809 222.194 C 327.035 222.055,328.070 222.635,329.109 223.484 C 330.149 224.333,331.630 225.496,332.400 226.070 C 333.170 226.644,334.610 227.856,335.600 228.764 C 336.590 229.672,338.390 231.175,339.600 232.103 C 342.509 234.335,348.494 239.210,349.004 239.762 C 349.226 240.003,350.216 240.822,351.204 241.583 C 352.192 242.344,355.520 245.053,358.600 247.603 C 367.978 255.370,372.415 258.969,373.432 259.635 C 373.965 259.984,375.165 260.956,376.099 261.794 C 377.034 262.633,378.426 263.492,379.193 263.704 C 379.960 263.916,381.020 264.429,381.548 264.845 C 384.894 267.477,390.315 264.877,391.244 260.194 C 392.079 255.987,390.022 252.893,382.200 246.589 C 379.340 244.284,376.123 241.634,375.051 240.699 C 373.979 239.765,372.853 238.856,372.549 238.679 C 372.245 238.502,371.502 237.894,370.898 237.328 C 370.294 236.762,368.900 235.615,367.800 234.781 C 366.700 233.946,365.322 232.844,364.738 232.332 C 364.154 231.819,363.164 230.991,362.538 230.491 C 359.041 227.698,344.077 215.478,343.400 214.862 C 342.345 213.902,336.996 209.605,334.543 207.747 C 333.474 206.938,332.240 205.938,331.800 205.526 C 331.360 205.114,329.965 203.856,328.700 202.730 L 326.400 200.682 326.400 193.355 C 326.400 184.931,326.020 185.684,330.800 184.629 C 332.450 184.265,334.340 183.774,335.000 183.539 C 335.660 183.304,337.010 182.835,338.000 182.497 C 339.978 181.823,340.604 181.554,341.800 180.863 C 342.240 180.608,343.050 180.221,343.600 180.001 C 344.150 179.781,345.743 178.881,347.140 178.001 C 348.537 177.120,349.764 176.400,349.867 176.400 C 351.289 176.400,362.629 164.836,364.575 161.400 C 364.949 160.740,365.684 159.480,366.208 158.600 C 367.875 155.803,370.000 151.340,370.000 150.638 C 370.000 150.265,370.302 149.384,370.671 148.680 C 371.324 147.433,372.531 142.634,373.207 138.600 C 373.869 134.644,373.656 124.461,372.838 121.000 C 372.423 119.240,371.951 116.994,371.791 116.009 C 371.630 115.024,371.233 113.812,370.909 113.317 C 370.584 112.821,370.150 111.666,369.944 110.748 C 369.738 109.831,369.216 108.584,368.784 107.978 C 368.353 107.372,368.000 106.624,368.000 106.316 C 368.000 106.008,367.550 105.145,367.000 104.400 C 366.450 103.655,366.000 102.908,366.000 102.740 C 366.000 102.438,364.571 100.132,363.435 98.600 C 355.490 87.893,345.108 80.851,332.400 77.549 C 330.750 77.120,328.847 76.596,328.172 76.385 C 327.496 76.173,326.455 76.000,325.859 76.000 C 324.398 76.000,324.086 74.986,325.186 73.814 C 325.675 73.295,326.507 71.676,327.037 70.217 L 328.000 67.564 328.000 43.625 C 328.000 20.630,328.031 19.619,328.791 17.944 C 330.301 14.616,327.558 7.755,324.662 7.616 C 324.476 7.607,323.756 7.195,323.062 6.700 L 321.800 5.800 216.200 5.553 C 158.120 5.417,109.790 5.186,108.800 5.040 C 107.769 4.888,106.744 4.949,106.400 5.181 M179.819 25.231 C 180.085 25.661,136.409 69.194,131.000 73.891 C 129.460 75.228,126.133 78.409,123.607 80.961 C 118.972 85.641,118.285 86.119,117.843 84.967 C 117.526 84.141,117.526 26.259,117.843 25.433 C 118.146 24.644,179.333 24.444,179.819 25.231 M323.860 76.451 C 324.642 77.140,325.596 77.366,330.349 77.987 C 331.971 78.199,333.727 78.653,334.251 78.997 C 334.776 79.340,336.118 79.795,337.234 80.006 C 338.350 80.218,339.723 80.753,340.285 81.196 C 340.848 81.638,341.619 82.000,342.000 82.000 C 342.381 82.000,343.121 82.335,343.646 82.745 C 344.171 83.155,344.981 83.609,345.447 83.755 C 345.913 83.901,346.616 84.376,347.009 84.810 C 347.402 85.245,347.941 85.600,348.207 85.600 C 349.360 85.600,356.534 91.886,359.876 95.825 C 362.876 99.360,363.600 100.309,363.600 100.704 C 363.600 100.917,363.994 101.593,364.476 102.205 C 365.652 103.700,369.200 110.731,369.200 111.566 C 369.200 111.931,369.567 112.944,370.017 113.815 C 370.466 114.687,371.016 116.840,371.238 118.600 C 371.461 120.360,371.917 122.749,372.252 123.908 C 373.031 126.604,372.809 135.379,371.861 139.400 C 371.497 140.940,371.200 142.832,371.200 143.606 C 371.200 144.379,370.853 145.660,370.428 146.452 C 370.004 147.244,369.528 148.591,369.370 149.446 C 369.059 151.135,365.855 157.641,364.464 159.410 C 363.989 160.014,363.600 160.727,363.600 160.996 C 363.600 161.264,363.195 161.953,362.700 162.526 C 362.205 163.100,361.276 164.205,360.636 164.981 C 358.849 167.147,355.636 170.404,353.200 172.519 C 351.990 173.569,350.715 174.692,350.366 175.014 C 350.018 175.337,349.548 175.600,349.322 175.600 C 349.096 175.600,348.212 176.078,347.356 176.663 C 344.981 178.285,338.303 181.593,337.394 181.597 C 336.951 181.598,335.904 181.966,335.069 182.414 C 334.223 182.868,332.098 183.405,330.275 183.626 C 325.485 184.208,325.600 183.968,325.600 193.422 C 325.600 202.744,323.855 200.265,339.200 212.748 C 350.850 222.225,354.341 225.105,356.895 227.344 C 357.613 227.974,359.190 229.220,360.400 230.114 C 361.610 231.007,364.220 233.112,366.200 234.791 C 368.180 236.469,370.414 238.283,371.164 238.821 C 371.914 239.360,372.994 240.228,373.564 240.752 C 374.134 241.275,377.120 243.751,380.200 246.255 C 387.514 252.200,387.663 252.351,389.894 256.157 C 392.677 260.904,386.200 267.351,381.954 264.061 C 381.429 263.655,380.466 263.191,379.814 263.032 C 379.162 262.872,377.122 261.450,375.280 259.871 C 373.439 258.292,371.362 256.553,370.666 256.006 C 369.970 255.460,367.486 253.480,365.147 251.606 C 362.808 249.733,359.525 247.120,357.850 245.800 C 356.176 244.480,354.804 243.302,354.803 243.182 C 354.801 243.062,353.855 242.252,352.700 241.382 C 350.455 239.691,344.195 234.663,343.200 233.753 C 341.198 231.920,327.443 220.800,327.178 220.800 C 325.543 220.800,325.585 219.316,325.695 272.765 L 325.800 323.463 327.600 325.321 C 328.590 326.342,330.120 328.025,331.000 329.059 C 333.714 332.249,334.591 333.242,339.070 338.200 C 341.456 340.840,344.036 343.710,344.804 344.579 C 345.572 345.447,346.575 346.527,347.033 346.979 C 347.491 347.430,349.379 349.600,351.229 351.800 C 353.079 354.000,355.314 356.536,356.196 357.436 C 358.134 359.412,362.149 363.922,365.600 368.000 C 366.996 369.650,369.323 372.260,370.772 373.800 C 372.220 375.340,374.574 377.941,376.002 379.581 C 377.431 381.220,380.709 384.900,383.288 387.758 C 388.378 393.401,389.189 395.085,388.672 398.937 C 388.087 403.302,382.949 405.221,379.400 402.400 C 378.569 401.740,377.668 401.200,377.397 401.200 C 377.126 401.200,376.206 400.389,375.352 399.398 C 373.863 397.669,369.070 392.366,367.400 390.599 C 366.960 390.133,365.610 388.594,364.400 387.177 C 361.561 383.855,350.836 371.922,350.218 371.400 C 349.958 371.180,348.688 369.740,347.396 368.200 C 346.104 366.660,344.930 365.310,344.788 365.200 C 344.646 365.090,343.390 363.650,341.997 362.000 C 340.604 360.350,339.000 358.545,338.433 357.989 C 337.865 357.433,336.320 355.739,335.000 354.224 C 333.680 352.710,332.222 351.095,331.761 350.635 C 331.299 350.176,329.797 348.450,328.422 346.800 C 327.047 345.150,324.725 342.524,323.261 340.963 C 321.797 339.403,320.011 337.468,319.290 336.663 C 317.171 334.296,318.072 333.574,302.200 350.343 C 300.440 352.203,296.185 356.621,292.745 360.162 C 289.305 363.703,285.727 367.500,284.794 368.600 C 283.862 369.700,282.357 371.345,281.449 372.256 C 280.542 373.167,277.820 376.024,275.400 378.605 C 272.980 381.186,269.650 384.686,268.000 386.383 C 266.350 388.080,262.570 392.028,259.600 395.157 C 252.033 403.128,248.425 404.786,244.838 401.940 C 241.169 399.028,242.111 393.487,247.168 388.237 C 249.056 386.277,251.950 383.271,253.600 381.557 C 255.250 379.843,258.580 376.340,261.000 373.772 C 263.420 371.205,266.570 367.907,268.000 366.443 C 270.627 363.755,275.432 358.683,281.364 352.338 C 289.149 344.011,292.426 340.547,295.800 337.075 C 297.780 335.038,302.100 330.519,305.400 327.033 L 311.400 320.694 311.517 273.047 C 311.650 219.274,311.688 220.191,309.381 221.836 C 309.101 222.036,307.730 222.990,306.336 223.955 C 304.941 224.921,303.498 226.001,303.129 226.355 C 302.761 226.710,301.808 227.450,301.013 228.000 C 299.349 229.151,296.962 230.890,295.800 231.797 C 295.360 232.141,293.650 233.405,292.000 234.605 C 288.970 236.810,287.919 237.637,285.879 239.420 C 285.263 239.959,284.575 240.400,284.350 240.400 C 284.126 240.400,282.413 241.660,280.545 243.200 C 278.676 244.740,276.988 246.000,276.794 246.000 C 276.600 246.000,275.360 246.900,274.038 248.000 C 272.717 249.100,271.538 250.000,271.419 250.000 C 271.208 250.000,264.773 254.755,262.800 256.369 C 259.891 258.749,256.119 261.200,255.365 261.200 C 254.894 261.200,254.050 261.560,253.491 262.000 C 249.047 265.496,242.480 258.494,245.701 253.696 C 246.254 252.873,246.862 251.901,247.053 251.536 C 247.379 250.912,250.728 248.152,253.682 246.072 C 255.344 244.901,260.464 241.075,263.039 239.080 C 264.117 238.244,266.350 236.584,268.000 235.392 C 269.650 234.199,271.360 232.943,271.800 232.601 C 275.155 229.994,279.764 226.581,281.600 225.344 C 282.810 224.529,284.160 223.521,284.600 223.103 C 285.040 222.686,286.750 221.365,288.400 220.169 C 292.130 217.465,292.963 216.832,294.274 215.700 C 294.848 215.205,295.461 214.800,295.638 214.800 C 295.814 214.800,297.011 213.945,298.297 212.900 C 299.583 211.855,300.987 210.772,301.417 210.494 C 305.085 208.124,310.379 204.004,311.025 203.018 C 311.547 202.222,311.627 200.752,311.523 193.845 C 311.375 183.962,311.451 184.125,306.750 183.582 C 305.128 183.394,303.087 182.872,302.215 182.420 C 301.344 181.969,300.243 181.600,299.768 181.600 C 298.776 181.600,290.000 177.276,290.000 176.787 C 290.000 176.608,289.415 176.267,288.700 176.029 C 285.967 175.118,274.739 163.976,273.370 160.814 C 273.039 160.052,272.621 159.332,272.441 159.214 C 271.782 158.784,268.037 151.204,267.764 149.746 C 267.609 148.921,267.168 147.695,266.785 147.023 C 266.401 146.350,265.965 144.484,265.817 142.875 C 265.668 141.266,265.277 139.196,264.948 138.275 C 264.132 135.995,263.791 128.694,264.392 126.400 C 264.652 125.410,265.168 122.599,265.540 120.152 C 265.911 117.706,266.431 115.444,266.696 115.125 C 266.961 114.806,267.385 113.568,267.639 112.373 C 267.893 111.178,268.438 109.722,268.850 109.138 C 269.263 108.554,269.600 107.844,269.600 107.560 C 269.600 107.276,270.009 106.403,270.510 105.622 C 271.831 103.557,272.294 102.780,273.212 101.083 C 273.664 100.249,274.300 99.259,274.626 98.883 C 274.952 98.508,276.300 96.940,277.622 95.400 C 278.945 93.860,281.415 91.380,283.113 89.890 C 284.811 88.399,286.485 86.914,286.834 86.590 C 287.182 86.265,287.652 86.000,287.878 86.000 C 288.104 86.000,288.988 85.522,289.844 84.937 C 292.219 83.315,298.897 80.007,299.806 80.003 C 300.249 80.002,301.262 79.651,302.057 79.225 C 302.852 78.799,304.649 78.335,306.051 78.192 C 309.485 77.845,312.521 76.972,313.300 76.109 C 314.176 75.139,322.682 75.414,323.860 76.451 M310.400 87.043 C 310.070 87.164,308.957 87.609,307.926 88.031 C 306.895 88.454,305.581 88.800,305.006 88.800 C 303.302 88.800,294.947 93.127,291.652 95.716 C 286.904 99.447,280.952 106.240,280.188 108.800 C 280.024 109.350,279.555 110.229,279.145 110.754 C 278.735 111.279,278.394 111.909,278.387 112.154 C 278.381 112.399,277.932 113.500,277.391 114.600 C 276.850 115.700,276.406 116.982,276.404 117.449 C 276.402 117.916,275.998 119.176,275.507 120.249 C 274.142 123.234,274.137 137.932,275.500 141.074 C 275.995 142.215,276.400 143.615,276.400 144.186 C 276.400 145.062,278.343 149.577,279.592 151.600 C 279.795 151.930,280.240 152.830,280.580 153.600 C 282.459 157.852,291.834 167.077,296.401 169.167 C 297.390 169.619,298.470 170.161,298.800 170.371 C 300.146 171.224,303.899 172.717,305.358 172.979 C 306.216 173.132,307.378 173.560,307.941 173.929 C 309.555 174.987,325.898 175.057,328.254 174.016 C 329.163 173.615,330.693 173.161,331.654 173.007 C 339.254 171.795,352.789 161.158,356.603 153.400 C 357.144 152.300,357.828 150.950,358.125 150.400 C 359.852 147.191,360.363 145.993,360.608 144.578 C 360.758 143.710,361.266 142.190,361.737 141.200 C 363.051 138.438,363.020 123.519,361.695 120.800 C 361.212 119.810,360.814 118.484,360.809 117.854 C 360.778 113.806,349.030 96.400,346.329 96.400 C 346.165 96.400,345.709 96.078,345.316 95.685 C 344.091 94.461,341.845 92.929,340.800 92.605 C 340.250 92.435,339.322 91.959,338.738 91.548 C 338.154 91.136,337.524 90.794,337.338 90.787 C 337.152 90.781,336.100 90.332,335.000 89.791 C 333.900 89.250,332.547 88.806,331.994 88.804 C 331.441 88.802,330.271 88.401,329.394 87.914 C 327.825 87.042,312.340 86.332,310.400 87.043 M328.200 88.779 C 333.361 90.134,336.067 91.112,338.000 92.321 C 338.770 92.803,339.593 93.198,339.829 93.199 C 342.644 93.208,354.957 105.772,356.361 110.068 C 356.625 110.875,357.102 111.752,357.420 112.017 C 357.739 112.282,358.002 112.701,358.004 112.949 C 358.006 113.197,358.450 114.300,358.991 115.400 C 359.532 116.500,359.981 117.899,359.987 118.510 C 359.994 119.120,360.379 120.650,360.842 121.910 C 363.198 128.314,360.879 146.057,357.140 150.226 C 356.733 150.680,356.400 151.323,356.400 151.655 C 356.400 154.634,343.621 167.294,339.132 168.761 C 338.325 169.025,337.448 169.502,337.183 169.820 C 336.918 170.139,336.409 170.401,336.051 170.401 C 335.693 170.402,334.818 170.758,334.106 171.192 C 333.395 171.626,331.775 172.151,330.506 172.360 C 329.238 172.568,327.531 173.023,326.713 173.370 C 324.801 174.180,323.197 174.166,320.497 173.315 C 318.444 172.668,318.256 172.668,317.129 173.315 C 314.773 174.667,302.091 171.960,299.299 169.508 C 298.915 169.171,298.153 168.758,297.608 168.591 C 294.948 167.777,286.994 161.161,284.877 158.000 C 284.509 157.450,283.441 155.982,282.504 154.738 C 281.567 153.493,280.800 152.330,280.800 152.152 C 280.800 151.974,280.046 150.292,279.125 148.414 C 278.203 146.536,277.221 143.920,276.943 142.600 C 276.664 141.280,276.158 139.216,275.818 138.013 C 274.115 131.987,276.643 115.200,279.795 111.600 C 280.084 111.270,280.585 110.370,280.909 109.600 C 282.798 105.109,294.599 93.200,297.161 93.200 C 297.384 93.200,299.138 92.392,301.058 91.404 C 303.055 90.376,305.395 89.496,306.526 89.346 C 307.614 89.201,309.336 88.758,310.352 88.360 C 313.562 87.105,322.636 87.318,328.200 88.779 M38.974 471.158 C 39.418 471.876,37.742 472.000,27.600 472.000 C 21.916 472.000,16.982 471.891,16.635 471.758 C 14.770 471.042,17.543 470.800,27.600 470.800 C 33.734 470.800,38.852 470.961,38.974 471.158 M209.600 478.800 C 209.600 479.900,209.420 480.800,209.200 480.800 C 208.980 480.800,208.800 479.900,208.800 478.800 C 208.800 477.700,208.980 476.800,209.200 476.800 C 209.420 476.800,209.600 477.700,209.600 478.800 " stroke="none" fill="#844404" fill-rule="evenodd"></path><path id="path1" d="M313.300 76.109 C 312.521 76.972,309.485 77.845,306.051 78.192 C 304.649 78.335,302.852 78.799,302.057 79.225 C 301.262 79.651,300.249 80.002,299.806 80.003 C 298.897 80.007,292.219 83.315,289.844 84.937 C 288.988 85.522,288.104 86.000,287.878 86.000 C 287.652 86.000,287.182 86.265,286.834 86.590 C 286.485 86.914,284.811 88.399,283.113 89.890 C 281.415 91.380,278.945 93.860,277.622 95.400 C 276.300 96.940,274.952 98.508,274.626 98.883 C 274.300 99.259,273.664 100.249,273.212 101.083 C 272.294 102.780,271.831 103.557,270.510 105.622 C 270.009 106.403,269.600 107.276,269.600 107.560 C 269.600 107.844,269.263 108.554,268.850 109.138 C 268.438 109.722,267.893 111.178,267.639 112.373 C 267.385 113.568,266.961 114.806,266.696 115.125 C 266.431 115.444,265.911 117.706,265.540 120.152 C 265.168 122.599,264.652 125.410,264.392 126.400 C 263.791 128.694,264.132 135.995,264.948 138.275 C 265.277 139.196,265.668 141.266,265.817 142.875 C 265.965 144.484,266.401 146.350,266.785 147.023 C 267.168 147.695,267.609 148.921,267.764 149.746 C 268.037 151.204,271.782 158.784,272.441 159.214 C 272.621 159.332,273.039 160.052,273.370 160.814 C 274.739 163.976,285.967 175.118,288.700 176.029 C 289.415 176.267,290.000 176.608,290.000 176.787 C 290.000 177.276,298.776 181.600,299.768 181.600 C 300.243 181.600,301.344 181.969,302.215 182.420 C 303.087 182.872,305.128 183.394,306.750 183.582 C 311.451 184.125,311.375 183.962,311.523 193.845 C 311.627 200.752,311.547 202.222,311.025 203.018 C 310.379 204.004,305.085 208.124,301.417 210.494 C 300.987 210.772,299.583 211.855,298.297 212.900 C 297.011 213.945,295.814 214.800,295.638 214.800 C 295.461 214.800,294.848 215.205,294.274 215.700 C 292.963 216.832,292.130 217.465,288.400 220.169 C 286.750 221.365,285.040 222.686,284.600 223.103 C 284.160 223.521,282.810 224.529,281.600 225.344 C 279.764 226.581,275.155 229.994,271.800 232.601 C 271.360 232.943,269.650 234.199,268.000 235.392 C 266.350 236.584,264.117 238.244,263.039 239.080 C 260.464 241.075,255.344 244.901,253.682 246.072 C 250.728 248.152,247.379 250.912,247.053 251.536 C 246.862 251.901,246.254 252.873,245.701 253.696 C 242.480 258.494,249.047 265.496,253.491 262.000 C 254.050 261.560,254.894 261.200,255.365 261.200 C 256.119 261.200,259.891 258.749,262.800 256.369 C 264.773 254.755,271.208 250.000,271.419 250.000 C 271.538 250.000,272.717 249.100,274.038 248.000 C 275.360 246.900,276.600 246.000,276.794 246.000 C 276.988 246.000,278.676 244.740,280.545 243.200 C 282.413 241.660,284.126 240.400,284.350 240.400 C 284.575 240.400,285.263 239.959,285.879 239.420 C 287.919 237.637,288.970 236.810,292.000 234.605 C 293.650 233.405,295.360 232.141,295.800 231.797 C 296.962 230.890,299.349 229.151,301.013 228.000 C 301.808 227.450,302.761 226.710,303.129 226.355 C 303.498 226.001,304.941 224.921,306.336 223.955 C 307.730 222.990,309.101 222.036,309.381 221.836 C 311.688 220.191,311.650 219.274,311.517 273.047 L 311.400 320.694 305.400 327.033 C 302.100 330.519,297.780 335.038,295.800 337.075 C 292.426 340.547,289.149 344.011,281.364 352.338 C 275.432 358.683,270.627 363.755,268.000 366.443 C 266.570 367.907,263.420 371.205,261.000 373.772 C 258.580 376.340,255.250 379.843,253.600 381.557 C 251.950 383.271,249.056 386.277,247.168 388.237 C 242.111 393.487,241.169 399.028,244.838 401.940 C 248.425 404.786,252.033 403.128,259.600 395.157 C 262.570 392.028,266.350 388.080,268.000 386.383 C 269.650 384.686,272.980 381.186,275.400 378.605 C 277.820 376.024,280.542 373.167,281.449 372.256 C 282.357 371.345,283.862 369.700,284.794 368.600 C 285.727 367.500,289.305 363.703,292.745 360.162 C 296.185 356.621,300.440 352.203,302.200 350.343 C 318.072 333.574,317.171 334.296,319.290 336.663 C 320.011 337.468,321.797 339.403,323.261 340.963 C 324.725 342.524,327.047 345.150,328.422 346.800 C 329.797 348.450,331.299 350.176,331.761 350.635 C 332.222 351.095,333.680 352.710,335.000 354.224 C 336.320 355.739,337.865 357.433,338.433 357.989 C 339.000 358.545,340.604 360.350,341.997 362.000 C 343.390 363.650,344.646 365.090,344.788 365.200 C 344.930 365.310,346.104 366.660,347.396 368.200 C 348.688 369.740,349.958 371.180,350.218 371.400 C 350.836 371.922,361.561 383.855,364.400 387.177 C 365.610 388.594,366.960 390.133,367.400 390.599 C 369.070 392.366,373.863 397.669,375.352 399.398 C 376.206 400.389,377.126 401.200,377.397 401.200 C 377.668 401.200,378.569 401.740,379.400 402.400 C 382.949 405.221,388.087 403.302,388.672 398.937 C 389.189 395.085,388.378 393.401,383.288 387.758 C 380.709 384.900,377.431 381.220,376.002 379.581 C 374.574 377.941,372.220 375.340,370.772 373.800 C 369.323 372.260,366.996 369.650,365.600 368.000 C 362.149 363.922,358.134 359.412,356.196 357.436 C 355.314 356.536,353.079 354.000,351.229 351.800 C 349.379 349.600,347.491 347.430,347.033 346.979 C 346.575 346.527,345.572 345.447,344.804 344.579 C 344.036 343.710,341.456 340.840,339.070 338.200 C 334.591 333.242,333.714 332.249,331.000 329.059 C 330.120 328.025,328.590 326.342,327.600 325.321 L 325.800 323.463 325.695 272.765 C 325.585 219.316,325.543 220.800,327.178 220.800 C 327.443 220.800,341.198 231.920,343.200 233.753 C 344.195 234.663,350.455 239.691,352.700 241.382 C 353.855 242.252,354.801 243.062,354.803 243.182 C 354.804 243.302,356.176 244.480,357.850 245.800 C 359.525 247.120,362.808 249.733,365.147 251.606 C 367.486 253.480,369.970 255.460,370.666 256.006 C 371.362 256.553,373.439 258.292,375.280 259.871 C 377.122 261.450,379.162 262.872,379.814 263.032 C 380.466 263.191,381.429 263.655,381.954 264.061 C 386.200 267.351,392.677 260.904,389.894 256.157 C 387.663 252.351,387.514 252.200,380.200 246.255 C 377.120 243.751,374.134 241.275,373.564 240.752 C 372.994 240.228,371.914 239.360,371.164 238.821 C 370.414 238.283,368.180 236.469,366.200 234.791 C 364.220 233.112,361.610 231.007,360.400 230.114 C 359.190 229.220,357.613 227.974,356.895 227.344 C 354.341 225.105,350.850 222.225,339.200 212.748 C 323.855 200.265,325.600 202.744,325.600 193.422 C 325.600 183.968,325.485 184.208,330.275 183.626 C 332.098 183.405,334.223 182.868,335.069 182.414 C 335.904 181.966,336.951 181.598,337.394 181.597 C 338.303 181.593,344.981 178.285,347.356 176.663 C 348.212 176.078,349.096 175.600,349.322 175.600 C 349.548 175.600,350.018 175.337,350.366 175.014 C 350.715 174.692,351.990 173.569,353.200 172.519 C 355.636 170.404,358.849 167.147,360.636 164.981 C 361.276 164.205,362.205 163.100,362.700 162.526 C 363.195 161.953,363.600 161.264,363.600 160.996 C 363.600 160.727,363.989 160.014,364.464 159.410 C 365.855 157.641,369.059 151.135,369.370 149.446 C 369.528 148.591,370.004 147.244,370.428 146.452 C 370.853 145.660,371.200 144.379,371.200 143.606 C 371.200 142.832,371.497 140.940,371.861 139.400 C 372.809 135.379,373.031 126.604,372.252 123.908 C 371.917 122.749,371.461 120.360,371.238 118.600 C 371.016 116.840,370.466 114.687,370.017 113.815 C 369.567 112.944,369.200 111.931,369.200 111.566 C 369.200 110.731,365.652 103.700,364.476 102.205 C 363.994 101.593,363.600 100.917,363.600 100.704 C 363.600 100.309,362.876 99.360,359.876 95.825 C 356.534 91.886,349.360 85.600,348.207 85.600 C 347.941 85.600,347.402 85.245,347.009 84.810 C 346.616 84.376,345.913 83.901,345.447 83.755 C 344.981 83.609,344.171 83.155,343.646 82.745 C 343.121 82.335,342.381 82.000,342.000 82.000 C 341.619 82.000,340.848 81.638,340.285 81.196 C 339.723 80.753,338.350 80.218,337.234 80.006 C 336.118 79.795,334.776 79.340,334.251 78.997 C 333.727 78.653,331.971 78.199,330.349 77.987 C 325.596 77.366,324.642 77.140,323.860 76.451 C 322.682 75.414,314.176 75.139,313.300 76.109 M329.394 87.914 C 330.271 88.401,331.441 88.802,331.994 88.804 C 332.547 88.806,333.900 89.250,335.000 89.791 C 336.100 90.332,337.152 90.781,337.338 90.787 C 337.524 90.794,338.154 91.136,338.738 91.548 C 339.322 91.959,340.250 92.435,340.800 92.605 C 341.845 92.929,344.091 94.461,345.316 95.685 C 345.709 96.078,346.165 96.400,346.329 96.400 C 349.030 96.400,360.778 113.806,360.809 117.854 C 360.814 118.484,361.212 119.810,361.695 120.800 C 363.020 123.519,363.051 138.438,361.737 141.200 C 361.266 142.190,360.758 143.710,360.608 144.578 C 360.363 145.993,359.852 147.191,358.125 150.400 C 357.828 150.950,357.144 152.300,356.603 153.400 C 352.789 161.158,339.254 171.795,331.654 173.007 C 330.693 173.161,329.163 173.615,328.254 174.016 C 325.898 175.057,309.555 174.987,307.941 173.929 C 307.378 173.560,306.216 173.132,305.358 172.979 C 303.899 172.717,300.146 171.224,298.800 170.371 C 298.470 170.161,297.390 169.619,296.401 169.167 C 291.834 167.077,282.459 157.852,280.580 153.600 C 280.240 152.830,279.795 151.930,279.592 151.600 C 278.343 149.577,276.400 145.062,276.400 144.186 C 276.400 143.615,275.995 142.215,275.500 141.074 C 274.137 137.932,274.142 123.234,275.507 120.249 C 275.998 119.176,276.402 117.916,276.404 117.449 C 276.406 116.982,276.850 115.700,277.391 114.600 C 277.932 113.500,278.381 112.399,278.387 112.154 C 278.394 111.909,278.735 111.279,279.145 110.754 C 279.555 110.229,280.024 109.350,280.188 108.800 C 280.952 106.240,286.904 99.447,291.652 95.716 C 294.947 93.127,303.302 88.800,305.006 88.800 C 305.581 88.800,306.895 88.454,307.926 88.031 C 308.957 87.609,310.070 87.164,310.400 87.043 C 312.340 86.332,327.825 87.042,329.394 87.914 M16.226 471.158 C 15.782 471.876,17.458 472.000,27.600 472.000 C 33.284 472.000,38.218 471.891,38.565 471.758 C 40.430 471.042,37.657 470.800,27.600 470.800 C 21.466 470.800,16.348 470.961,16.226 471.158 M208.800 478.800 C 208.800 479.900,208.980 480.800,209.200 480.800 C 209.420 480.800,209.600 479.900,209.600 478.800 C 209.600 477.700,209.420 476.800,209.200 476.800 C 208.980 476.800,208.800 477.700,208.800 478.800 " stroke="none" fill="#070707" fill-rule="evenodd"></path><path id="path2" d="M0.000 242.600 L 0.000 485.200 3.000 485.200 C 4.650 485.200,6.000 485.099,6.000 484.977 C 6.000 484.854,5.805 483.493,5.566 481.954 C 4.708 476.425,6.993 472.476,11.430 471.821 C 12.514 471.661,13.961 471.186,14.647 470.765 C 15.854 470.025,17.224 470.000,56.933 470.000 C 97.157 470.000,97.980 469.985,98.388 469.223 C 99.248 467.615,98.734 18.770,97.870 17.451 C 96.201 14.904,97.837 10.984,102.377 6.650 C 103.350 5.721,106.016 5.068,108.400 5.175 C 109.390 5.219,157.810 5.378,216.000 5.528 L 321.800 5.800 323.062 6.700 C 323.756 7.195,324.476 7.607,324.662 7.616 C 327.558 7.755,330.301 14.616,328.791 17.944 C 328.031 19.619,328.000 20.630,328.000 43.625 L 328.000 67.564 327.037 70.217 C 326.507 71.676,325.675 73.295,325.186 73.814 C 324.086 74.986,324.398 76.000,325.859 76.000 C 326.455 76.000,327.496 76.173,328.172 76.385 C 328.847 76.596,330.750 77.120,332.400 77.549 C 345.108 80.851,355.490 87.893,363.435 98.600 C 364.571 100.132,366.000 102.438,366.000 102.740 C 366.000 102.908,366.450 103.655,367.000 104.400 C 367.550 105.145,368.000 106.008,368.000 106.316 C 368.000 106.624,368.353 107.372,368.784 107.978 C 369.216 108.584,369.738 109.831,369.944 110.748 C 370.150 111.666,370.584 112.821,370.909 113.317 C 371.233 113.812,371.630 115.024,371.791 116.009 C 371.951 116.994,372.423 119.240,372.838 121.000 C 373.656 124.461,373.869 134.644,373.207 138.600 C 372.531 142.634,371.324 147.433,370.671 148.680 C 370.302 149.384,370.000 150.265,370.000 150.638 C 370.000 151.340,367.875 155.803,366.208 158.600 C 365.684 159.480,364.949 160.740,364.575 161.400 C 362.629 164.836,351.289 176.400,349.867 176.400 C 349.764 176.400,348.537 177.120,347.140 178.001 C 345.743 178.881,344.150 179.781,343.600 180.001 C 343.050 180.221,342.285 180.580,341.900 180.800 C 340.636 181.522,339.824 181.876,338.000 182.497 C 337.010 182.835,335.660 183.304,335.000 183.539 C 334.340 183.774,332.450 184.265,330.800 184.629 C 326.020 185.684,326.400 184.931,326.400 193.355 L 326.400 200.682 328.700 202.730 C 329.965 203.856,331.360 205.114,331.800 205.526 C 332.240 205.938,333.474 206.938,334.543 207.747 C 336.996 209.605,342.345 213.902,343.400 214.862 C 344.077 215.478,359.041 227.698,362.538 230.491 C 363.164 230.991,364.154 231.819,364.738 232.332 C 365.322 232.844,366.700 233.946,367.800 234.781 C 368.900 235.615,370.294 236.762,370.898 237.328 C 371.502 237.894,372.245 238.502,372.549 238.679 C 372.853 238.856,373.979 239.765,375.051 240.699 C 376.123 241.634,379.340 244.284,382.200 246.589 C 390.022 252.893,392.079 255.987,391.244 260.194 C 390.315 264.877,384.894 267.477,381.548 264.845 C 381.020 264.429,379.960 263.916,379.193 263.704 C 378.426 263.492,377.034 262.633,376.099 261.794 C 375.165 260.956,373.965 259.984,373.432 259.635 C 372.415 258.969,367.978 255.370,358.600 247.603 C 355.520 245.053,352.192 242.344,351.204 241.583 C 350.216 240.822,349.226 240.003,349.004 239.762 C 348.494 239.210,342.509 234.335,339.600 232.103 C 338.390 231.175,336.590 229.672,335.600 228.764 C 334.610 227.856,333.170 226.644,332.400 226.070 C 331.630 225.496,330.149 224.333,329.109 223.484 C 328.070 222.635,327.035 222.055,326.809 222.194 C 326.534 222.365,326.400 238.757,326.400 272.369 L 326.400 322.290 327.507 323.645 C 328.115 324.390,329.330 325.799,330.207 326.775 C 337.430 334.824,340.786 338.579,347.400 346.012 C 351.580 350.709,356.710 356.466,358.800 358.805 C 360.890 361.143,363.770 364.387,365.200 366.014 C 366.630 367.640,369.060 370.346,370.600 372.028 C 372.140 373.709,374.300 376.135,375.400 377.418 C 377.653 380.047,378.345 380.821,381.946 384.742 C 383.347 386.267,385.378 388.479,386.460 389.657 C 387.541 390.836,388.536 392.250,388.670 392.800 C 388.804 393.350,389.248 394.468,389.657 395.284 C 392.579 401.120,384.336 407.622,379.312 403.444 C 378.700 402.935,377.729 402.357,377.153 402.160 C 376.577 401.962,375.137 400.690,373.953 399.334 C 372.769 397.977,370.289 395.187,368.441 393.134 C 366.594 391.080,363.984 388.153,362.641 386.629 C 361.299 385.106,359.896 383.542,359.525 383.155 C 359.154 382.767,356.947 380.324,354.621 377.725 C 352.294 375.126,349.898 372.453,349.295 371.784 C 348.693 371.115,347.030 369.238,345.600 367.614 C 344.170 365.989,342.640 364.262,342.200 363.776 C 341.760 363.291,338.880 360.055,335.800 356.586 C 325.055 344.484,317.832 336.599,317.383 336.483 C 316.754 336.321,314.816 338.274,299.803 354.200 C 292.545 361.900,284.805 370.091,282.603 372.402 C 273.037 382.443,258.404 397.943,256.969 399.556 C 256.109 400.521,254.685 401.653,253.803 402.069 C 252.921 402.486,251.750 403.088,251.200 403.408 C 248.002 405.264,243.841 403.532,241.987 399.572 L 241.057 397.586 241.932 395.093 C 242.414 393.722,242.806 392.358,242.804 392.061 C 242.802 391.765,245.725 388.441,249.300 384.675 C 262.768 370.487,271.601 361.165,277.800 354.597 C 281.320 350.867,285.820 346.117,287.800 344.041 C 292.395 339.224,297.658 333.675,302.436 328.609 C 304.506 326.414,306.830 323.989,307.600 323.219 C 308.370 322.449,309.405 321.285,309.900 320.632 L 310.800 319.445 310.794 271.622 C 310.790 243.693,310.637 223.561,310.425 223.226 C 310.123 222.750,309.802 222.835,308.531 223.723 C 304.539 226.512,301.775 228.508,299.988 229.890 C 298.914 230.720,297.384 231.850,296.587 232.400 C 295.791 232.950,294.701 233.760,294.166 234.200 C 293.631 234.640,292.519 235.499,291.696 236.110 C 290.873 236.720,289.210 237.980,288.000 238.910 C 286.790 239.839,284.900 241.221,283.800 241.979 C 282.700 242.737,280.862 244.087,279.715 244.979 C 278.568 245.871,276.540 247.410,275.209 248.400 C 270.831 251.655,269.808 252.427,269.116 252.999 C 268.740 253.310,267.539 254.179,266.447 254.930 C 265.356 255.681,263.683 256.921,262.731 257.685 C 260.041 259.844,256.589 262.000,255.822 262.000 C 255.439 262.000,254.669 262.360,254.109 262.800 C 250.681 265.497,244.841 262.680,243.978 257.914 C 243.162 253.402,245.279 250.813,256.400 242.720 C 264.429 236.878,267.302 234.755,271.990 231.200 C 273.295 230.210,275.014 228.950,275.809 228.400 C 276.604 227.850,278.404 226.500,279.809 225.400 C 281.215 224.300,283.011 222.950,283.801 222.400 C 284.590 221.850,286.305 220.590,287.610 219.600 C 290.750 217.219,293.816 214.931,298.228 211.676 C 300.224 210.204,302.384 208.595,303.028 208.100 C 303.673 207.605,305.190 206.494,306.400 205.632 C 307.610 204.769,309.099 203.588,309.708 203.007 L 310.817 201.952 310.708 194.076 L 310.600 186.201 309.200 185.535 C 308.430 185.169,306.360 184.510,304.600 184.070 C 300.021 182.925,296.855 181.839,295.200 180.846 C 294.870 180.648,294.150 180.287,293.600 180.045 C 287.767 177.478,280.501 171.545,275.300 165.104 C 273.925 163.401,272.800 161.918,272.800 161.808 C 272.800 161.698,271.990 160.345,271.000 158.800 C 270.010 157.255,269.200 155.748,269.200 155.450 C 269.200 155.152,268.838 154.448,268.396 153.886 C 267.955 153.325,267.474 152.265,267.329 151.532 C 267.184 150.800,266.647 149.300,266.136 148.200 C 265.626 147.100,265.206 145.790,265.204 145.289 C 265.202 144.789,264.806 142.899,264.324 141.089 C 263.159 136.711,263.017 125.193,264.083 121.400 C 264.454 120.080,265.024 117.920,265.349 116.600 C 266.123 113.464,267.076 110.673,268.220 108.200 C 268.728 107.100,269.249 105.930,269.378 105.600 C 269.507 105.270,270.144 104.190,270.793 103.200 C 271.442 102.210,272.330 100.770,272.767 100.000 C 274.766 96.478,285.865 85.200,287.333 85.200 C 287.436 85.200,288.663 84.480,290.060 83.599 C 291.457 82.719,293.050 81.819,293.600 81.599 C 294.150 81.380,294.870 81.019,295.200 80.797 C 295.951 80.293,296.911 79.886,299.200 79.104 C 300.190 78.766,301.540 78.305,302.200 78.080 C 302.860 77.854,304.750 77.369,306.400 77.000 C 312.951 75.537,313.286 75.337,311.600 73.893 C 311.160 73.516,310.800 72.845,310.800 72.402 C 310.800 71.960,310.440 70.925,310.000 70.104 C 309.229 68.665,309.200 67.848,309.200 47.186 C 309.200 31.055,309.081 25.641,308.720 25.280 C 308.352 24.912,296.497 24.800,257.795 24.800 L 207.350 24.800 206.193 26.008 C 205.556 26.672,204.847 27.707,204.618 28.308 C 204.388 28.909,199.970 33.516,194.800 38.548 C 189.630 43.579,177.305 55.639,167.411 65.348 C 157.517 75.056,145.464 86.870,140.626 91.600 C 135.789 96.330,128.629 103.356,124.715 107.212 L 117.600 114.225 117.600 291.480 C 117.600 388.970,117.709 469.019,117.843 469.367 C 118.062 469.939,122.166 470.000,160.193 470.000 C 209.097 470.000,205.235 469.640,208.977 474.543 C 210.749 476.864,211.074 481.436,209.600 483.309 C 209.160 483.869,208.800 484.523,208.800 484.763 C 208.800 485.078,235.549 485.200,304.400 485.200 L 400.000 485.200 400.000 242.600 L 400.000 0.000 200.000 0.000 L 0.000 0.000 0.000 242.600 M117.843 25.433 C 117.526 26.259,117.526 84.141,117.843 84.967 C 118.285 86.119,118.972 85.641,123.607 80.961 C 126.133 78.409,129.460 75.228,131.000 73.891 C 136.409 69.194,180.085 25.661,179.819 25.231 C 179.333 24.444,118.146 24.644,117.843 25.433 M310.352 88.360 C 309.336 88.758,307.614 89.201,306.526 89.346 C 305.395 89.496,303.055 90.376,301.058 91.404 C 299.138 92.392,297.384 93.200,297.161 93.200 C 294.599 93.200,282.798 105.109,280.909 109.600 C 280.585 110.370,280.084 111.270,279.795 111.600 C 276.643 115.200,274.115 131.987,275.818 138.013 C 276.158 139.216,276.664 141.280,276.943 142.600 C 277.221 143.920,278.203 146.536,279.125 148.414 C 280.046 150.292,280.800 151.974,280.800 152.152 C 280.800 152.330,281.567 153.493,282.504 154.738 C 283.441 155.982,284.509 157.450,284.877 158.000 C 286.069 159.780,288.937 162.600,291.611 164.624 C 295.625 167.661,296.535 168.263,297.608 168.591 C 298.153 168.758,298.915 169.171,299.299 169.508 C 302.091 171.960,314.773 174.667,317.129 173.315 C 318.256 172.668,318.444 172.668,320.497 173.315 C 323.197 174.166,324.801 174.180,326.713 173.370 C 327.531 173.023,329.238 172.568,330.506 172.360 C 331.775 172.151,333.395 171.626,334.106 171.192 C 334.818 170.758,335.693 170.402,336.051 170.401 C 336.409 170.401,336.918 170.139,337.183 169.820 C 337.448 169.502,338.325 169.025,339.132 168.761 C 343.621 167.294,356.400 154.634,356.400 151.655 C 356.400 151.323,356.733 150.680,357.140 150.226 C 360.879 146.057,363.198 128.314,360.842 121.910 C 360.379 120.650,359.994 119.120,359.987 118.510 C 359.981 117.899,359.532 116.500,358.991 115.400 C 358.450 114.300,358.006 113.197,358.004 112.949 C 358.002 112.701,357.739 112.282,357.420 112.017 C 357.102 111.752,356.625 110.875,356.361 110.068 C 354.957 105.772,342.644 93.208,339.829 93.199 C 339.593 93.198,338.770 92.803,338.000 92.321 C 331.766 88.422,315.977 86.160,310.352 88.360 " stroke="none" fill="#fcfcfc" fill-rule="evenodd"></path></g></svg>